<?xml version="1.0" encoding="utf-8"?>
<!-- Generator: Adobe Illustrator 26.2.1, SVG Export Plug-In . SVG Version: 6.00 Build 0)  -->
<svg version="1.1" id="flag-icons-ad" xmlns="http://www.w3.org/2000/svg" xmlns:xlink="http://www.w3.org/1999/xlink" x="0px"
	 y="0px" viewBox="0 0 512 512" style="enable-background:new 0 0 512 512;" xml:space="preserve">
<style type="text/css">
	.st0{fill:#DE0000;}
	.st1{fill:#068E6B;}
	.st2{fill:#FFD900;}
</style>
<path class="st0" d="M0,0h512v512H0V0z"/>
<path class="st1" d="M0,192h512v128H0V192z"/>
<path class="st2" d="M128,25.6l-5.7,17.7h-18.6l15,10.9L113,71.9L128,61l15,10.9l-5.7-17.7l15-10.9h-18.6L128,25.6z M128,34.8
	l3.7,11.3h11.9l-9.6,7l3.7,11.3l-9.6-7l-9.6,7l3.7-11.3l-9.6-7h11.9L128,34.8z"/>
<g>
	<path class="st2" d="M86.9,118.2L99.6,131l12-11.9c18.3,19.5,37.4,38.4,55.6,58c2.7,2.7,7.2,2.8,9.9,0c2.7-2.7,2.8-7.1,0-9.9
		c-19.5-18.3-39-36.8-58.5-55.2l16.2-16L112.4,93L86.9,118.2z"/>
	<path class="st2" d="M128,76.8c10.5,5.9,18.4,14.3,23.1,23.2c4.8,9,6.8,18.3,6.9,25.8c0.1,15.3-12.5,27.7-27.8,27.7
		c-8.2,0-15.6-3.5-20.7-9.2l-2.8,2.4c-1.7-0.6-3.6-0.2-4.7,1.2c-2,0.3-3.7,1.6-4.3,3.6c-2.1,4.2-5.8,7.6-10.3,9.1c0,0-0.1,0-0.1,0.1
		c-2.1,0.8-4.2,2.1-5.9,3.9c-3.5,3.5-5.2,8-4.3,11.2c-0.1,0.3-0.1,0.6-0.1,0.9c0,1.5,1.2,2.6,2.7,2.6c0.4,0,0.7-0.1,1.1-0.2
		c3.2,0.7,7.5-1,10.8-4.4c1.9-1.9,3.3-4.2,4-6.4c1.6-4.5,4.9-8.1,9.2-10.1c0.1,0,0.2-0.1,0.3-0.2c1.4-0.7,2.5-2,2.9-3.5
		c6.6,7.7,16.4,12.6,27.4,12.9c20.1,0.5,35.2-14.3,35.9-35.6c0.4-10.7-3.8-24.5-13.3-35.8C150.6,87.1,140,80,128,76.8L128,76.8z"/>
</g>
</svg>
