<svg width="328" height="460" viewBox="0 0 328 460" fill="none" xmlns="http://www.w3.org/2000/svg">
<path d="M332.06 209.948C331.606 209.353 331.184 208.725 330.711 208.144C330.243 207.558 329.766 206.98 329.232 206.462C328.767 206.001 328.293 205.526 327.826 205.046C327.365 204.562 326.921 204.066 326.511 203.561C325.798 202.671 324.393 203.892 325.1 204.772C325.968 205.849 326.917 206.858 327.86 207.878C328.34 208.383 328.795 208.902 329.252 209.424C329.713 209.943 330.133 210.492 330.551 211.042C330.717 211.262 330.95 211.384 331.172 211.392C331.401 211.401 331.63 211.313 331.811 211.17C331.994 211.024 332.133 210.829 332.189 210.618C332.252 210.402 332.235 210.187 332.06 209.948Z" fill="#CACEDB"/>
<path d="M322.372 198.254C321.913 197.687 321.452 197.117 320.991 196.547C320.539 195.976 320.054 195.429 319.561 194.892C319.123 194.426 318.668 193.948 318.263 193.429C317.854 192.918 317.449 192.399 317.127 191.847C316.549 190.901 314.968 191.88 315.575 192.875C315.935 193.487 316.364 194.054 316.79 194.618C317.213 195.191 317.687 195.715 318.144 196.258C318.607 196.796 319.089 197.31 319.556 197.846C320.027 198.373 320.499 198.895 320.944 199.441C321.683 200.317 323.099 199.113 322.372 198.254Z" fill="#CACEDB"/>
<path d="M314.171 185.959C314.012 185.614 313.852 185.269 313.692 184.924C313.523 184.574 313.343 184.228 313.158 183.891C312.776 183.219 312.361 182.572 311.881 181.99C311.041 180.958 310.144 179.917 309.438 178.84C308.824 177.9 307.289 178.952 307.917 179.912C308.302 180.496 308.712 181.057 309.127 181.604C309.54 182.157 309.963 182.694 310.368 183.243C310.777 183.789 311.161 184.349 311.524 184.923C311.69 185.213 311.874 185.501 312.024 185.803C312.177 186.103 312.319 186.395 312.479 186.725C312.981 187.785 314.642 186.946 314.171 185.959Z" fill="#CACEDB"/>
<path d="M306.334 173.049C305.71 171.712 305.143 170.34 304.38 169.077C303.708 167.971 303.024 166.783 302.52 165.593C302.074 164.548 300.387 165.33 300.833 166.375C301.924 168.933 303.473 171.302 304.655 173.84C304.895 174.355 305.436 174.414 305.858 174.214C306.272 174.016 306.571 173.566 306.334 173.049Z" fill="#CACEDB"/>
<path d="M299.956 159.362C299.342 158.018 298.781 156.642 298.025 155.374C297.36 154.263 296.686 153.068 296.194 151.874C295.763 150.829 294.066 151.588 294.498 152.642C295.559 155.217 297.102 157.59 298.262 160.134C298.74 161.16 300.431 160.391 299.956 159.362Z" fill="#CACEDB"/>
<path d="M293.779 145.597C293.489 144.921 293.227 144.235 292.947 143.557C292.66 142.878 292.378 142.206 292.033 141.558C291.728 140.988 291.446 140.392 291.169 139.792C290.893 139.191 290.664 138.572 290.463 137.964C290.288 137.428 289.772 137.311 289.328 137.46C288.891 137.61 288.527 138.04 288.707 138.583C288.924 139.251 289.158 139.912 289.436 140.557C289.71 141.204 289.99 141.852 290.295 142.487C290.891 143.763 291.515 145.03 292.063 146.324C292.509 147.369 294.22 146.635 293.779 145.597Z" fill="#CACEDB"/>
<path d="M288.744 131.504C288.563 130.796 288.381 130.088 288.2 129.38C288.012 128.656 287.799 127.945 287.532 127.252C287.062 126.038 286.582 124.755 286.293 123.498C286.039 122.398 284.24 122.866 284.492 123.978C284.808 125.336 285.255 126.658 285.702 127.98C285.924 128.639 286.148 129.301 286.352 129.963C286.561 130.632 286.77 131.315 286.951 131.994C287.102 132.547 287.634 132.693 288.083 132.565C288.528 132.44 288.892 132.045 288.744 131.504Z" fill="#CACEDB"/>
<path d="M285.064 116.942C284.927 116.232 284.832 115.518 284.73 114.808C284.633 114.091 284.524 113.371 284.37 112.659C284.1 111.408 283.884 110.063 283.852 108.779C283.827 107.653 281.968 107.739 281.993 108.887C282.026 110.286 282.214 111.691 282.448 113.088C282.682 114.48 282.967 115.886 283.236 117.284C283.341 117.85 283.857 118.043 284.312 117.946C284.767 117.849 285.167 117.489 285.064 116.942Z" fill="#CACEDB"/>
<path d="M283.881 102.049C283.831 100.577 283.822 99.0697 283.6 97.6239C283.404 96.3505 283.246 94.9951 283.278 93.716C283.293 93.1558 282.84 92.873 282.375 92.8711C281.91 92.8691 281.432 93.1538 281.418 93.7288C281.381 95.1369 281.505 96.5423 281.656 97.9379C281.812 99.3401 281.975 100.717 282.023 102.116C282.063 103.248 283.92 103.187 283.881 102.049Z" fill="#CACEDB"/>
<path d="M283.915 87.124C283.952 86.7649 284.008 86.412 284.062 86.0558C284.11 85.6986 284.176 85.3443 284.235 84.9891L284.409 83.9224C284.459 83.5685 284.507 83.2114 284.553 82.8508C284.618 82.2195 284.726 81.5778 284.846 80.9323C284.981 80.2863 285.139 79.6442 285.342 79.0361C285.697 77.9707 283.916 77.4225 283.553 78.5131C283.335 79.1775 283.153 79.8569 282.991 80.5424C282.836 81.238 282.697 81.9423 282.59 82.6489C282.483 83.3556 282.384 84.0666 282.309 84.7758C282.264 85.1306 282.225 85.4864 282.189 85.8397L282.067 86.9003C281.997 87.4748 282.433 87.8106 282.897 87.8536C283.357 87.899 283.846 87.6722 283.915 87.124Z" fill="#CACEDB"/>
<path d="M287.741 72.8184C288.261 71.4596 288.878 70.1378 289.326 68.755C289.522 68.146 289.741 67.526 289.988 66.9165L290.178 66.4536C290.247 66.2885 290.319 66.121 290.382 65.9549C290.515 65.6237 290.625 65.2977 290.746 64.9794C290.947 64.4181 290.578 64.0199 290.134 63.8919C289.684 63.7629 289.156 63.9065 288.978 64.4067C288.865 64.7089 288.756 65.0086 288.638 65.2892C288.581 65.4357 288.515 65.5689 288.455 65.712L288.239 66.194C287.953 66.8411 287.696 67.4987 287.448 68.164C286.951 69.4913 286.504 70.8388 286.002 72.1594C285.598 73.2342 287.351 73.8631 287.741 72.8184Z" fill="#CACEDB"/>
<path d="M293.621 59.3219C294.487 58.2013 295.533 57.1436 296.351 55.8557C296.525 55.57 296.707 55.2794 296.888 54.9889C297.063 54.7032 297.235 54.4141 297.41 54.1284C297.75 53.5731 298.131 53.0452 298.542 52.5607C298.902 52.1383 298.733 51.6383 298.373 51.339C298.02 51.0407 297.462 50.9583 297.084 51.4041C296.624 51.9482 296.198 52.5243 295.806 53.121L295.249 53.9814C295.064 54.2595 294.875 54.54 294.681 54.8195C293.898 55.9365 293.031 57.048 292.151 58.1839C291.792 58.6508 292.003 59.1666 292.383 59.4311C292.759 59.6979 293.29 59.7492 293.621 59.3219Z" fill="#CACEDB"/>
<path d="M303.309 48.0685C304.397 47.1327 305.593 46.3123 306.674 45.3459C307.155 44.9175 307.665 44.4792 308.18 44.0623C308.695 43.6455 309.224 43.2487 309.767 42.9074C310.712 42.3157 309.696 40.7535 308.715 41.3714C308.121 41.7485 307.557 42.16 307 42.5815C306.442 43.0088 305.908 43.4342 305.356 43.883C304.801 44.3284 304.263 44.7915 303.72 45.2537L302.101 46.6479C301.661 47.0271 301.758 47.568 302.069 47.9121C302.378 48.2619 302.89 48.4221 303.309 48.0685Z" fill="#CACEDB"/>
<path d="M315.601 39.9918C315.926 39.8611 316.259 39.7405 316.59 39.6256C316.924 39.5141 317.258 39.4025 317.616 39.3039C318.32 39.0957 319.015 38.8684 319.695 38.5914C320.885 38.1029 322.155 37.6074 323.407 37.2914C323.932 37.165 324.087 36.6667 323.989 36.2113C323.895 35.7535 323.482 35.3566 322.898 35.4996C321.544 35.8426 320.223 36.3089 318.9 36.7866L316.915 37.4974C316.25 37.7238 315.567 38.0033 314.9 38.2708C314.353 38.4936 314.279 39.0409 314.472 39.4683C314.665 39.8809 315.104 40.1937 315.601 39.9918Z" fill="#CACEDB"/>
<path d="M323.67 226.865C322.38 227.552 321.017 228.179 319.796 229.042C319.529 229.233 319.255 229.422 318.981 229.617L318.567 229.907C318.441 229.992 318.314 230.082 318.183 230.16C317.657 230.484 317.093 230.739 316.501 230.913C315.987 231.062 315.842 231.574 315.97 232.023C316.098 232.466 316.511 232.854 317.093 232.681C317.804 232.468 318.511 232.166 319.174 231.78C319.518 231.576 319.793 231.396 320.081 231.206L320.947 230.645C322.112 229.902 323.304 229.169 324.545 228.513C325.556 227.97 324.662 226.331 323.67 226.865Z" fill="#CACEDB"/>
<path d="M309.922 232.937C309.267 233.277 308.631 233.588 308.011 233.843C307.7 233.973 307.396 234.084 307.09 234.185C306.934 234.236 306.795 234.28 306.624 234.331C306.451 234.378 306.277 234.431 306.107 234.482C305.502 234.68 304.872 234.851 304.235 234.997C303.598 235.142 302.948 235.242 302.316 235.303C301.206 235.387 301.383 237.243 302.538 237.152C303.239 237.082 303.944 236.989 304.643 236.845L305.688 236.621L306.726 236.351C307.056 236.263 307.448 236.161 307.809 236.024C308.176 235.895 308.52 235.741 308.859 235.58C309.532 235.258 310.163 234.905 310.78 234.582C311.28 234.321 311.317 233.786 311.114 233.365C310.905 232.959 310.429 232.672 309.922 232.937Z" fill="#CACEDB"/>
<path d="M295.665 235.441C294.939 235.463 294.207 235.439 293.479 235.443C292.75 235.432 292.021 235.456 291.294 235.504C290.655 235.555 289.995 235.591 289.339 235.589C288.68 235.599 288.024 235.562 287.387 235.495C286.273 235.36 286.094 237.213 287.24 237.35C287.938 237.424 288.642 237.472 289.345 237.482C290.049 237.5 290.758 237.485 291.466 237.466C292.17 237.443 292.881 237.407 293.586 237.379C294.293 237.345 294.998 237.323 295.705 237.304C296.855 237.283 296.779 235.42 295.665 235.441Z" fill="#CACEDB"/>
<path d="M280.906 234.321C280.223 234.162 279.547 233.942 278.869 233.718C278.19 233.5 277.511 233.262 276.809 233.076C275.575 232.738 274.271 232.314 273.07 231.796C272.003 231.345 271.376 233.098 272.39 233.531C273.642 234.073 274.952 234.553 276.308 234.986C276.987 235.203 277.675 235.405 278.365 235.595C279.058 235.783 279.758 235.966 280.46 236.132C281.031 236.275 281.415 235.866 281.504 235.409C281.601 234.951 281.426 234.45 280.906 234.321Z" fill="#CACEDB"/>
<path d="M266.905 229.182C266.249 228.897 265.611 228.575 264.982 228.25L264.036 227.764L263.555 227.52C263.381 227.438 263.207 227.35 263.028 227.275C261.783 226.744 260.488 226.283 259.358 225.68C258.863 225.417 258.412 225.697 258.198 226.112C257.984 226.526 258.029 227.085 258.54 227.357C259.783 228.021 261.071 228.512 262.272 229.095L263.215 229.563C263.539 229.721 263.866 229.877 264.195 230.026C264.851 230.326 265.511 230.608 266.164 230.895C266.697 231.127 267.142 230.804 267.318 230.371C267.489 229.932 267.408 229.399 266.905 229.182Z" fill="#CACEDB"/>
<path d="M254.319 221.553C253.979 221.281 253.598 221.022 253.192 220.827C252.994 220.725 252.773 220.635 252.585 220.562C252.4 220.493 252.216 220.426 252.026 220.365C251.279 220.115 250.546 219.956 249.898 219.811C249.33 219.686 248.792 219.489 248.268 219.185C248.006 219.029 247.76 218.861 247.505 218.664C247.238 218.46 246.979 218.251 246.723 218.04C245.821 217.305 244.736 218.818 245.583 219.512C245.844 219.73 246.102 219.945 246.371 220.152C246.662 220.384 246.977 220.614 247.313 220.818C247.977 221.234 248.755 221.548 249.481 221.732C250.212 221.923 250.875 222.047 251.515 222.232C251.676 222.274 251.835 222.327 251.992 222.377C252.13 222.43 252.273 222.475 252.403 222.538C252.675 222.657 252.923 222.814 253.159 223.004C253.532 223.309 254.05 223.187 254.385 222.858C254.709 222.541 254.847 221.984 254.319 221.553Z" fill="#CACEDB"/>
<path d="M241.17 213.991C239.862 213.252 238.545 212.499 237.139 211.997C236.519 211.777 235.889 211.55 235.264 211.309C234.632 211.072 234.027 210.811 233.46 210.524C232.96 210.275 232.509 210.555 232.309 210.975C232.103 211.394 232.151 211.95 232.67 212.211C232.985 212.371 233.304 212.522 233.627 212.67C233.942 212.809 234.261 212.945 234.577 213.078C235.217 213.34 235.856 213.601 236.496 213.862C237.775 214.384 239.053 214.933 240.252 215.613C240.739 215.887 241.212 215.631 241.451 215.229C241.686 214.83 241.673 214.274 241.17 213.991Z" fill="#CACEDB"/>
<path d="M227.673 207.166C226.387 206.457 225.12 205.674 223.748 205.107C223.148 204.858 222.529 204.598 221.918 204.321C221.311 204.041 220.702 203.759 220.133 203.442C219.629 203.165 219.171 203.456 218.968 203.873C218.765 204.295 218.809 204.839 219.297 205.107C219.894 205.443 220.513 205.739 221.133 206.05C221.757 206.347 222.385 206.642 223.016 206.94C224.281 207.527 225.551 208.122 226.78 208.801C227.772 209.345 228.66 207.71 227.673 207.166Z" fill="#CACEDB"/>
<path d="M213.977 200.408L212.899 200.04L212.359 199.854L211.808 199.697C211.442 199.594 211.07 199.495 210.701 199.41C210.346 199.329 209.99 199.26 209.631 199.202C208.999 199.107 208.35 198.974 207.705 198.833C207.061 198.686 206.423 198.505 205.816 198.296C204.748 197.921 204.187 199.697 205.263 200.076C205.927 200.3 206.593 200.507 207.274 200.678C207.958 200.853 208.641 201.012 209.339 201.151L210.373 201.363L211.372 201.585C211.709 201.654 212.034 201.75 212.362 201.85C212.69 201.949 213.018 202.049 213.344 202.16C214.385 202.554 215.076 200.826 213.977 200.408Z" fill="#CACEDB"/>
<path d="M199.459 196C198.746 195.791 198.029 195.57 197.307 195.377C196.577 195.195 195.85 195.016 195.101 194.934C194.449 194.853 193.774 194.769 193.101 194.688C192.765 194.64 192.431 194.589 192.101 194.542C191.766 194.498 191.439 194.448 191.113 194.387C190.543 194.273 190.197 194.701 190.146 195.167C190.092 195.629 190.309 196.125 190.848 196.231C191.179 196.293 191.511 196.349 191.848 196.397L192.85 196.566C193.524 196.662 194.199 196.782 194.878 196.894C195.558 197 196.235 197.144 196.917 197.279C197.595 197.432 198.269 197.593 198.934 197.791C200.012 198.108 200.558 196.327 199.459 196Z" fill="#CACEDB"/>
<path d="M184.187 193.833L183.61 193.88L183.072 193.931C182.715 193.968 182.358 193.99 182.005 194.019C181.292 194.072 180.577 194.122 179.864 194.211C178.609 194.368 177.257 194.437 175.989 194.305C175.436 194.25 175.117 194.674 175.077 195.141C175.037 195.603 175.285 196.107 175.859 196.163C176.563 196.238 177.271 196.263 177.985 196.26C178.698 196.256 179.412 196.218 180.125 196.164C180.839 196.105 181.552 196.031 182.263 195.939C182.965 195.863 183.706 195.729 184.364 195.69C184.907 195.646 185.154 195.158 185.132 194.694C185.102 194.227 184.784 193.787 184.187 193.833Z" fill="#CACEDB"/>
<path d="M169.409 193.212C169.237 193.183 169.032 193.157 168.833 193.132L168.237 193.052C167.84 193.032 167.438 192.985 167.042 192.995C166.644 192.995 166.248 193.005 165.856 193.057C165.462 193.09 165.078 193.167 164.698 193.25C164.364 193.326 164.039 193.421 163.702 193.5C163.374 193.592 163.041 193.683 162.713 193.775C162.057 193.965 161.408 194.144 160.77 194.295C159.651 194.557 160.165 196.35 161.251 196.097C161.916 195.941 162.569 195.775 163.219 195.604C163.869 195.449 164.516 195.281 165.166 195.167C165.818 195.036 166.475 194.967 167.131 194.934C167.46 194.921 167.789 194.93 168.12 194.941C168.453 194.977 168.761 195 169.114 195.056C170.252 195.225 170.518 193.381 169.409 193.212Z" fill="#CACEDB"/>
<path d="M154.24 195.588C152.802 195.855 151.322 196.035 149.892 196.483C148.633 196.874 147.308 197.308 146.032 197.646C145.47 197.799 145.335 198.324 145.482 198.764C145.631 199.208 146.041 199.571 146.566 199.43C147.869 199.073 149.181 198.714 150.496 198.359C151.833 198.007 153.194 197.674 154.577 197.421C155.706 197.208 155.344 195.383 154.24 195.588Z" fill="#CACEDB"/>
<path d="M139.537 199.867C138.181 200.489 136.794 201.097 135.555 201.934C134.465 202.669 133.327 203.449 132.185 204.09C131.181 204.663 132.191 206.23 133.152 205.682C135.523 204.353 137.789 202.715 140.308 201.558C141.327 201.1 140.59 199.39 139.537 199.867Z" fill="#CACEDB"/>
<path d="M126.37 207.634C125.769 208.071 125.159 208.496 124.559 208.942C123.968 209.393 123.384 209.855 122.847 210.368C122.379 210.822 121.887 211.278 121.388 211.724C120.891 212.174 120.382 212.606 119.861 212.992C118.954 213.688 120.142 215.123 121.031 214.439C121.584 214.026 122.117 213.591 122.643 213.141C123.174 212.698 123.696 212.241 124.215 211.78L125.801 210.425C126.34 209.985 126.886 209.556 127.45 209.145C128.375 208.497 127.303 206.969 126.37 207.634Z" fill="#CACEDB"/>
<path d="M114.497 217.142C113.945 217.641 113.373 218.119 112.833 218.629C112.291 219.141 111.754 219.655 111.278 220.225C110.858 220.726 110.412 221.225 109.968 221.728C109.522 222.227 109.053 222.702 108.58 223.149C107.75 223.937 109.084 225.237 109.9 224.465C110.4 223.993 110.891 223.507 111.367 223.007C111.843 222.507 112.322 222.004 112.789 221.491C113.261 220.978 113.742 220.479 114.227 219.978C114.714 219.48 115.219 218.999 115.736 218.536C116.153 218.158 116.062 217.628 115.756 217.275C115.449 216.929 114.921 216.76 114.497 217.142Z" fill="#CACEDB"/>
<path d="M103.694 227.863C103.441 228.138 103.194 228.415 102.942 228.69L102.208 229.536C101.718 230.101 101.265 230.69 100.855 231.31C100.49 231.853 100.127 232.419 99.7434 232.964C99.3544 233.508 98.9655 234.052 98.5513 234.554C97.8228 235.436 99.3141 236.554 100.031 235.691C100.47 235.161 100.881 234.612 101.294 234.06C101.7 233.504 102.107 232.942 102.513 232.38C102.918 231.815 103.327 231.256 103.754 230.71C104.177 230.157 104.618 229.621 105.082 229.105C105.829 228.27 104.459 227.005 103.694 227.863Z" fill="#CACEDB"/>
<path d="M94.309 239.868C93.8879 240.481 93.4635 241.096 93.0529 241.716C92.6472 242.342 92.2657 242.982 91.933 243.648C91.648 244.239 91.3497 244.84 91.0328 245.428C90.724 246.021 90.399 246.606 90.0477 247.154C89.4428 248.124 91.0637 249.049 91.6533 248.099C92.0275 247.52 92.3717 246.927 92.7087 246.324C93.0538 245.726 93.3802 245.115 93.7125 244.505C94.0528 243.9 94.385 243.29 94.7335 242.689C95.09 242.092 95.4523 241.496 95.8461 240.923C96.4877 239.998 94.9625 238.924 94.309 239.868Z" fill="#CACEDB"/>
<path d="M86.5172 252.965C86.1831 253.622 85.8455 254.281 85.5137 254.941C85.1895 255.59 84.8668 256.249 84.5961 256.93C84.1145 258.131 83.5651 259.384 82.9266 260.52C82.366 261.524 84.0353 262.354 84.5786 261.382C85.2507 260.188 85.8502 258.934 86.434 257.65L87.2986 255.713C87.585 255.061 87.8733 254.432 88.1836 253.812C88.4359 253.31 88.1515 252.846 87.7402 252.63C87.3231 252.412 86.7749 252.449 86.5172 252.965Z" fill="#CACEDB"/>
<path d="M79.8889 266.712C79.6515 267.441 79.4318 268.188 79.2742 268.951C79.181 269.33 79.1394 269.717 79.0864 270.103L79.052 270.395L79.0297 270.668L78.9975 271.211C78.9409 272.477 78.792 273.819 78.426 275.033C78.2691 275.563 78.6243 275.956 79.074 276.085C79.5203 276.216 80.0606 276.069 80.229 275.505C80.6367 274.13 80.8377 272.706 80.9672 271.287L81.0123 270.756L81.0641 270.255C81.096 269.924 81.129 269.588 81.1963 269.258C81.2521 268.925 81.3079 268.593 81.3948 268.269C81.4759 267.944 81.5523 267.612 81.6678 267.293C81.8376 266.773 81.4895 266.355 81.0538 266.196C80.6085 266.024 80.073 266.142 79.8889 266.712Z" fill="#CACEDB"/>
<path d="M76.11 281.382C75.736 282.854 75.3998 284.33 75.2856 285.798C75.1897 287.087 75.0299 288.442 74.7488 289.711C74.5019 290.83 76.3389 291.152 76.5787 290.059C76.73 289.386 76.8527 288.708 76.9649 288.023C77.078 287.332 77.1692 286.632 77.2537 285.936C77.4251 284.548 77.5831 283.169 77.9182 281.841C78.0522 281.307 77.6822 280.914 77.2325 280.785C76.7886 280.657 76.2531 280.812 76.11 281.382Z" fill="#CACEDB"/>
<path d="M73.4238 296.405C73.3511 297.153 73.2661 297.904 73.2278 298.658C73.1838 299.411 73.1809 300.165 73.2381 300.911C73.2654 301.239 73.295 301.571 73.3213 301.906C73.3438 302.228 73.3687 302.553 73.3787 302.879C73.3955 303.533 73.3793 304.19 73.3135 304.827C73.1989 305.948 75.0543 306.09 75.1719 304.952C75.2416 304.257 75.2698 303.546 75.2717 302.833C75.2665 302.479 75.2574 302.112 75.2454 301.762L75.2034 300.733C75.1517 299.357 75.1397 297.973 75.2763 296.6C75.3947 295.492 73.55 295.251 73.4238 296.405Z" fill="#CACEDB"/>
<path d="M72.6907 311.637C72.7179 312.404 72.7431 313.183 72.8571 313.96C72.8836 314.153 72.9125 314.349 72.9447 314.543L73.0743 315.122C73.1545 315.504 73.2881 315.883 73.4237 316.25C73.5365 316.579 73.6989 316.892 73.8297 317.218C73.9587 317.519 74.0901 317.824 74.2215 318.129C74.3448 318.43 74.4671 318.736 74.5813 319.038C74.6855 319.348 74.7748 319.657 74.8561 319.963C75.1411 321.036 76.9397 320.553 76.637 319.427C76.5443 319.084 76.4517 318.742 76.3399 318.407C76.2224 318.072 76.0992 317.736 75.9726 317.403L75.5928 316.437C75.4719 316.14 75.3487 315.839 75.2546 315.523L75.1 315.057L74.9746 314.577C74.8838 314.258 74.8236 313.932 74.761 313.604C74.6416 312.947 74.5751 312.273 74.5507 311.594C74.5429 311.045 74.0772 310.766 73.6121 310.764C73.1489 310.751 72.6815 311.043 72.6907 311.637Z" fill="#CACEDB"/>
<path d="M76.1957 326.506C76.5204 327.939 76.7768 329.411 77.2748 330.812C77.4898 331.426 77.7101 332.061 77.9179 332.7C78.0201 333.021 78.1166 333.341 78.2074 333.66C78.3039 333.979 78.3947 334.298 78.4707 334.617C78.7447 335.739 80.5275 335.192 80.264 334.113C80.1842 333.781 80.092 333.454 80.0031 333.123C79.9176 332.791 79.8231 332.459 79.7285 332.128C79.5302 331.467 79.3296 330.803 79.129 330.139C78.7254 328.806 78.3237 327.463 78.0147 326.094C77.7559 324.987 75.9417 325.405 76.1957 326.506Z" fill="#CACEDB"/>
<path d="M80.4955 341.202C80.6612 341.548 80.8246 341.891 80.9936 342.235L81.2455 342.752L81.5323 343.254C81.7238 343.587 81.9244 343.918 82.1293 344.242C82.3342 344.565 82.5907 344.862 82.8324 345.159C83.0455 345.416 83.2634 345.679 83.4846 345.941C83.6996 346.186 83.9137 346.437 84.1211 346.693C84.5426 347.201 84.9329 347.735 85.2846 348.272C85.8941 349.22 87.4369 348.172 86.8146 347.213C86.4362 346.625 86.0287 346.052 85.5911 345.501L84.9433 344.676L84.3317 343.88C83.8974 343.362 83.5467 342.784 83.1735 342.217C83.0825 342.075 82.9858 341.932 82.9015 341.785L82.6619 341.335C82.5032 341.035 82.348 340.731 82.1961 340.426C81.9618 339.927 81.4419 339.848 81.0076 340.031C80.5766 340.211 80.2465 340.668 80.4955 341.202Z" fill="#CACEDB"/>
<path d="M88.7556 354.034C89.5619 355.266 90.3208 356.552 91.2667 357.69C92.1001 358.691 92.9629 359.762 93.6691 360.854C94.2972 361.814 95.8138 360.73 95.1967 359.792C94.8265 359.208 94.4251 358.651 94.019 358.087C93.613 357.524 93.1868 356.975 92.7683 356.415C91.9236 355.306 91.0775 354.188 90.3084 353.015C89.6932 352.065 88.1346 353.084 88.7556 354.034Z" fill="#CACEDB"/>
<path d="M97.4955 366.499C97.9594 367.087 98.449 367.662 98.942 368.234C99.4393 368.799 99.9768 369.334 100.539 369.827C101.535 370.667 102.573 371.573 103.459 372.521C104.241 373.357 105.542 372.027 104.779 371.209C103.84 370.202 102.82 369.258 101.801 368.313C101.31 367.836 100.798 367.372 100.326 366.871C99.8533 366.37 99.375 365.868 98.9478 365.325C98.2394 364.457 96.7666 365.595 97.4955 366.499Z" fill="#CACEDB"/>
<path d="M108.163 377.431C108.719 377.928 109.267 378.436 109.843 378.919C110.409 379.41 111.007 379.861 111.627 380.272C112.177 380.633 112.747 380.989 113.298 381.374C113.864 381.743 114.401 382.137 114.92 382.54C115.833 383.242 116.897 381.713 116.018 381.037C115.482 380.617 114.932 380.206 114.368 379.81C113.815 379.402 113.24 379.019 112.682 378.609C111.556 377.806 110.437 376.978 109.403 376.049C108.982 375.678 108.463 375.826 108.148 376.17C107.839 376.507 107.732 377.052 108.163 377.431Z" fill="#CACEDB"/>
<path d="M120.462 386.546C121.108 386.908 121.78 387.313 122.409 387.652C123.049 387.999 123.694 388.347 124.373 388.641C125.56 389.163 126.803 389.747 127.925 390.411C128.92 390.994 129.781 389.342 128.821 388.779C127.642 388.08 126.408 387.45 125.149 386.828L123.248 385.9C122.608 385.588 122.011 385.272 121.405 384.932C120.446 384.363 119.467 385.948 120.462 386.546Z" fill="#CACEDB"/>
<path d="M134.061 393.586C134.801 393.825 135.536 394.064 136.325 394.224C137.106 394.38 137.85 394.44 138.53 394.496C138.833 394.518 139.13 394.553 139.425 394.606C139.57 394.634 139.718 394.665 139.862 394.704C140.011 394.744 140.166 394.79 140.32 394.837C140.933 395.026 141.537 395.272 142.118 395.55C143.146 396.039 143.866 394.381 142.854 393.886C142.228 393.58 141.568 393.298 140.878 393.057C140.541 392.939 140.155 392.82 139.78 392.739C139.402 392.655 139.026 392.594 138.662 392.551C137.932 392.46 137.247 392.418 136.599 392.314C135.954 392.208 135.296 392.041 134.657 391.83C134.143 391.646 133.718 391.984 133.553 392.418C133.387 392.844 133.5 393.385 134.061 393.586Z" fill="#CACEDB"/>
<path d="M112.993 403.474L127.678 392.776C130.072 394.432 132.674 395.844 134.818 396.639C135.031 396.719 144.362 400.177 154.958 404.108L150.039 410.172C148.13 409.976 146.664 410.197 146.302 411.197C146.045 411.904 146.476 412.702 147.313 413.524L141.514 420.673C138.88 420.181 136.621 420.195 136.146 421.517C135.787 422.514 136.699 423.661 138.18 424.786L127.196 438.319L135.63 442.188L150.504 430.806L154.422 432.26C155.184 432.545 156.056 432.106 156.362 431.288L157.662 427.775C157.943 427.015 157.636 426.194 156.98 425.854L162.899 421.323L165.966 422.46C166.782 422.763 167.701 422.341 168.003 421.525L169.303 418.012C169.487 417.513 169.4 416.98 169.122 416.567L175.463 411.716C181.25 413.863 185.332 415.377 185.474 415.428C191.424 417.635 202.319 418.24 203.699 414.514C205.08 410.787 196.42 404.137 190.47 401.93C190.331 401.877 186.249 400.363 180.459 398.218L178.805 390.406C179.284 390.277 179.701 389.929 179.885 389.43L181.186 385.917C181.488 385.102 181.065 384.182 180.25 383.879L177.183 382.743L175.637 375.443C176.357 375.612 177.124 375.187 177.407 374.431L178.707 370.918C179.009 370.103 178.633 369.2 177.868 368.917L173.95 367.463L170.073 349.125L161.155 346.559L160.682 363.991C158.828 363.878 157.388 364.156 157.012 365.145C156.515 366.457 158.218 367.944 160.538 369.284L160.288 378.487C159.117 378.564 158.27 378.889 158.005 379.592C157.629 380.587 158.595 381.71 160.172 382.807L159.958 390.617C149.363 386.686 140.032 383.228 139.818 383.147C137.675 382.352 134.781 381.728 131.887 381.422L127.707 363.729L123.531 361.692L123.15 381.526C118.129 380.236 112.229 379.057 111.914 380.548C111.604 382.01 116.626 384.832 121.103 387.028L108.506 402.304L112.993 403.474Z" fill="#CACEDB"/>
</svg>
