<svg width="376" height="244" viewBox="0 0 376 244" fill="none" xmlns="http://www.w3.org/2000/svg">
<path d="M-1.07905 18.6731C-0.364494 18.632 0.341853 18.6156 1.06463 18.6197C1.7874 18.6115 2.50607 18.6033 3.23295 18.5581C3.86948 18.5128 4.52655 18.4882 5.18361 18.4923C5.84068 18.4964 6.49775 18.5334 7.13839 18.6156C8.2554 18.7594 8.44432 16.9058 7.31088 16.762C5.92282 16.5853 4.50601 16.5606 3.081 16.5935C2.37055 16.6099 1.656 16.6428 0.945542 16.6839C0.235089 16.7168 -0.487685 16.7743 -1.19814 16.8154C-2.37264 16.9058 -2.16321 18.7553 -1.07905 18.6731Z" fill="#CACEDB"/>
<path d="M13.8076 19.602C14.5468 19.6718 15.2943 19.7458 16.0417 19.7951C16.4154 19.8157 16.7932 19.8321 17.1669 19.8362C17.516 19.8486 17.865 19.8362 18.2223 19.8362C19.4666 19.8198 20.8054 19.9431 22.0292 20.2719C23.0928 20.5678 23.5815 18.7676 22.4481 18.4594C21.7581 18.2744 21.0559 18.1429 20.3413 18.0402C19.9841 17.9908 19.6227 17.958 19.2654 17.9251C18.904 17.9004 18.5385 17.8799 18.1771 17.8675L16.054 17.8593C15.36 17.847 14.67 17.8182 13.976 17.7525C12.859 17.6415 12.666 19.4951 13.8076 19.602Z" fill="#CACEDB"/>
<path d="M28.2631 22.4996C28.9448 22.7503 29.6183 23.0298 30.2918 23.3011C30.6285 23.4367 30.9694 23.5682 31.3102 23.6956C31.6429 23.823 32.0125 23.9422 32.3205 24.0491C33.458 24.4149 34.6284 25.0601 35.6469 25.841C36.5462 26.5274 37.6304 25.0149 36.7228 24.3244C35.6099 23.4778 34.3368 22.701 32.9159 22.1708C32.2424 21.9242 31.5772 21.6982 30.9078 21.468C30.2384 21.2378 29.569 21.0036 28.9078 20.7611C27.8278 20.3583 27.22 22.1215 28.2631 22.4996Z" fill="#CACEDB"/>
<path d="M41.3839 29.6509C42.7186 30.3044 44.0039 30.9826 45.2975 31.558C45.8725 31.8046 46.4392 32.0964 46.9813 32.4293C47.5234 32.7622 48.0285 33.1485 48.472 33.576C48.8498 33.9541 49.3632 33.8267 49.6958 33.502C50.0284 33.1773 50.1557 32.6307 49.7204 32.1991C49.1866 31.6854 48.5993 31.2292 47.9833 30.8223C47.3632 30.4236 46.7226 30.066 46.0737 29.7496C44.7719 29.1125 43.4537 28.5947 42.2011 27.9823C41.195 27.4809 40.349 29.1413 41.3839 29.6509Z" fill="#CACEDB"/>
<path d="M52.6936 38.6683C53.6259 39.7903 54.4883 40.9822 55.5067 42.0385C56.402 42.9673 57.3178 43.9825 58.0528 45.0388C58.6976 45.9676 60.1924 44.8579 59.5436 43.925C57.9502 41.6398 55.9215 39.6423 54.1228 37.4764C53.3918 36.5968 51.9791 37.8093 52.6936 38.6683Z" fill="#CACEDB"/>
<path d="M61.6585 50.6654C62.447 51.8861 63.141 53.1725 63.9788 54.3562C64.3525 54.8741 64.7139 55.4248 65.0548 55.9879C65.3956 56.5509 65.7036 57.1305 65.9623 57.7182C66.1882 58.2319 66.7138 58.2936 67.1368 58.0963C67.5557 57.899 67.8719 57.4387 67.6378 56.9085C67.3545 56.2633 67.03 55.6344 66.681 55.0179C66.3319 54.4014 65.9623 53.7972 65.5722 53.2013C65.1903 52.6053 64.7919 52.0135 64.3936 51.4299C63.9993 50.8422 63.601 50.2544 63.2191 49.6585C62.5907 48.6926 61.0466 49.7366 61.6585 50.6654Z" fill="#CACEDB"/>
<path d="M68.2743 63.9695C68.8082 65.3628 69.3092 66.7684 70.0032 68.0672C70.6151 69.2097 71.2229 70.4263 71.6295 71.6429C71.9744 72.7074 73.7362 72.095 73.3748 70.9976C72.4878 68.3261 71.0052 65.9012 70.0114 63.3037C69.8102 62.7817 69.2681 62.6707 68.8369 62.8434C68.4057 63.016 68.069 63.4311 68.2743 63.9695Z" fill="#CACEDB"/>
<path d="M73.2188 78.038C73.4898 79.4066 73.5473 80.8656 73.88 82.3329C74.1715 83.6193 74.496 85.0003 74.8574 86.3155C75.0093 86.8786 75.5308 86.9978 75.9744 86.8621C76.422 86.7265 76.7793 86.2991 76.6396 85.7689C76.307 84.5359 76.0401 83.2371 75.7978 81.8726C75.5514 80.5122 75.3296 79.0984 75.0462 77.6722C74.9272 77.0968 74.4056 76.92 73.9539 77.0269C73.4939 77.1379 73.1079 77.5119 73.2188 78.038Z" fill="#CACEDB"/>
<path d="M75.8265 92.6778C75.8512 93.4258 75.8306 94.182 75.8799 94.93C75.921 95.678 75.9744 96.4261 76.1099 97.1576C76.2208 97.8029 76.3316 98.4646 76.4343 99.1263C76.5288 99.7881 76.6027 100.45 76.6437 101.099C76.7095 102.238 78.5616 102.057 78.4959 100.931C78.4137 99.5497 78.2248 98.1769 78.0482 96.8001C77.9497 96.1096 77.8799 95.4232 77.8101 94.7328C77.7361 94.0423 77.7115 93.3518 77.6909 92.6613C77.6827 92.3859 77.5636 92.1517 77.3871 92.016C77.2064 91.8763 76.9682 91.8146 76.7382 91.827C76.5041 91.8393 76.2783 91.9174 76.1099 92.0571C75.9333 92.1969 75.8224 92.3818 75.8265 92.6778Z" fill="#CACEDB"/>
<path d="M76.9394 107.823C76.9846 108.551 77.0298 109.282 77.0749 110.014C77.1119 110.741 77.1899 111.469 77.2803 112.192C77.3665 112.825 77.461 113.479 77.4897 114.136C77.5267 114.79 77.5554 115.447 77.4979 116.084C77.4199 117.19 79.2761 117.309 79.3582 116.146C79.4198 115.439 79.3993 114.728 79.3788 114.021C79.3664 113.31 79.2843 112.607 79.2268 111.9C79.1611 111.193 79.0667 110.495 78.9968 109.788C78.9188 109.085 78.8367 108.386 78.7915 107.683C78.6971 106.541 76.845 106.701 76.9394 107.823Z" fill="#CACEDB"/>
<path d="M76.4918 122.595C76.422 122.969 76.3522 123.343 76.2824 123.717C76.2166 124.099 76.1632 124.485 76.1181 124.867C76.04 125.636 76.0031 126.405 76.0565 127.157C76.1427 128.484 76.27 129.853 76.2207 131.139C76.1756 132.261 78.0359 132.294 78.0811 131.147C78.1057 130.449 78.0975 129.754 78.077 129.068C78.0605 128.377 78.0277 127.695 78.0154 127.013C77.999 126.331 78.0113 125.652 78.0482 124.974C78.0811 124.641 78.0975 124.3 78.1509 123.967C78.2002 123.634 78.2536 123.314 78.3152 122.952C78.5205 121.797 76.6807 121.518 76.4918 122.595Z" fill="#CACEDB"/>
<path d="M75.3912 137.658C75.1243 139.109 74.7916 140.555 74.6807 142.027C74.5863 143.317 74.4549 144.682 74.1756 145.943C73.9333 147.053 75.7608 147.394 76.0031 146.285C76.5986 143.568 76.7095 140.74 77.2187 137.986C77.3214 137.428 76.9148 137.066 76.4548 136.984C76.0031 136.906 75.498 137.099 75.3912 137.658Z" fill="#CACEDB"/>
<path d="M72.6521 152.507C72.3728 153.958 72.032 155.405 71.9129 156.876C71.8102 158.167 71.6665 159.531 71.3749 160.789C71.1203 161.89 72.9436 162.256 73.2024 161.146C73.8307 158.434 73.9498 155.606 74.4795 152.861C74.6849 151.747 72.8615 151.393 72.6521 152.507Z" fill="#CACEDB"/>
<path d="M69.7035 167.303C69.5474 168.022 69.3626 168.733 69.1984 169.449C69.0382 170.168 68.878 170.879 68.7836 171.606C68.7014 172.247 68.5865 172.897 68.4633 173.546C68.3401 174.196 68.1676 174.833 67.9787 175.445C67.8103 175.983 68.1635 176.378 68.6111 176.514C69.0546 176.645 69.6008 176.505 69.7692 175.959C69.9786 175.289 70.1716 174.615 70.3195 173.928C70.4714 173.242 70.6193 172.552 70.7384 171.857C70.993 170.472 71.2188 169.079 71.5227 167.706C71.765 166.596 69.9458 166.202 69.7035 167.303Z" fill="#CACEDB"/>
<path d="M65.6337 181.705C65.3709 182.387 65.1081 183.069 64.8453 183.751C64.5783 184.45 64.3401 185.153 64.1553 185.872C63.835 187.134 63.4818 188.457 62.989 189.649C62.5578 190.693 64.295 191.355 64.7344 190.303C65.2641 189.012 65.6666 187.676 66.069 186.341C66.2703 185.675 66.4715 185.005 66.6892 184.347C66.9068 183.681 67.1327 183.003 67.3791 182.346C67.5762 181.807 67.2271 181.38 66.7877 181.224C66.3524 181.067 65.8268 181.178 65.6337 181.705Z" fill="#CACEDB"/>
<path d="M60.1883 195.703C59.8885 196.361 59.5518 196.998 59.2233 197.635C58.8865 198.276 58.558 198.925 58.2705 199.595C57.7654 200.771 57.1617 201.991 56.443 203.056C55.8106 203.989 57.3753 204.996 58.02 204.046C58.8044 202.887 59.4655 201.634 60.0857 200.36C60.7017 199.09 61.2848 197.779 61.8762 196.484C62.1184 195.962 61.8105 195.506 61.3834 195.321C60.9563 195.136 60.4224 195.198 60.1883 195.703Z" fill="#CACEDB"/>
<path d="M52.5171 208.522C51.704 209.751 50.8374 210.984 50.1804 212.291C49.6013 213.442 48.9443 214.638 48.1763 215.661C47.8396 216.109 48.0449 216.603 48.4227 216.874C48.8006 217.145 49.3549 217.19 49.6999 216.73C50.5459 215.604 51.2604 214.387 51.9462 213.162C52.6321 211.929 53.2974 210.713 54.0694 209.546C54.6936 208.6 53.1454 207.573 52.5171 208.522Z" fill="#CACEDB"/>
<path d="M43.8356 220.663C43.5974 220.934 43.3469 221.189 43.0964 221.448C42.85 221.711 42.5913 221.962 42.3366 222.217L41.5769 222.985C41.3305 223.244 41.0841 223.507 40.8377 223.774C40.4188 224.251 39.9589 224.712 39.4866 225.168C39.002 225.616 38.501 226.047 37.9836 226.425C37.076 227.087 38.2094 228.567 39.1375 227.889C39.7001 227.473 40.2422 227.025 40.772 226.561C41.3018 226.084 41.8233 225.591 42.3202 225.077C42.8171 224.564 43.3099 224.042 43.7822 223.507C44.0245 223.244 44.2626 222.977 44.4967 222.71L45.2113 221.917C45.6014 221.489 45.4413 220.963 45.0881 220.659C44.739 220.355 44.2093 220.256 43.8356 220.663Z" fill="#CACEDB"/>
<path d="M32.4231 230.1C31.2117 230.905 29.9427 231.625 28.7764 232.492C28.2631 232.874 27.7251 233.252 27.1707 233.606L26.7477 233.873C26.5958 233.967 26.4397 234.062 26.2919 234.16C25.9921 234.354 25.7129 234.555 25.4295 234.744C24.9408 235.085 25.0106 235.624 25.2981 235.985C25.5897 236.351 26.103 236.54 26.5383 236.236C26.8052 236.055 27.0681 235.874 27.3268 235.714C27.4582 235.628 27.5896 235.558 27.721 235.476L28.1769 235.208C28.7846 234.847 29.376 234.46 29.9632 234.062C31.1378 233.269 32.2835 232.43 33.458 231.645C34.4108 231.004 33.3471 229.475 32.4231 230.1Z" fill="#CACEDB"/>
<path d="M19.8075 237.687C18.4523 238.098 16.9862 238.353 15.5735 238.928C15.2655 239.06 14.9493 239.191 14.6331 239.323C14.3251 239.454 14.0171 239.59 13.7091 239.721C13.1095 239.976 12.4935 240.186 11.8775 240.342C11.3395 240.478 11.1876 240.983 11.3067 241.435C11.4216 241.883 11.8282 242.274 12.3949 242.13C13.0848 241.953 13.7666 241.731 14.4318 241.472L15.3846 241.094C15.6967 240.975 16.0129 240.856 16.3332 240.741C17.6186 240.284 18.9697 239.882 20.3454 239.466C20.908 239.294 21.0354 238.751 20.8793 238.316C20.7274 237.88 20.3249 237.531 19.8075 237.687Z" fill="#CACEDB"/>
<path d="M5.38894 241.238C3.95982 241.369 2.51017 241.345 1.06873 241.505C0.42809 241.575 -0.241292 241.637 -0.902465 241.678C-1.56364 241.719 -2.22481 241.735 -2.86545 241.698C-3.97836 241.632 -4.05639 243.494 -2.89831 243.56C-2.19607 243.597 -1.49793 243.589 -0.799798 243.568C-0.0975583 243.544 0.584138 243.507 1.29459 243.461C2.00504 243.42 2.7114 243.355 3.42185 243.293L5.5491 243.096C6.12815 243.042 6.36223 242.545 6.30884 242.085C6.25956 241.62 5.93513 241.193 5.38894 241.238Z" fill="#CACEDB"/>
<path d="M-5.81815 110.376C-5.24322 109.923 -4.66418 109.471 -4.08925 109.015C-3.51021 108.567 -2.9476 108.094 -2.41373 107.593C-1.47742 106.709 -0.450746 105.809 0.616988 105.094C1.55741 104.474 0.489687 102.949 -0.467166 103.578C-1.04621 103.968 -1.60883 104.387 -2.15912 104.819C-2.70531 105.259 -3.24328 105.715 -3.78125 106.171L-5.37464 107.56C-5.9044 108.029 -6.43826 108.481 -6.98856 108.921C-7.87149 109.648 -6.68877 111.087 -5.81815 110.376Z" fill="#CACEDB"/>
<path d="M6.32115 101.58C7.54905 100.779 8.83032 100.055 9.9884 99.1511C11.0069 98.3578 12.1115 97.5523 13.2409 96.9358C14.2306 96.4015 13.3066 94.7862 12.2963 95.3287C11.0726 95.9987 9.91038 96.7919 8.76872 97.6057C7.62296 98.4154 6.48542 99.2497 5.30681 100.018C4.34995 100.639 5.37662 102.192 6.32115 101.58Z" fill="#CACEDB"/>
<path d="M19.2367 93.9724C19.8896 93.6519 20.5426 93.3272 21.2038 93.0189C21.5323 92.8627 21.8567 92.6983 22.1811 92.5298C22.5056 92.3654 22.8259 92.1969 23.138 92.012C23.6883 91.6791 24.2714 91.3872 24.8587 91.0913C25.45 90.8077 26.0578 90.5611 26.6615 90.3515C27.721 90.0186 27.1297 88.2513 26.0209 88.6007C25.3556 88.8308 24.6903 89.0856 24.0456 89.3775C23.4008 89.6734 22.7602 89.9775 22.136 90.3145C21.5035 90.6392 20.8834 90.9803 20.2633 91.3215C19.635 91.6503 19.0231 92.0037 18.3907 92.3161C17.3722 92.8422 18.247 94.4903 19.2367 93.9724Z" fill="#CACEDB"/>
<path d="M33.0884 88.7733C34.571 88.4404 36.0411 88.0787 37.4046 87.5033C38.6037 86.9978 39.8645 86.484 41.1047 86.1922C42.1847 85.9497 41.7576 84.1372 40.6201 84.392C37.8645 85.0455 35.3594 86.3566 32.6819 86.9567C32.1234 87.0923 31.9509 87.6143 32.0618 88.0664C32.1686 88.5144 32.5464 88.9048 33.0884 88.7733Z" fill="#CACEDB"/>
<path d="M47.6794 85.2757C49.1372 85.0537 50.6197 84.8934 52.0448 84.5071C53.2973 84.166 54.6279 83.829 55.9132 83.6481C57.0426 83.4878 56.7099 81.6548 55.597 81.8109C52.8661 82.1891 50.168 83.0152 47.4042 83.4344C46.2831 83.6029 46.5582 85.4442 47.6794 85.2757Z" fill="#CACEDB"/>
<path d="M62.5373 82.97C63.256 82.896 63.9829 82.8796 64.7056 82.8344C65.4284 82.7892 66.1553 82.7563 66.8781 82.6535C67.5146 82.5796 68.1675 82.5015 68.8287 82.4645C69.4858 82.4316 70.147 82.4111 70.7876 82.4522C71.9128 82.5179 71.9703 80.652 70.8246 80.5903C70.1264 80.5451 69.4242 80.5574 68.722 80.5739C68.0197 80.5985 67.3134 80.6479 66.607 80.7013C65.9007 80.7712 65.1943 80.8246 64.4921 80.9068L62.373 81.1164C61.2191 81.215 61.4367 83.0645 62.5373 82.97Z" fill="#CACEDB"/>
<path d="M77.4856 83.0028C78.9599 83.0645 80.4424 83.2001 81.9249 83.085C82.5737 83.0398 83.2431 82.9864 83.9125 82.9576C84.5819 82.9329 85.2513 82.9083 85.9001 82.937C86.4545 82.9617 86.7379 82.5096 86.7502 82.0411C86.7625 81.5766 86.4751 81.0958 85.8961 81.0711C85.2102 81.0382 84.5244 81.0547 83.8345 81.0588C83.1446 81.0711 82.4506 81.0958 81.7565 81.1163C80.3644 81.1615 78.964 81.1985 77.5677 81.1369C76.4384 81.0917 76.3521 82.9535 77.4856 83.0028Z" fill="#CACEDB"/>
<path d="M92.4708 83.7591C93.9205 83.9481 95.3948 84.2276 96.8896 84.2317C97.2181 84.2317 97.5508 84.2358 97.8875 84.2358L98.3926 84.2399C98.5446 84.244 98.7006 84.244 98.8526 84.2564C99.4686 84.2975 100.076 84.4167 100.66 84.6181C101.165 84.7948 101.579 84.4619 101.735 84.0221C101.887 83.5864 101.777 83.0316 101.202 82.8343C100.499 82.5959 99.7478 82.4315 98.984 82.3617C98.5857 82.3288 98.2571 82.3165 97.9121 82.3041L96.8814 82.2589C95.5016 82.189 94.1053 82.0945 92.7131 81.9096C91.5756 81.7657 91.3538 83.6193 92.4708 83.7591Z" fill="#CACEDB"/>
<path d="M107.193 86.7841C107.924 86.8868 108.622 87.0019 109.275 87.154C109.604 87.2279 109.916 87.3142 110.224 87.4088C110.38 87.4581 110.52 87.5033 110.688 87.5608C110.856 87.6225 111.029 87.68 111.197 87.7376C111.805 87.9266 112.417 88.1527 113.021 88.4034C113.624 88.6541 114.211 88.95 114.762 89.2665C115.715 89.8419 116.647 88.2267 115.653 87.6307C115.041 87.2814 114.413 86.9484 113.76 86.6607L112.778 86.2374L111.776 85.8552C111.456 85.736 111.078 85.5922 110.704 85.4935C110.331 85.3867 109.961 85.3127 109.591 85.2469C108.856 85.1195 108.138 85.0414 107.448 84.9469C106.889 84.8688 106.548 85.2839 106.47 85.7442C106.405 86.1963 106.626 86.706 107.193 86.7841Z" fill="#CACEDB"/>
<path d="M120.261 93.0107C120.864 93.4135 121.447 93.8573 122.043 94.2766C122.63 94.7081 123.238 95.1109 123.858 95.4931C124.408 95.8219 124.967 96.1754 125.501 96.5576C126.043 96.9316 126.556 97.3426 127.037 97.766C127.866 98.5222 129.086 97.1166 128.232 96.3398C127.706 95.8754 127.16 95.4274 126.593 95.0123C126.031 94.5889 125.443 94.1903 124.856 93.7957C124.269 93.4052 123.669 93.023 123.078 92.6367C122.482 92.2544 121.895 91.864 121.308 91.4694C120.359 90.8201 119.341 92.3819 120.261 93.0107Z" fill="#CACEDB"/>
<path d="M131.636 102.48C132.1 103.006 132.523 103.578 132.946 104.153C133.373 104.724 133.788 105.312 134.252 105.871C135.061 106.861 135.878 107.963 136.556 109.081C137.164 110.067 138.691 109.003 138.116 108.062C137.41 106.894 136.622 105.743 135.767 104.605C135.34 104.034 134.897 103.471 134.445 102.916C133.989 102.361 133.525 101.806 133.049 101.264C132.667 100.816 132.117 100.927 131.78 101.247C131.435 101.564 131.287 102.073 131.636 102.48Z" fill="#CACEDB"/>
<path d="M140.063 114.786C140.433 115.398 140.765 116.031 141.09 116.66L141.578 117.605L141.829 118.082C141.923 118.25 142.014 118.423 142.116 118.587C142.823 119.742 143.611 120.868 144.182 122.015C144.432 122.516 144.962 122.549 145.377 122.336C145.792 122.122 146.079 121.641 145.821 121.123C145.192 119.861 144.428 118.715 143.788 117.543L143.291 116.614C143.118 116.298 142.942 115.982 142.761 115.669C142.4 115.044 142.026 114.432 141.66 113.82C141.361 113.322 140.81 113.326 140.416 113.577C140.022 113.836 139.78 114.317 140.063 114.786Z" fill="#CACEDB"/>
<path d="M145.894 128.299C146.014 128.718 146.174 129.15 146.391 129.544C146.494 129.742 146.621 129.943 146.732 130.112C146.843 130.276 146.954 130.436 147.073 130.597C147.537 131.234 148.042 131.789 148.486 132.282C148.876 132.713 149.2 133.186 149.451 133.737C149.574 134.016 149.677 134.296 149.771 134.604C149.87 134.924 149.96 135.245 150.046 135.566C150.354 136.688 152.116 136.084 151.829 135.027C151.742 134.698 151.656 134.374 151.558 134.049C151.455 133.691 151.332 133.322 151.176 132.96C150.876 132.237 150.424 131.53 149.939 130.958C149.455 130.379 148.987 129.894 148.572 129.372C148.465 129.244 148.367 129.109 148.268 128.977C148.186 128.854 148.096 128.735 148.026 128.607C147.874 128.353 147.763 128.081 147.681 127.79C147.554 127.325 147.061 127.124 146.597 127.198C146.149 127.268 145.714 127.642 145.894 128.299Z" fill="#CACEDB"/>
<path d="M152.223 142.084C152.859 143.444 153.496 144.821 154.35 146.046C154.728 146.585 155.11 147.135 155.479 147.694C155.857 148.253 156.198 148.816 156.494 149.379C156.757 149.873 157.286 149.905 157.693 149.679C158.104 149.457 158.387 148.977 158.116 148.463C157.952 148.15 157.779 147.842 157.603 147.534C157.426 147.238 157.245 146.942 157.065 146.65C156.695 146.067 156.325 145.483 155.956 144.899C155.217 143.732 154.494 142.544 153.911 141.295C153.672 140.789 153.139 140.724 152.711 140.913C152.289 141.102 151.976 141.562 152.223 142.084Z" fill="#CACEDB"/>
<path d="M159.262 155.47C159.898 156.794 160.477 158.167 161.266 159.424C161.611 159.975 161.964 160.546 162.301 161.126C162.633 161.705 162.966 162.289 163.245 162.877C163.496 163.395 164.038 163.423 164.444 163.201C164.855 162.975 165.134 162.507 164.892 162.005C164.6 161.385 164.268 160.785 163.943 160.172C163.606 159.568 163.266 158.964 162.925 158.356C162.235 157.143 161.545 155.923 160.937 154.657C160.444 153.637 158.773 154.455 159.262 155.47Z" fill="#CACEDB"/>
<path d="M166.502 168.918L167.167 169.843L167.5 170.307L167.857 170.755C168.095 171.051 168.341 171.347 168.592 171.631C168.834 171.902 169.085 172.165 169.343 172.42C169.803 172.864 170.255 173.349 170.699 173.838C171.138 174.331 171.553 174.849 171.927 175.371C172.58 176.296 174.066 175.174 173.409 174.241C172.998 173.674 172.575 173.119 172.12 172.584C171.664 172.046 171.2 171.52 170.711 171.002L169.992 170.229L169.307 169.469C169.072 169.218 168.863 168.951 168.654 168.68C168.444 168.409 168.235 168.137 168.033 167.858C167.413 166.933 165.849 167.94 166.502 168.918Z" fill="#CACEDB"/>
<path d="M175.775 180.928C176.234 181.511 176.69 182.107 177.167 182.683C177.655 183.254 178.144 183.821 178.707 184.323C179.191 184.767 179.692 185.227 180.193 185.683C180.44 185.917 180.682 186.152 180.924 186.382C181.171 186.612 181.409 186.842 181.639 187.08C182.037 187.504 182.567 187.356 182.879 187.006C183.191 186.661 183.302 186.131 182.924 185.732C182.69 185.49 182.452 185.251 182.206 185.017L181.487 184.298C180.994 183.829 180.514 183.34 180.025 182.855C179.532 182.374 179.064 181.865 178.588 181.359C178.124 180.841 177.668 180.319 177.241 179.773C176.547 178.889 175.068 180.024 175.775 180.928Z" fill="#CACEDB"/>
<path d="M186.961 191.548L187.458 191.844L187.926 192.115C188.238 192.292 188.542 192.481 188.846 192.662C189.458 193.032 190.07 193.406 190.702 193.747C191.815 194.347 192.957 195.074 193.914 195.917C194.333 196.283 194.838 196.122 195.142 195.765C195.441 195.411 195.532 194.857 195.096 194.478C194.567 194.01 194.004 193.578 193.421 193.167C192.838 192.756 192.234 192.374 191.622 192.004C191.006 191.638 190.382 191.285 189.75 190.948C189.134 190.603 188.452 190.282 187.893 189.933C187.425 189.653 186.941 189.908 186.69 190.299C186.444 190.697 186.448 191.24 186.961 191.548Z" fill="#CACEDB"/>
<path d="M198.64 200.623C198.764 200.746 198.916 200.886 199.063 201.022L199.503 201.433C199.815 201.679 200.115 201.95 200.443 202.172C200.768 202.402 201.096 202.624 201.445 202.809C201.786 203.011 202.143 203.171 202.501 203.323C202.817 203.455 203.137 203.566 203.458 203.697C203.778 203.812 204.102 203.931 204.423 204.046C205.067 204.273 205.7 204.503 206.308 204.749C207.371 205.185 207.991 203.426 206.961 203.003C206.328 202.744 205.7 202.501 205.072 202.263C204.451 202.012 203.827 201.774 203.232 201.49C202.624 201.219 202.049 200.894 201.495 200.541C201.219 200.36 200.957 200.163 200.694 199.961C200.443 199.739 200.205 199.542 199.951 199.291C199.121 198.494 197.836 199.842 198.64 200.623Z" fill="#CACEDB"/>
<path d="M212.377 207.482C213.704 208.099 215.014 208.81 216.439 209.274C217.691 209.685 219.022 210.1 220.258 210.565C220.804 210.766 221.219 210.417 221.354 209.973C221.49 209.525 221.367 208.991 220.858 208.802C219.589 208.337 218.311 207.869 217.034 207.396C215.741 206.907 214.439 206.389 213.166 205.793C212.123 205.312 211.359 207.01 212.377 207.482Z" fill="#CACEDB"/>
<path d="M226.837 212.521C228.303 212.801 229.785 213.109 231.28 213.146C232.594 213.179 233.974 213.204 235.276 213.343C236.426 213.458 236.512 211.596 235.412 211.486C232.709 211.194 229.913 211.214 227.19 210.696C226.094 210.479 225.703 212.299 226.837 212.521Z" fill="#CACEDB"/>
<path d="M242.068 213.828C242.812 213.82 243.555 213.828 244.303 213.812C245.046 213.787 245.789 213.75 246.524 213.643C247.169 213.545 247.834 213.458 248.5 213.384C249.165 213.306 249.83 213.249 250.479 213.236C251.621 213.195 251.485 211.338 250.364 211.379C249.674 211.395 248.988 211.44 248.298 211.502C247.608 211.555 246.918 211.625 246.229 211.699L244.151 211.884C243.457 211.929 242.762 211.962 242.064 211.971C240.935 211.962 240.923 213.828 242.068 213.828Z" fill="#CACEDB"/>
<path d="M257.255 212.965C257.994 212.879 258.737 212.821 259.472 212.719C260.212 212.616 260.947 212.509 261.665 212.32C262.298 212.155 262.951 212.008 263.604 211.855C264.257 211.708 264.914 211.592 265.559 211.502C266.692 211.342 266.359 209.509 265.246 209.665C264.565 209.759 263.883 209.87 263.205 210.002C262.528 210.133 261.846 210.265 261.169 210.413C260.487 210.557 259.805 210.684 259.119 210.812C258.434 210.935 257.744 211.033 257.054 211.112C256.495 211.177 256.261 211.662 256.306 212.127C256.356 212.587 256.688 213.031 257.255 212.965Z" fill="#CACEDB"/>
<path d="M272.273 210.495C272.638 210.417 273 210.335 273.365 210.257L274.454 209.994C275.181 209.817 275.891 209.599 276.585 209.332C277.197 209.102 277.821 208.851 278.449 208.629C279.082 208.411 279.714 208.194 280.343 208.025C281.447 207.729 280.881 205.954 279.796 206.241C279.131 206.418 278.478 206.628 277.821 206.837C277.168 207.055 276.511 207.277 275.854 207.499C275.197 207.725 274.54 207.943 273.875 208.14C273.209 208.346 272.54 208.526 271.862 208.679C270.77 208.925 271.152 210.75 272.273 210.495Z" fill="#CACEDB"/>
<path d="M286.88 206.155C287.579 205.9 288.281 205.645 288.975 205.378C289.669 205.103 290.351 204.803 291.008 204.453C291.583 204.137 292.174 203.82 292.774 203.524C293.369 203.22 293.973 202.933 294.576 202.69C295.632 202.25 294.847 200.557 293.817 200.989C293.176 201.243 292.552 201.527 291.928 201.823C291.299 202.111 290.679 202.419 290.055 202.723C289.427 203.019 288.802 203.323 288.17 203.611C287.533 203.89 286.893 204.166 286.24 204.404C285.18 204.786 285.8 206.545 286.88 206.155Z" fill="#CACEDB"/>
<path d="M300.823 200.002C301.476 199.661 302.133 199.32 302.786 198.975C303.426 198.634 304.071 198.284 304.687 197.886C305.775 197.187 306.95 196.484 308.128 195.929C309.167 195.436 308.288 193.792 307.282 194.269C306.042 194.852 304.827 195.526 303.607 196.233L301.779 197.31C301.167 197.676 300.568 198.021 299.956 198.346C299.459 198.609 299.422 199.151 299.632 199.567C299.845 199.986 300.313 200.273 300.823 200.002Z" fill="#CACEDB"/>
<path d="M314.194 192.645C314.81 192.189 315.422 191.708 315.993 191.178C316.288 190.923 316.547 190.631 316.814 190.348L317.011 190.13L317.188 189.92L317.528 189.497C318.309 188.498 319.208 187.491 320.21 186.715C320.645 186.373 320.584 185.847 320.292 185.482C320.005 185.116 319.479 184.923 319.015 185.284C317.886 186.168 316.896 187.212 315.968 188.293L315.623 188.7L315.29 189.078C315.073 189.329 314.851 189.583 314.604 189.814C314.366 190.052 314.128 190.29 313.869 190.504C313.615 190.722 313.36 190.948 313.081 191.141C312.642 191.466 312.683 192.008 312.945 192.39C313.208 192.789 313.713 193.003 314.194 192.645Z" fill="#CACEDB"/>
<path d="M325.779 182.884C326.937 181.902 328.066 180.895 329.011 179.765C329.836 178.77 330.752 177.759 331.717 176.888C332.567 176.119 331.257 174.791 330.428 175.544C329.914 176.004 329.421 176.485 328.933 176.978C328.44 177.475 327.959 177.993 327.487 178.511C326.543 179.543 325.614 180.574 324.571 181.462C324.153 181.82 324.226 182.354 324.518 182.72C324.805 183.081 325.331 183.266 325.779 182.884Z" fill="#CACEDB"/>
<path d="M336.678 172.202C337.171 171.635 337.676 171.072 338.144 170.48C338.616 169.892 339.056 169.28 339.442 168.639C339.61 168.355 339.778 168.068 339.951 167.78C340.119 167.504 340.288 167.225 340.468 166.954C340.834 166.411 341.228 165.885 341.651 165.404C342.394 164.558 340.965 163.366 340.21 164.225C339.75 164.751 339.314 165.314 338.9 165.893C338.698 166.185 338.493 166.489 338.3 166.781L337.737 167.644C336.982 168.795 336.189 169.929 335.282 170.969C334.542 171.804 335.906 173.069 336.678 172.202Z" fill="#CACEDB"/>
<path d="M346.107 160.217C346.53 159.576 346.961 158.927 347.318 158.228C347.409 158.055 347.499 157.879 347.585 157.702L347.815 157.155C347.971 156.798 348.082 156.411 348.185 156.033C348.283 155.7 348.333 155.351 348.415 155.01C348.485 154.689 348.554 154.365 348.624 154.04C348.698 153.724 348.776 153.403 348.858 153.091C348.953 152.778 349.059 152.474 349.17 152.178C349.56 151.138 347.815 150.489 347.409 151.582C347.285 151.915 347.162 152.248 347.059 152.585C346.961 152.926 346.866 153.271 346.776 153.617L346.526 154.624C346.452 154.936 346.378 155.252 346.271 155.565L346.127 156.033L345.951 156.498C345.84 156.81 345.7 157.11 345.561 157.414C345.277 158.019 344.94 158.606 344.567 159.173C344.255 159.626 344.472 160.123 344.85 160.394C345.22 160.674 345.77 160.706 346.107 160.217Z" fill="#CACEDB"/>
<path d="M351.873 146.071C352.439 144.714 353.084 143.366 353.491 141.936C353.671 141.311 353.86 140.666 354.061 140.025C354.164 139.704 354.271 139.388 354.382 139.076C354.488 138.759 354.599 138.447 354.723 138.143C355.15 137.07 353.38 136.482 352.969 137.514C352.842 137.83 352.727 138.151 352.608 138.471C352.484 138.792 352.369 139.117 352.254 139.441C352.033 140.095 351.811 140.752 351.589 141.41C351.146 142.729 350.694 144.057 350.152 145.352C349.721 146.404 351.441 147.115 351.873 146.071Z" fill="#CACEDB"/>
<path d="M356.891 131.604C356.957 131.225 357.022 130.851 357.084 130.473L357.178 129.906L357.236 129.331C357.273 128.949 357.302 128.562 357.322 128.18C357.343 127.798 357.306 127.407 357.281 127.025C357.256 126.692 357.232 126.351 357.203 126.01C357.17 125.685 357.141 125.356 357.121 125.028C357.072 124.37 357.063 123.708 357.088 123.067C357.141 121.941 355.277 121.9 355.228 123.042C355.195 123.741 355.195 124.444 355.232 125.147L355.281 126.195L355.318 127.198C355.371 127.872 355.322 128.546 355.298 129.224C355.289 129.392 355.285 129.565 355.269 129.734L355.203 130.239C355.158 130.576 355.109 130.913 355.055 131.25C354.957 131.793 355.334 132.158 355.794 132.261C356.25 132.364 356.784 132.183 356.891 131.604Z" fill="#CACEDB"/>
<path d="M357.601 116.36C357.659 114.888 357.786 113.4 357.675 111.925C357.577 110.626 357.495 109.253 357.552 107.955C357.597 106.808 355.733 106.812 355.692 107.934C355.655 108.625 355.659 109.311 355.663 110.006C355.667 110.7 355.696 111.395 355.712 112.093C355.757 113.487 355.799 114.888 355.745 116.29C355.696 117.42 357.556 117.494 357.601 116.36Z" fill="#CACEDB"/>
<path d="M357.708 101.136C357.671 100.388 357.605 99.6361 357.536 98.8839C357.458 98.1359 357.33 97.3879 357.158 96.6604C356.833 95.3987 356.513 94.0588 356.341 92.7724C356.189 91.638 354.357 91.9668 354.505 93.0765C354.686 94.441 354.969 95.8014 355.252 97.1618C355.376 97.8359 355.523 98.5099 355.618 99.1922C355.712 99.8745 355.811 100.561 355.844 101.251C355.918 102.369 357.778 102.295 357.708 101.136Z" fill="#CACEDB"/>
<path d="M355.355 86.0443C355.191 85.3168 355.039 84.5852 354.85 83.8578C354.673 83.1303 354.447 82.4152 354.18 81.7206C353.942 81.1082 353.684 80.4876 353.458 79.8546C353.211 79.2258 353.002 78.5928 352.813 77.964C352.476 76.8625 350.723 77.4914 351.047 78.5518C351.24 79.2052 351.45 79.8587 351.68 80.5081C351.893 81.1616 352.139 81.8069 352.357 82.4645C352.809 83.7715 353.24 85.0949 353.544 86.4512C353.671 86.9978 354.181 87.1786 354.636 87.08C355.084 86.9855 355.486 86.6032 355.355 86.0443Z" fill="#CACEDB"/>
<path d="M350.62 71.4866C350.304 70.8167 349.992 70.0975 349.675 69.4563C349.355 68.8028 349.031 68.1452 348.649 67.5123C347.984 66.3984 347.31 65.2024 346.78 64.0105C346.308 62.9584 344.649 63.805 345.105 64.8202C345.659 66.0738 346.3 67.3026 346.965 68.5398L347.975 70.3975C348.316 71.0222 348.62 71.6264 348.916 72.2552C349.367 73.2745 351.084 72.5511 350.62 71.4866Z" fill="#CACEDB"/>
<path d="M343.622 57.8661C343.158 57.2414 342.698 56.6208 342.148 56.0331C341.602 55.4536 341.031 54.9727 340.509 54.5329C340.275 54.3398 340.054 54.1384 339.844 53.9247C339.741 53.8178 339.639 53.7068 339.544 53.5918C339.446 53.4726 339.347 53.3451 339.249 53.2177C338.858 52.7081 338.509 52.1574 338.197 51.5943C337.643 50.5997 336.095 51.5326 336.633 52.5231C336.965 53.1355 337.339 53.7479 337.762 54.3439C337.967 54.6357 338.214 54.9563 338.472 55.2399C338.731 55.5276 339.002 55.7947 339.273 56.0413C339.815 56.5386 340.349 56.9702 340.817 57.4305C341.281 57.8908 341.721 58.4087 342.119 58.9512C342.431 59.3992 342.973 59.3704 343.359 59.1115C343.741 58.8608 343.963 58.3552 343.622 57.8661Z" fill="#CACEDB"/>
<path d="M366.521 62.0254L348.353 62.2268C347.363 59.4895 346.062 56.8303 344.776 54.9398C344.649 54.7507 339.052 46.5225 332.699 37.1763L340.222 35.0884C341.663 36.3543 342.986 37.0243 343.86 36.4201C344.481 35.9926 344.591 35.0926 344.386 33.9376L353.256 31.4758C355.117 33.4033 356.965 34.7021 358.119 33.9007C358.989 33.2965 358.911 31.8333 358.357 30.0578L375.153 25.4012L370.525 17.3579L351.807 18.0073L349.458 14.5508C349.002 13.8767 348.037 13.7288 347.314 14.2179L344.218 16.3263C343.548 16.7825 343.322 17.6292 343.659 18.2868L336.21 18.5457L334.37 15.8413C333.881 15.1221 332.887 14.933 332.169 15.4221L329.072 17.5305C328.633 17.8306 328.395 18.3155 328.382 18.8128L320.403 19.0882C316.933 13.9836 314.485 10.3832 314.399 10.2599C310.83 5.01147 302.305 -1.7988 299.02 0.437036C295.734 2.67288 298.933 13.1123 302.502 18.3607C302.584 18.484 305.032 22.0844 308.506 27.189L305.323 34.5131C304.859 34.3404 304.317 34.3815 303.878 34.6816L300.782 36.79C300.063 37.2791 299.874 38.2737 300.363 38.9929L302.202 41.6973L299.229 48.5405C298.74 47.9856 297.87 47.887 297.2 48.3391L294.104 50.4475C293.385 50.9366 293.168 51.8901 293.628 52.5642L295.977 56.0207L288.503 73.2087L294.281 80.4711L304.773 66.5423C306.219 67.7095 307.553 68.3178 308.432 67.7301C309.599 66.9492 309.073 64.7503 307.96 62.3131L313.5 54.9603C314.498 55.5768 315.377 55.8029 316.001 55.3836C316.884 54.7918 316.748 53.3163 316.099 51.5079L320.802 45.2689C327.155 54.6151 332.752 62.8433 332.879 63.0323C334.165 64.9229 336.16 67.1095 338.341 69.037L331.487 85.8757L333.709 89.957L345.52 74.0184C348.862 77.9804 352.985 82.3617 354.107 81.3301C355.207 80.319 352.751 75.1075 350.378 70.7221L369.498 65.5805L366.521 62.0254Z" fill="#CACEDB"/>
</svg>
