<svg width="189" height="54" viewBox="0 0 189 54" fill="none" xmlns="http://www.w3.org/2000/svg">
<path d="M25.944 33.1752L19.3339 28.4774L22.1797 27.3869C23.4495 26.9424 24.8385 26.9936 26.0729 27.5277L29.3538 28.9571C30.0242 29.2481 30.7816 29.2833 31.4777 29.0499L46.8155 23.9172L46.838 23.9044C36.6795 25.9063 24.7805 23.284 22.2763 16.6547C19.524 9.37629 35.4773 -7.74535 55.0693 6.98105C50.1383 2.52316 43.6893 0 36.7826 0C26.3372 0 17.2519 5.86818 12.6915 14.4578C5.98785 34.7613 25.944 33.1752 25.944 33.1752ZM34.3622 48.9153C33.1439 44.5661 38.4682 39.6989 41.0433 36.9711C42.2776 35.6632 43.3057 34.6526 44.047 33.7732C44.408 33.3447 44.7399 32.9673 45.0558 32.6283C44.885 32.801 44.7109 32.9833 44.5272 33.1816L41.4365 36.5394C40.3213 37.7514 38.8678 38.6116 37.2628 39.0114L30.9395 40.5847L36.5248 33.3958C35.2485 33.7604 33.9078 34.1473 32.5348 34.5439C25.1254 37.6874 20.507 48.6275 25.6507 51.6271C29.1218 53.1717 32.9151 54 36.7826 54C39.377 54 41.8941 53.629 44.2855 52.9383C46.548 52.2859 48.6976 51.3425 50.6894 50.1561C39.5511 53.8625 35.0358 51.3233 34.3622 48.9153Z" fill="white"/>
<path d="M63.5295 22.0368C63.4006 21.3429 63.2652 20.7417 63.1234 20.2012C62.872 19.2387 62.5594 18.2761 62.1598 17.2592C61.8697 16.514 61.5893 15.8681 61.3025 15.2764C61.2541 15.1741 61.2026 15.075 61.151 14.979L61.0801 14.8447C60.7191 14.1348 60.3775 13.5208 60.0327 12.9644C58.6436 10.7066 56.9677 8.69833 55.0694 6.98105C35.4774 -7.74215 19.5241 9.37629 22.2764 16.6547C24.7806 23.284 36.6796 25.9063 46.8381 23.9044L46.8156 23.9172C53.545 21.442 56.6808 22.3119 57.8185 23.9556L57.8217 23.9588C57.999 24.2146 58.0506 24.5376 57.9668 24.8382C57.7476 25.6089 57.6799 26.6099 55.2305 27.5884L51.5532 28.8804C48.6881 29.8845 47.444 29.7406 44.0503 33.7764C43.3091 34.6558 42.281 35.6664 41.0466 36.9743C38.4715 39.7021 33.1505 44.5693 34.3655 48.9185C35.0391 51.3265 39.5544 53.8657 50.6959 50.1657C55.0694 47.4986 58.8337 43.8178 61.5539 38.1415C62.8237 35.3849 63.6391 32.3821 63.9001 29.2226C63.9678 28.4071 64 27.6844 64 27.0128C63.9968 25.3659 63.8389 23.6934 63.5295 22.0368Z" fill="#3CB371"/>
<path d="M32.5929 34.5245C25.1577 36.4817 16.7137 39.1359 12.3821 39.5709C6.3102 40.1817 5.22086 39.0912 4.93403 38.2181C4.67297 37.4314 5.09517 36.5392 6.22318 35.4935C7.05469 34.7164 7.89587 34.2431 9.51376 33.2838L10.2067 32.8744L10.3485 33.4245C8.18271 35.0106 3.42894 38.797 9.72325 38.6211C17.0811 38.4164 26.6241 34.5086 26.6241 34.5086C26.6241 34.5086 15.9595 37.4698 10.0294 37.6777C7.14493 37.7768 7.74762 36.2066 10.5064 34.0193C10.5322 34.1184 10.558 34.2143 10.587 34.3135C9.9972 35.1098 9.18502 36.6032 11.7408 36.261C11.744 36.261 11.744 36.261 11.7472 36.261C15.041 35.9316 21.0034 34.2975 25.9537 33.1814C25.9537 33.1814 5.99758 34.7708 12.7012 14.464C10.7095 18.2152 9.57822 22.4844 9.57822 27.0126C9.57822 27.6778 9.61045 28.4005 9.67491 29.2224C9.73292 29.9323 9.81349 30.6167 9.9134 31.2563L10.0681 32.2956C10.0681 32.2956 5.31755 33.9841 1.0311 38.9888C-5.57583 47.1563 21.6286 42.3562 24.2359 41.0835C24.2359 41.0835 21.432 42.9063 15.8339 44.1087C16.0595 44.3741 16.501 45.0137 16.7395 45.2727C19.263 48.0006 22.3119 50.1559 25.6572 51.643C20.4909 48.6273 25.148 37.6329 32.5929 34.5245Z" fill="#3CB371"/>
<path d="M92.112 16.512C92.016 17.736 91.944 18.912 91.896 20.04C91.872 21.168 91.86 22.032 91.86 22.632C91.86 23.16 91.872 23.664 91.896 24.144C91.92 24.624 91.944 25.032 91.968 25.368H91.14C90.756 23.352 90.264 21.756 89.664 20.58C89.088 19.404 88.392 18.576 87.576 18.096C86.76 17.592 85.8 17.34 84.696 17.34H83.868V37.896C83.868 38.856 83.964 39.576 84.156 40.056C84.372 40.536 84.756 40.86 85.308 41.028C85.86 41.172 86.664 41.256 87.72 41.28V42C86.976 41.976 85.98 41.952 84.732 41.928C83.508 41.904 82.224 41.892 80.88 41.892C79.56 41.892 78.312 41.904 77.136 41.928C75.96 41.952 75.012 41.976 74.292 42V41.28C75.372 41.256 76.188 41.172 76.74 41.028C77.292 40.86 77.664 40.536 77.856 40.056C78.048 39.576 78.144 38.856 78.144 37.896V17.34H77.352C76.248 17.34 75.288 17.592 74.472 18.096C73.656 18.576 72.96 19.404 72.384 20.58C71.808 21.732 71.304 23.328 70.872 25.368H70.044C70.092 25.032 70.116 24.624 70.116 24.144C70.14 23.664 70.152 23.16 70.152 22.632C70.152 22.032 70.128 21.168 70.08 20.04C70.056 18.912 69.996 17.736 69.9 16.512C71.004 16.536 72.204 16.56 73.5 16.584C74.82 16.608 76.14 16.62 77.46 16.62C78.78 16.62 79.968 16.62 81.024 16.62C82.104 16.62 83.292 16.62 84.588 16.62C85.908 16.62 87.228 16.608 88.548 16.584C89.868 16.56 91.056 16.536 92.112 16.512ZM106.295 22.884C107.063 22.884 107.687 23.052 108.167 23.388C108.647 23.7 108.995 24.108 109.211 24.612C109.451 25.116 109.571 25.644 109.571 26.196C109.571 27.084 109.307 27.816 108.779 28.392C108.275 28.944 107.603 29.22 106.763 29.22C105.923 29.22 105.263 29.016 104.783 28.608C104.327 28.176 104.099 27.612 104.099 26.916C104.099 26.244 104.243 25.692 104.531 25.26C104.843 24.804 105.227 24.42 105.683 24.108C105.347 24.012 105.011 24.024 104.675 24.144C104.219 24.216 103.787 24.408 103.379 24.72C102.971 25.008 102.623 25.38 102.335 25.836C102.047 26.268 101.819 26.748 101.651 27.276C101.483 27.78 101.399 28.272 101.399 28.752V38.292C101.399 39.444 101.675 40.224 102.227 40.632C102.803 41.04 103.655 41.244 104.783 41.244V42C104.231 41.976 103.427 41.952 102.371 41.928C101.315 41.88 100.211 41.856 99.0589 41.856C98.0989 41.856 97.1269 41.88 96.1429 41.928C95.1589 41.952 94.4149 41.976 93.9109 42V41.244C94.7509 41.244 95.3389 41.064 95.6749 40.704C96.0349 40.344 96.2149 39.66 96.2149 38.652V27.312C96.2149 26.232 96.0469 25.44 95.7109 24.936C95.3989 24.408 94.7989 24.144 93.9109 24.144V23.388C94.6789 23.46 95.4229 23.496 96.1429 23.496C97.1509 23.496 98.0869 23.46 98.9509 23.388C99.8389 23.292 100.655 23.16 101.399 22.992V26.34C101.687 25.692 102.071 25.104 102.551 24.576C103.031 24.048 103.583 23.64 104.207 23.352C104.831 23.04 105.527 22.884 106.295 22.884ZM115.684 42.252C114.604 42.252 113.704 42.048 112.984 41.64C112.264 41.232 111.736 40.692 111.4 40.02C111.064 39.324 110.896 38.568 110.896 37.752C110.896 36.72 111.124 35.88 111.58 35.232C112.06 34.584 112.672 34.056 113.416 33.648C114.16 33.24 114.94 32.904 115.756 32.64C116.596 32.376 117.388 32.124 118.132 31.884C118.9 31.62 119.512 31.32 119.968 30.984C120.448 30.624 120.688 30.168 120.688 29.616V26.808C120.688 26.184 120.58 25.632 120.364 25.152C120.172 24.648 119.86 24.264 119.428 24C119.02 23.736 118.48 23.604 117.808 23.604C117.328 23.604 116.848 23.676 116.368 23.82C115.888 23.94 115.492 24.156 115.18 24.468C115.852 24.708 116.368 25.08 116.728 25.584C117.112 26.064 117.304 26.616 117.304 27.24C117.304 28.056 117.016 28.704 116.44 29.184C115.888 29.664 115.228 29.904 114.46 29.904C113.596 29.904 112.936 29.64 112.48 29.112C112.048 28.56 111.832 27.9 111.832 27.132C111.832 26.436 112 25.86 112.336 25.404C112.696 24.948 113.188 24.516 113.812 24.108C114.484 23.724 115.288 23.424 116.224 23.208C117.184 22.992 118.216 22.884 119.32 22.884C120.424 22.884 121.42 23.004 122.308 23.244C123.196 23.46 123.94 23.868 124.54 24.468C125.092 25.02 125.452 25.704 125.62 26.52C125.788 27.312 125.872 28.32 125.872 29.544V39.336C125.872 39.936 125.932 40.356 126.052 40.596C126.172 40.812 126.376 40.92 126.664 40.92C126.88 40.92 127.084 40.86 127.276 40.74C127.492 40.62 127.72 40.476 127.96 40.308L128.32 40.92C127.816 41.352 127.228 41.688 126.556 41.928C125.908 42.144 125.176 42.252 124.36 42.252C123.472 42.252 122.764 42.132 122.236 41.892C121.708 41.628 121.324 41.28 121.084 40.848C120.868 40.416 120.76 39.912 120.76 39.336C120.184 40.248 119.488 40.968 118.672 41.496C117.856 42 116.86 42.252 115.684 42.252ZM118.24 39.948C118.72 39.948 119.152 39.84 119.536 39.624C119.944 39.384 120.328 39 120.688 38.472V31.092C120.472 31.452 120.172 31.776 119.788 32.064C119.404 32.352 118.996 32.652 118.564 32.964C118.132 33.252 117.712 33.576 117.304 33.936C116.92 34.296 116.608 34.74 116.368 35.268C116.128 35.796 116.008 36.432 116.008 37.176C116.008 38.112 116.212 38.808 116.62 39.264C117.028 39.72 117.568 39.948 118.24 39.948ZM146.385 23.388V24.108C145.929 24.228 145.497 24.516 145.089 24.972C144.681 25.404 144.285 26.148 143.901 27.204L138.645 42.072C138.261 42.048 137.865 42.036 137.457 42.036C137.073 42.036 136.689 42.048 136.305 42.072L129.897 26.16C129.513 25.224 129.129 24.66 128.745 24.468C128.385 24.252 128.073 24.144 127.809 24.144V23.388C128.577 23.436 129.369 23.484 130.185 23.532C131.025 23.556 131.937 23.568 132.921 23.568C133.665 23.568 134.445 23.556 135.261 23.532C136.101 23.484 136.881 23.436 137.601 23.388V24.144C137.097 24.144 136.641 24.168 136.233 24.216C135.849 24.264 135.585 24.42 135.441 24.684C135.297 24.948 135.321 25.416 135.513 26.088L139.725 37.248L139.365 37.752L142.209 29.868C142.665 28.572 142.857 27.516 142.785 26.7C142.713 25.86 142.449 25.236 141.993 24.828C141.537 24.396 140.925 24.156 140.157 24.108V23.388C140.517 23.412 140.901 23.436 141.309 23.46C141.741 23.46 142.149 23.472 142.533 23.496C142.941 23.496 143.301 23.496 143.613 23.496C144.093 23.496 144.597 23.484 145.125 23.46C145.653 23.436 146.073 23.412 146.385 23.388Z" fill="white"/>
<path d="M156.566 22.884C158.318 22.884 159.854 23.208 161.174 23.856C162.494 24.504 163.526 25.548 164.27 26.988C165.014 28.428 165.386 30.336 165.386 32.712C165.386 35.088 165.014 36.996 164.27 38.436C163.526 39.852 162.494 40.884 161.174 41.532C159.854 42.18 158.318 42.504 156.566 42.504C154.862 42.504 153.338 42.18 151.994 41.532C150.674 40.884 149.63 39.852 148.862 38.436C148.118 36.996 147.746 35.088 147.746 32.712C147.746 30.336 148.118 28.428 148.862 26.988C149.63 25.548 150.674 24.504 151.994 23.856C153.338 23.208 154.862 22.884 156.566 22.884ZM156.566 23.604C155.606 23.604 154.802 24.324 154.154 25.764C153.506 27.18 153.182 29.496 153.182 32.712C153.182 35.928 153.506 38.244 154.154 39.66C154.802 41.076 155.606 41.784 156.566 41.784C157.55 41.784 158.354 41.076 158.978 39.66C159.626 38.244 159.95 35.928 159.95 32.712C159.95 29.496 159.626 27.18 158.978 25.764C158.354 24.324 157.55 23.604 156.566 23.604ZM181.026 22.884C182.034 22.884 182.85 23.016 183.474 23.28C184.122 23.52 184.626 23.856 184.986 24.288C185.37 24.744 185.646 25.332 185.814 26.052C186.006 26.772 186.102 27.744 186.102 28.968V38.652C186.102 39.66 186.27 40.344 186.606 40.704C186.966 41.064 187.566 41.244 188.406 41.244V42C187.95 41.976 187.266 41.952 186.354 41.928C185.442 41.88 184.542 41.856 183.654 41.856C182.742 41.856 181.842 41.88 180.954 41.928C180.09 41.952 179.43 41.976 178.974 42V41.244C179.694 41.244 180.198 41.064 180.486 40.704C180.774 40.344 180.918 39.66 180.918 38.652V27.456C180.918 26.856 180.858 26.34 180.738 25.908C180.618 25.452 180.402 25.104 180.09 24.864C179.778 24.6 179.31 24.468 178.686 24.468C178.038 24.468 177.438 24.648 176.886 25.008C176.358 25.368 175.926 25.872 175.59 26.52C175.278 27.144 175.122 27.852 175.122 28.644V38.652C175.122 39.66 175.266 40.344 175.554 40.704C175.866 41.064 176.37 41.244 177.066 41.244V42C176.634 41.976 175.998 41.952 175.158 41.928C174.342 41.88 173.49 41.856 172.602 41.856C171.69 41.856 170.754 41.88 169.794 41.928C168.834 41.952 168.114 41.976 167.634 42V41.244C168.474 41.244 169.062 41.064 169.398 40.704C169.758 40.344 169.938 39.66 169.938 38.652V27.312C169.938 26.232 169.77 25.44 169.434 24.936C169.122 24.408 168.522 24.144 167.634 24.144V23.388C168.402 23.46 169.146 23.496 169.866 23.496C170.874 23.496 171.81 23.46 172.674 23.388C173.562 23.292 174.378 23.16 175.122 22.992V26.232C175.722 25.008 176.538 24.144 177.57 23.64C178.602 23.136 179.754 22.884 181.026 22.884Z" fill="#3CB371"/>
</svg>
