<svg width="234" height="210" viewBox="0 0 234 210" fill="none" xmlns="http://www.w3.org/2000/svg">
<path opacity="0.5" d="M137.912 132.382C153.624 112.698 170.825 95.5367 188.678 81.1421L188.041 91.9722L191.215 94.8223L187.798 96.0079L186.924 110.851L189.369 113.04L186.742 113.952L186.112 124.622C191.633 120.442 195.49 112.789 196.045 103.334C196.417 97.0947 195.278 90.9918 193.068 85.7022L198.68 94.1459L201.406 93.5835L199.963 96.6615L203.464 101.906L206.699 102.088L205.621 104.398L209.562 104.619L207.747 108.495L216.093 121.347C219.389 113.07 218.5 103.068 212.737 94.2067C209.532 89.2742 205.226 85.3146 200.343 82.4645L210.39 86.447L214.103 83.2093L214.248 87.9898L220.847 90.665L223.353 89.0234L223.49 91.6758L234 95.9167C231.577 87.5034 225.274 80.1769 216.26 76.5821C208.621 73.5344 200.48 73.7472 193.463 76.5289C197.321 70.1904 198.961 62.2711 197.48 54.1466C195.68 44.2741 189.681 36.3092 181.859 32L183.894 43.1417L187.501 44.0689L184.486 46.3793L186.377 56.5787L191.063 57.7871L187.144 60.7891L188.595 68.792C186.271 63.2667 182.428 58.0607 177.189 53.8882C168.6 47.0482 158.188 44.4717 149.037 46.045L161.492 55.963L165.813 54.975L165.532 58.6307L168.106 58.0455L167.878 61.0475L176.703 68.0776L180.127 67.2948L179.869 70.6008L185.572 75.1381C179.026 71.7104 170.992 70.122 162.547 71.1024C151.133 72.4324 141.519 78.1401 135.907 85.8998L148.794 84.4026L150.176 80.7697L152.546 83.9618L170.468 81.8793L172.26 77.1597L175.336 81.3093L186.324 80.0325C158.75 97.3379 131.768 121.286 108.12 150.903C94.7091 167.699 83.318 185.134 74 202.69C78.7919 208.041 83.4698 213.482 88.0567 219C98.9086 189.975 115.631 160.282 137.912 132.382Z" fill="#687179"/>
<path opacity="0.5" d="M84.396 164.628C80.0399 129.735 79.6375 95.8184 82.6519 63.9391L92.8574 75.1283L98.7999 74.7227L96.6585 79.2976L110.644 94.6292L115.22 94.318L113.569 97.8343L123.624 108.86C124.827 99.2697 120.933 87.9568 112.025 78.19C106.143 71.7398 98.9402 66.9316 91.4924 63.9957L105.405 66.6053L107.495 63.3333L109.164 67.7702L117.825 69.3742L121.157 66.3136L122.411 69.6446L126.47 65.913L128.579 71.5049L149.562 75.6721C144.499 64.3119 133.632 55.4699 119.159 52.5943C111.107 50.9973 102.939 51.4483 95.3462 53.5562L109.118 47.3892L109.487 40.5166L114.402 45.0326L123.515 41.0393L124.313 36.9355L127.089 39.3771L141.572 32.9938C130.821 27.211 117.361 26.3846 104.973 31.9007C94.4824 36.5747 86.7494 44.9243 82.6957 54.6575C80.1165 44.6234 73.8008 35.2728 64.2396 28.8402C52.613 21.0343 38.8053 19.2752 26.8628 22.9089L39.9832 31.7309L44.4263 29.0335L43.7978 34.3013L55.8401 42.3486L61.6186 38.8391L60.8016 45.6873L70.2127 52.034C62.4202 48.9744 53.479 47.7473 44.1848 48.9285C28.98 50.8592 16.2525 58.7731 8.9064 69.4565L30.9544 66.6544L34.1806 61.3736L37.5566 65.2176L39.4772 62.0662L42.2527 65.2242L57.8819 63.2373L60.4382 59.052L63.4966 62.5254L73.5873 61.2425C63.7841 64.4515 54.3612 70.9456 47.1096 80.3483C37.3148 93.054 33.6505 108.235 35.9422 121.411L47.0021 107.059L44.7207 102.141L50.2225 102.885L65.609 82.9247L62.6419 76.5284L69.793 77.4934L79.2256 65.2594C69.6713 109.696 67.3076 160.018 73.8635 212.521C77.5852 242.29 83.9103 270.674 92.378 297.099C102.397 297.512 112.397 298.132 122.384 298.918C103.951 259.744 90.5701 214.104 84.396 164.628Z" fill="#687179"/>
</svg>
