<svg width="244" height="257" viewBox="0 0 244 257" fill="none" xmlns="http://www.w3.org/2000/svg">
<path opacity="0.5" d="M100.978 160.748C90.3106 122.073 84.2832 83.8498 82.4524 47.3628L95.828 58.3172L102.482 56.8811L100.811 62.3918L119.135 77.404L124.251 76.3019L122.964 80.5434L136.139 91.3392C135.922 80.3179 129.66 68.1779 117.99 58.6262C110.282 52.314 101.346 48.0642 92.4424 45.9768L108.602 46.6364L110.433 42.5953L113.049 47.3294L123.106 47.7218L126.375 43.7141L128.339 47.271L132.318 42.3949L135.621 48.3647L160.023 49.6172C152.432 37.6191 138.697 29.4199 121.86 28.5599C112.497 28.0757 103.343 29.9292 95.1007 33.5612L109.655 24.3351L108.945 16.5201L115.248 20.8117L124.887 14.8001L125.112 10.0326L128.657 12.337L143.972 2.7519C130.839 -1.99891 115.49 -0.72145 102.399 7.54447C91.3054 14.5413 83.9489 25.2452 80.9645 36.8927C76.4 25.9883 67.7226 16.47 55.86 10.784C41.4394 3.87073 25.5475 4.15461 12.64 10.2163L28.9249 18.023L33.506 14.2407L33.6648 20.294L48.5953 27.3994L54.5475 22.4899L54.7481 30.3551L66.4268 35.9742C57.1224 33.795 46.8064 33.8869 36.4988 36.7424C19.6288 41.418 6.5457 52.4393 0 65.7148L24.4607 58.9351L27.2446 52.4393L31.6919 56.2215L33.3471 52.3474L37.0003 55.4534L54.3385 50.6441L56.5455 45.4925L60.575 48.9158L71.777 45.8098C61.2186 51.0366 51.6467 59.9203 44.9923 71.7264C36.0139 87.6821 34.3671 105.416 39.1238 119.919L49.2642 101.901L45.8701 96.7245L52.2152 96.6577L66.3181 71.6012L61.9125 64.8715L70.1552 64.788L78.8076 49.4251C75.2965 101.166 80.8976 158.368 96.9483 216.564C106.044 249.561 117.873 280.562 131.783 309C143.178 307.823 154.581 306.879 166 306.128C138.722 264.915 116.092 215.587 100.978 160.748Z" fill="#687179"/>
<path opacity="0.5" d="M161.332 227.742C174.535 200.402 184.567 172.728 191.513 145.737L180.854 151.965L176.631 149.925L176.879 154.292L162.268 162.831L159.02 161.257L159.213 164.615L148.709 170.758C150.581 162.552 156.676 154.4 165.981 148.963C172.122 145.372 178.766 143.503 185.047 143.24L174.141 141.37L173.553 138.082L171.062 141.238L164.279 140.06L162.724 136.593L160.853 138.966L158.958 134.739L155.81 138.718L139.296 136.096C146.257 128.239 156.722 124.121 168.116 125.936C174.45 126.944 180.282 129.666 185.225 133.575L176.941 124.555L178.642 118.816L173.754 121.104L168.247 115.209L168.843 111.61L166.112 112.812L157.372 103.412C166.893 101.783 176.956 104.979 184.412 113.068C190.732 119.917 193.972 128.984 194.135 138.128C198.899 130.644 206.193 124.803 215.018 122.29C225.746 119.234 236.327 121.763 244 128.177L231.888 131.629L229.42 128.138L228.368 132.637L217.269 135.77L214.059 131.233L212.69 137.081L203.996 139.571C210.563 139.307 217.439 140.874 223.882 144.519C234.425 150.476 241.448 160.621 243.737 171.495L228.446 162.855L227.603 157.596L224.029 159.775L223.526 156.642L220.595 158.426L209.759 152.299L209.094 148.126L205.868 150.096L198.868 146.14C205.11 151.593 210.115 159.62 212.706 169.416C216.209 182.648 214.523 196.144 209.063 206.281L205.11 191.335L208.189 187.961L203.958 186.984L198.458 166.197L202.457 161.815L196.958 160.551L193.586 147.808C187.808 186.976 175.084 228.89 155.222 270.028C143.96 293.35 131.19 314.788 117.423 334C109.99 331.456 102.51 329.09 95 326.857C119.743 300.052 142.614 266.499 161.332 227.742Z" fill="#687179"/>
</svg>
