<svg width="779" height="516" viewBox="0 0 779 516" fill="none" xmlns="http://www.w3.org/2000/svg">
<g opacity="0.2">
<path d="M195.433 151.114C195.468 150.752 195.508 150.39 195.57 150.038C195.626 149.683 195.697 149.35 195.777 148.965C195.932 148.216 196.076 147.464 196.164 146.703C196.246 146.038 196.343 145.354 196.477 144.674C196.611 143.999 196.766 143.325 196.977 142.69C197.154 142.132 196.795 141.716 196.334 141.575C195.872 141.435 195.312 141.583 195.129 142.157C194.676 143.563 194.388 145.017 194.145 146.477L193.799 148.667C193.743 149.022 193.676 149.429 193.634 149.807C193.589 150.191 193.557 150.571 193.526 150.952C193.475 151.571 193.942 151.895 194.42 151.918C194.898 151.936 195.386 151.672 195.433 151.114Z" fill="#161921"/>
<path d="M199.56 136.234C199.849 135.534 200.171 134.847 200.482 134.158C200.793 133.469 201.109 132.779 201.376 132.068C201.616 131.447 201.878 130.812 202.174 130.176C202.467 129.545 202.777 128.926 203.118 128.341C203.719 127.321 202.023 126.389 201.423 127.419C201.056 128.049 200.716 128.694 200.393 129.346C200.068 129.992 199.761 130.676 199.463 131.358L199.029 132.39L198.61 133.425L197.781 135.493C197.543 136.048 197.892 136.51 198.339 136.684C198.784 136.868 199.334 136.772 199.56 136.234Z" fill="#161921"/>
<path d="M206.849 122.408C207.242 121.758 207.663 121.117 208.072 120.474C208.489 119.839 208.882 119.184 209.248 118.524C209.412 118.233 209.568 117.933 209.747 117.644C209.926 117.355 210.109 117.064 210.294 116.779C210.661 116.199 211.093 115.671 211.519 115.16C211.904 114.726 211.743 114.202 211.377 113.883C211.017 113.568 210.434 113.466 210.028 113.924C209.549 114.491 209.071 115.067 208.656 115.682C208.445 115.987 208.231 116.298 208.026 116.607L207.441 117.559C207.044 118.19 206.696 118.846 206.31 119.485C205.946 120.129 205.57 120.771 205.188 121.404C204.584 122.435 206.249 123.412 206.849 122.408Z" fill="#161921"/>
<path d="M216.586 110.542L217.474 109.872L217.918 109.536L218.391 109.195C219.017 108.74 219.63 108.267 220.204 107.752C221.211 106.844 222.295 105.916 223.426 105.183C224.415 104.543 223.328 102.945 222.321 103.593C221.092 104.389 219.952 105.308 218.82 106.241L217.122 107.632C216.55 108.082 215.964 108.584 215.373 109.038C214.434 109.838 215.73 111.281 216.586 110.542Z" fill="#161921"/>
<path d="M229.432 101.684C230.698 100.981 232.097 100.501 233.469 99.8773C234.675 99.3252 236.014 98.8174 237.328 98.4642C237.906 98.3078 238.05 97.7605 237.901 97.2996C237.753 96.8386 237.326 96.4613 236.761 96.6102C235.38 96.9811 233.985 97.4548 232.592 98.0181C231.899 98.3065 231.203 98.6054 230.524 98.9363C229.838 99.2632 229.162 99.6133 228.496 99.9865C227.946 100.292 227.952 100.866 228.201 101.277C228.452 101.699 228.959 101.95 229.432 101.684Z" fill="#161921"/>
<path d="M243.97 96.4047C244.606 96.2573 245.294 96.2296 246.016 96.2252L246.599 96.2179C246.798 96.2145 247 96.2054 247.197 96.1924C247.596 96.1655 247.988 96.125 248.371 96.0662C249.728 95.8596 251.122 95.6408 252.427 95.7292C252.997 95.7641 253.314 95.3133 253.345 94.8277C253.378 94.3469 253.098 93.8264 252.477 93.7911C251.719 93.7423 250.961 93.7685 250.223 93.8209C249.481 93.879 248.758 93.9632 248.039 94.0369C247.683 94.0757 247.325 94.1096 246.971 94.1378C246.608 94.1679 246.282 94.1858 245.886 94.2021C245.121 94.2447 244.323 94.3235 243.53 94.5063C242.881 94.6613 242.748 95.2414 242.911 95.6947C243.08 96.1616 243.493 96.5167 243.97 96.4047Z" fill="#161921"/>
<path d="M259.161 96.9928C259.889 97.1721 260.608 97.3831 261.324 97.6047C262.044 97.8205 262.756 98.043 263.48 98.2281C264.116 98.3952 264.771 98.5836 265.401 98.8267C266.036 99.064 266.639 99.3723 267.212 99.6813C267.7 99.9868 268.188 99.723 268.432 99.3064C268.676 98.8897 268.664 98.3078 268.137 97.9798C267.807 97.7938 267.47 97.624 267.132 97.4542C266.795 97.2844 266.45 97.1213 266.099 96.9841C265.4 96.6944 264.685 96.4575 263.968 96.2311C263.243 96.0162 262.521 95.8157 261.794 95.6412C261.069 95.4513 260.339 95.2874 259.616 95.1071C259.025 94.9663 258.625 95.3779 258.521 95.8475C258.419 96.3267 258.601 96.856 259.161 96.9928Z" fill="#161921"/>
<path d="M272.648 103.863C273.209 104.364 273.778 104.859 274.319 105.384C274.594 105.646 274.876 105.896 275.154 106.147C275.428 106.404 275.716 106.653 276.006 106.892C276.53 107.305 277.025 107.779 277.525 108.247C278.016 108.727 278.474 109.238 278.893 109.757C279.601 110.684 281.118 109.468 280.379 108.506C279.914 107.932 279.431 107.371 278.909 106.837C278.383 106.309 277.858 105.781 277.294 105.29L276.461 104.542L275.603 103.818C275.044 103.322 274.448 102.872 273.893 102.375C273.429 101.985 272.882 102.175 272.581 102.553C272.281 102.94 272.207 103.489 272.648 103.863Z" fill="#161921"/>
<path d="M282.849 115.502C283.276 116.134 283.698 116.772 284.115 117.41C284.537 118.043 284.969 118.679 285.449 119.281C286.281 120.339 287.136 121.488 287.778 122.668C288.062 123.183 288.619 123.2 289.036 122.96C289.453 122.715 289.739 122.205 289.449 121.682C288.746 120.394 287.905 119.187 287.046 117.989L285.738 116.199C285.308 115.597 284.859 115.005 284.452 114.394C283.754 113.415 282.177 114.548 282.849 115.502Z" fill="#161921"/>
<path d="M290.866 128.955C291.215 129.632 291.53 130.331 291.866 131.015C292.189 131.707 292.539 132.384 292.916 133.045C293.257 133.624 293.574 134.232 293.882 134.847C294.172 135.47 294.453 136.1 294.65 136.737C295.014 137.845 296.849 137.222 296.472 136.066C296.246 135.36 295.959 134.676 295.664 133.999C295.355 133.324 295.031 132.658 294.685 132C294.348 131.336 293.984 130.692 293.638 130.034C293.278 129.384 292.938 128.731 292.596 128.072C292.328 127.535 291.757 127.495 291.326 127.718C290.895 127.946 290.6 128.432 290.866 128.955Z" fill="#161921"/>
<path d="M296.615 143.515C297.127 144.98 297.599 146.472 298.296 147.861C298.603 148.471 298.913 149.096 299.2 149.734C299.494 150.377 299.758 150.996 299.946 151.634C300.117 152.185 300.652 152.322 301.117 152.172C301.577 152.023 301.967 151.584 301.779 151.001C301.675 150.641 301.542 150.287 301.41 149.938C301.278 149.589 301.14 149.261 301 148.923C300.716 148.254 300.418 147.587 300.121 146.925C299.525 145.592 298.928 144.258 298.443 142.878C298.057 141.754 296.217 142.383 296.615 143.515Z" fill="#161921"/>
<path d="M301.588 158.449C302.012 159.95 302.422 161.505 303.169 162.924C303.515 163.576 303.82 164.102 304.06 164.725C304.304 165.342 304.489 165.991 304.62 166.645C304.847 167.8 306.742 167.38 306.51 166.201C306.365 165.474 306.168 164.738 305.897 164.006C305.767 163.642 305.612 163.277 305.443 162.915L304.976 161.946C304.678 161.304 304.392 160.65 304.138 159.975C303.884 159.305 303.651 158.616 303.452 157.92C303.139 156.786 301.265 157.287 301.588 158.449Z" fill="#161921"/>
<path d="M306.429 173.573C306.681 174.284 306.898 174.996 307.094 175.703L307.379 176.767C307.476 177.117 307.564 177.47 307.679 177.857C307.881 178.518 308.091 179.196 308.302 179.875C308.507 180.55 308.702 181.226 308.856 181.896C309.136 183.065 311.003 182.526 310.729 181.39C310.57 180.691 310.382 180.003 310.194 179.311C310.002 178.623 309.813 177.931 309.64 177.24C309.462 176.525 309.247 175.767 309.008 175.049C308.769 174.326 308.509 173.622 308.258 172.916C307.839 171.778 306.03 172.486 306.429 173.573Z" fill="#161921"/>
<path d="M310.501 188.771C310.702 189.506 310.89 190.249 311.072 190.983C311.269 191.724 311.478 192.498 311.767 193.222C312.016 193.863 312.277 194.517 312.524 195.178C312.761 195.842 313.003 196.5 313.185 197.159C313.527 198.312 315.36 197.678 315.03 196.558C314.837 195.867 314.606 195.187 314.379 194.501C314.143 193.823 313.907 193.139 313.675 192.454C313.442 191.765 313.223 191.093 313.006 190.381C312.794 189.667 312.573 188.961 312.376 188.25C312.044 187.095 310.183 187.639 310.501 188.771Z" fill="#161921"/>
<path d="M315.277 203.953C315.832 205.404 316.35 206.878 317.078 208.246C317.718 209.446 318.369 210.724 318.833 211.993C319.237 213.109 321.039 212.387 320.633 211.266C319.637 208.531 318.137 205.979 317.093 203.253C316.667 202.156 314.848 202.837 315.277 203.953Z" fill="#161921"/>
<path d="M321.199 218.679C321.819 220.113 322.416 221.576 323.264 222.896C324.011 224.056 324.799 225.272 325.466 226.477C325.757 227.005 326.322 227.011 326.736 226.752C327.145 226.493 327.412 225.987 327.135 225.481C325.774 223.002 324.135 220.581 322.981 217.906C322.518 216.827 320.721 217.572 321.199 218.679Z" fill="#161921"/>
<path d="M329.476 232.477C330.498 233.663 331.497 234.859 332.623 235.891C333.115 236.345 333.616 236.823 334.087 237.322C334.567 237.819 334.976 238.339 335.417 238.893C336.168 239.862 337.62 238.569 336.923 237.669C336.501 237.136 336.021 236.514 335.528 235.975C335.033 235.421 334.516 234.892 333.996 234.367C332.952 233.325 331.894 232.31 330.948 231.209C330.193 230.321 328.689 231.554 329.476 232.477Z" fill="#161921"/>
<path d="M340.238 244.283C340.844 244.79 341.448 245.308 342.07 245.792C342.385 246.026 342.709 246.259 343.031 246.481C343.355 246.709 343.689 246.919 344.034 247.102C344.638 247.44 345.254 247.786 345.869 248.132C346.484 248.478 347.08 248.852 347.655 249.216C348.666 249.88 349.644 248.198 348.668 247.562C348.064 247.174 347.465 246.785 346.851 246.419C346.228 246.06 345.633 245.665 345.009 245.301C344.393 244.925 343.801 244.52 343.2 244.121C342.62 243.699 342.039 243.271 341.49 242.807C340.638 242.038 339.316 243.461 340.238 244.283Z" fill="#161921"/>
<path d="M353.709 252.984C355.093 253.696 356.462 254.456 357.92 254.979C358.558 255.211 359.214 255.454 359.859 255.719C360.184 255.851 360.5 255.99 360.816 256.129C361.133 256.273 361.464 256.414 361.773 256.564C362.048 256.696 362.305 256.686 362.51 256.582C362.718 256.472 362.875 256.277 362.966 256.049C363.057 255.822 363.079 255.573 363.015 255.346C362.955 255.112 362.811 254.91 362.557 254.784C362.243 254.63 361.933 254.495 361.603 254.339C361.274 254.183 360.945 254.031 360.613 253.886C359.943 253.595 359.276 253.314 358.598 253.035C357.249 252.481 355.898 251.917 354.603 251.253C353.565 250.709 352.648 252.424 353.709 252.984Z" fill="#161921"/>
<path d="M368.574 259.054C369.344 259.216 370.116 259.392 370.893 259.517C371.285 259.581 371.67 259.637 372.064 259.686C372.451 259.731 372.844 259.75 373.236 259.764C373.925 259.792 374.63 259.801 375.331 259.84C376.032 259.88 376.734 259.92 377.405 260.01C378.594 260.151 378.745 258.213 377.58 258.073C376.868 257.975 376.149 257.924 375.434 257.862C374.716 257.811 373.997 257.759 373.278 257.703C372.556 257.658 371.838 257.581 371.123 257.499C370.408 257.412 369.697 257.294 368.99 257.146C367.858 256.889 367.378 258.775 368.574 259.054Z" fill="#161921"/>
<path d="M384.446 260.82C385.213 260.867 385.986 260.918 386.758 260.964C387.52 261.007 388.326 261.022 389.104 260.967C390.481 260.866 391.927 260.732 393.3 260.707C393.906 260.696 394.174 260.199 394.136 259.717C394.102 259.229 393.778 258.762 393.2 258.768C391.783 258.792 390.362 258.876 388.923 258.918C388.204 258.937 387.487 258.945 386.748 258.943C386.014 258.939 385.282 258.921 384.551 258.882C383.37 258.809 383.255 260.75 384.446 260.82Z" fill="#161921"/>
<path d="M400.408 260.186C401.841 259.985 403.353 260.038 404.897 259.841C406.28 259.664 407.736 259.478 409.113 259.298C409.726 259.22 409.934 258.69 409.837 258.214C409.745 257.737 409.367 257.306 408.813 257.377C408.125 257.46 407.447 257.541 406.752 257.61C406.041 257.672 405.33 257.739 404.614 257.802C403.16 257.922 401.658 258.047 400.147 258.258C399.52 258.349 399.324 258.881 399.406 259.36C399.448 259.602 399.56 259.825 399.745 259.979C399.916 260.141 400.136 260.224 400.408 260.186Z" fill="#161921"/>
<path d="M416.152 257.767C416.883 257.521 417.619 257.279 418.35 257.033C419.08 256.783 419.803 256.519 420.504 256.194C421.737 255.631 423.055 255.063 424.351 254.673C425.492 254.328 424.864 252.491 423.732 252.829C422.345 253.246 420.986 253.778 419.63 254.329C418.274 254.875 416.907 255.448 415.531 255.918C414.422 256.297 415.009 258.152 416.152 257.767Z" fill="#161921"/>
<path d="M431.143 252.61C431.515 252.468 431.864 252.336 432.214 252.214L433.281 251.848C433.998 251.605 434.718 251.356 435.419 251.057C436.659 250.528 438.002 250.014 439.316 249.636C439.898 249.469 440.03 248.914 439.867 248.456C439.704 247.998 439.278 247.625 438.719 247.783C437.349 248.177 435.978 248.651 434.596 249.167C433.907 249.425 433.211 249.694 432.521 249.972L430.449 250.795C429.352 251.212 430.018 253.037 431.143 252.61Z" fill="#161921"/>
<path d="M446.048 247.005C447.424 246.25 448.795 245.517 450.04 244.627C451.135 243.837 452.323 243.038 453.528 242.427C454.587 241.893 453.655 240.19 452.596 240.723C451.296 241.384 450.054 242.162 448.827 242.968C447.595 243.77 446.388 244.602 445.116 245.301C444.602 245.585 444.57 246.146 444.798 246.576C445.021 247.008 445.521 247.296 446.048 247.005Z" fill="#161921"/>
<path d="M459.875 239.355C461.235 238.619 462.635 237.934 463.901 237.046C465.012 236.263 466.203 235.454 467.398 234.819C467.928 234.542 467.944 233.974 467.699 233.557C467.453 233.135 466.956 232.861 466.429 233.133C463.882 234.488 461.523 236.256 458.948 237.651C457.909 238.211 458.832 239.921 459.875 239.355Z" fill="#161921"/>
<path d="M473.645 231.432C474.304 231.016 474.961 230.594 475.616 230.163C476.267 229.733 476.889 229.259 477.485 228.754C478.008 228.309 478.53 227.834 479.074 227.394C479.622 226.954 480.16 226.506 480.718 226.114C481.701 225.415 480.485 223.896 479.538 224.573C478.954 224.985 478.391 225.433 477.822 225.872C477.254 226.312 476.701 226.783 476.127 227.223C475.554 227.668 474.995 228.13 474.403 228.554C473.817 228.982 473.226 229.41 472.612 229.798C471.604 230.417 472.625 232.068 473.645 231.432Z" fill="#161921"/>
<path d="M486.428 221.907C487.614 220.914 488.847 219.962 489.915 218.852C490.855 217.877 491.874 216.871 492.945 216.061C493.885 215.35 492.679 213.829 491.72 214.549C489.386 216.312 487.425 218.538 485.182 220.414C484.276 221.173 485.513 222.672 486.428 221.907Z" fill="#161921"/>
<path d="M498.598 211.769C499.768 210.745 500.976 209.738 501.989 208.549C502.875 207.504 503.812 206.409 504.796 205.461C505.657 204.62 504.239 203.291 503.403 204.106C501.341 206.092 499.513 208.387 497.319 210.308C496.43 211.079 497.688 212.559 498.598 211.769Z" fill="#161921"/>
<path d="M509.912 200.654C511.014 199.592 512.191 198.581 513.195 197.394C514.076 196.35 515.02 195.264 516.003 194.311C516.437 193.892 516.296 193.345 515.943 193.014C515.59 192.682 515.031 192.555 514.611 192.961C512.557 194.94 510.685 197.209 508.564 199.255C507.703 200.091 509.066 201.471 509.912 200.654Z" fill="#161921"/>
<path d="M520.857 189C521.768 187.721 522.688 186.435 523.378 185.043C523.985 183.822 524.632 182.544 525.396 181.433C526.066 180.459 524.44 179.399 523.757 180.385C522.932 181.593 522.231 182.872 521.523 184.147C520.821 185.421 520.108 186.692 519.273 187.872C518.936 188.351 519.151 188.869 519.541 189.159C519.931 189.448 520.509 189.497 520.857 189Z" fill="#161921"/>
<path d="M529.561 175.76C530.421 174.476 531.344 173.209 532.04 171.821C532.652 170.6 533.314 169.323 534.057 168.181C534.706 167.172 533.03 166.192 532.396 167.173C530.829 169.578 529.582 172.245 527.949 174.673C527.291 175.658 528.898 176.747 529.561 175.76Z" fill="#161921"/>
<path d="M537.807 162.11C538.511 160.715 539.24 159.321 539.729 157.843C540.157 156.547 540.624 155.189 541.207 153.968C541.724 152.899 539.946 152.113 539.429 153.181C538.172 155.796 537.377 158.636 536.071 161.23C535.808 161.756 536.1 162.239 536.533 162.465C536.966 162.691 537.542 162.65 537.807 162.11Z" fill="#161921"/>
<path d="M544.4 147.678C544.735 146.959 545.044 146.231 545.335 145.49C545.484 145.122 545.601 144.745 545.723 144.372C545.84 143.995 545.957 143.617 546.032 143.228C546.181 142.55 546.331 141.857 546.482 141.164C546.644 140.473 546.801 139.789 546.993 139.128C547.166 138.55 546.758 138.144 546.288 138.035C545.813 137.922 545.278 138.1 545.111 138.656C545.012 139 544.919 139.342 544.831 139.689L544.562 140.725C544.396 141.421 544.204 142.107 544.03 142.805C543.833 143.492 543.643 144.188 543.41 144.872C543.177 145.552 542.934 146.233 542.63 146.881C542.154 147.931 543.893 148.8 544.4 147.678Z" fill="#161921"/>
<path d="M548.659 132.164C548.754 131.386 548.884 130.612 548.963 129.833C549.047 129.052 549.102 128.273 549.086 127.491C549.062 126.123 549.043 124.678 549.166 123.326C549.27 122.132 547.331 122.036 547.228 123.21C547.095 124.644 547.076 126.096 547.031 127.548C547.017 128.275 546.987 129 546.942 129.728C546.903 130.454 546.827 131.173 546.736 131.895C546.56 133.053 548.476 133.363 548.659 132.164Z" fill="#161921"/>
<path d="M549.592 116.192C549.561 115.408 549.587 114.614 549.496 113.833C549.425 113.047 549.334 112.266 549.186 111.495C549.075 110.817 548.873 110.132 548.744 109.438C548.601 108.746 548.488 108.054 548.41 107.369C548.215 106.173 546.312 106.55 546.497 107.693C546.574 108.402 546.681 109.111 546.807 109.816C546.932 110.521 547.088 111.225 547.176 111.942L547.495 114.088L547.569 114.628L547.609 115.17C547.629 115.531 547.648 115.892 547.658 116.255C547.689 117.422 549.627 117.408 549.592 116.192Z" fill="#161921"/>
<path d="M547.127 100.32C546.893 99.5705 546.653 98.8176 546.418 98.0638C546.295 97.6878 546.169 97.3176 546.033 96.9492C545.883 96.5836 545.71 96.2323 545.533 95.8819C545.215 95.2689 544.899 94.6356 544.605 93.993C544.307 93.3512 543.973 92.7314 543.716 92.0967C543.251 90.9776 541.505 91.8335 541.95 92.9014C542.088 93.2294 542.231 93.5565 542.384 93.8817C542.536 94.207 542.692 94.5264 542.827 94.8602C543.109 95.5201 543.409 96.1715 543.71 96.8276C543.858 97.1586 544.029 97.4753 544.155 97.8157L544.544 98.8246C544.798 99.4997 545.049 100.18 545.267 100.868C545.557 101.986 547.434 101.499 547.127 100.32Z" fill="#161921"/>
<path d="M540.649 85.6056L540.044 84.5885L539.742 84.0824L539.409 83.5971C538.96 82.9495 538.488 82.3161 537.979 81.72C537.547 81.1841 537.037 80.688 536.57 80.1537C536.104 79.6242 535.655 79.0814 535.249 78.5303C534.869 78.0591 534.307 78.1474 533.939 78.4631C533.571 78.7788 533.39 79.318 533.752 79.7727C534.173 80.3509 534.615 80.91 535.079 81.4548L535.781 82.2735C536.022 82.5417 536.229 82.8365 536.457 83.1123L537.793 84.8175C538.022 85.0981 538.22 85.3996 538.417 85.7011C538.615 86.0026 538.809 86.3099 538.993 86.619C539.594 87.612 541.279 86.648 540.649 85.6056Z" fill="#161921"/>
<path d="M530.608 73.0617C530.044 72.5161 529.459 71.9897 528.873 71.4632C528.284 70.9425 527.689 70.4178 527.038 69.9938C525.903 69.2287 524.709 68.4199 523.654 67.5496C522.718 66.7859 521.569 68.3559 522.474 69.0905C523.577 70.0016 524.743 70.8458 525.912 71.7092C526.503 72.1347 527.051 72.5984 527.617 73.0488C528.175 73.5106 528.741 73.961 529.262 74.4648C530.081 75.296 531.464 73.9306 530.608 73.0617Z" fill="#161921"/>
<path d="M517.905 63.2482C516.543 62.4469 515.152 61.6462 513.649 61.1468C512.989 60.9343 512.308 60.7159 511.632 60.4965C510.963 60.2859 510.3 60.0541 509.663 59.8023C509.106 59.58 508.665 59.9346 508.504 60.3903C508.343 60.8508 508.461 61.4124 509.002 61.6279C509.667 61.8943 510.342 62.1386 511.016 62.3733L512.018 62.7297L513.017 63.1014C513.681 63.3582 514.347 63.6294 515.003 63.9275C515.654 64.2265 516.296 64.5523 516.915 64.9175C517.42 65.2096 517.916 64.9593 518.174 64.5399C518.436 64.1398 518.434 63.556 517.905 63.2482Z" fill="#161921"/>
<path d="M502.96 57.3583C501.455 56.9492 499.942 56.5065 498.401 56.3242C497.043 56.1663 495.616 55.9867 494.294 55.6723C493.133 55.3965 492.761 57.3011 493.907 57.5748C496.715 58.2423 499.643 58.4721 502.449 59.2349C503.582 59.546 504.125 57.6783 502.96 57.3583Z" fill="#161921"/>
<path d="M487.398 54.0102C485.852 53.7585 484.281 53.4768 482.699 53.522C482.005 53.5459 481.295 53.5676 480.582 53.5952C479.877 53.6112 479.159 53.6397 478.487 53.6194C477.293 53.5896 477.324 55.5369 478.502 55.5647C479.234 55.5835 479.926 55.5751 480.639 55.5725C481.346 55.5661 482.06 55.5684 482.775 55.5755C484.207 55.6042 485.651 55.6907 487.078 55.9252C488.235 56.127 488.594 54.2142 487.398 54.0102Z" fill="#161921"/>
<path d="M471.374 53.5267C469.813 53.6327 468.227 53.7136 466.704 54.097C466.037 54.2605 465.346 54.4286 464.661 54.6006C463.959 54.7658 463.262 54.9253 462.579 55.0868C461.979 55.2325 461.825 55.7816 461.974 56.2425C462.119 56.7092 462.538 57.098 463.082 56.9682C463.755 56.8134 464.393 56.6805 465.113 56.5318C465.813 56.3868 466.519 56.2409 467.219 56.0959C468.632 55.8137 470.062 55.573 471.51 55.4738C472.672 55.3947 472.581 53.4489 471.374 53.5267Z" fill="#161921"/>
<path d="M455.761 57.3499C455.057 57.6555 454.348 57.937 453.653 58.2158C452.95 58.5012 452.272 58.7666 451.579 59.08C450.339 59.6338 449.011 60.1994 447.713 60.6095C446.567 60.9802 447.257 62.8005 448.361 62.4429C449.724 62.0103 451.075 61.4852 452.438 60.9477C453.852 60.3856 455.19 59.7181 456.533 59.1294C457.63 58.6583 456.847 56.8758 455.761 57.3499Z" fill="#161921"/>
<path d="M441.074 63.7215C439.817 64.7078 438.628 65.6812 437.55 66.693C437.078 67.1387 436.565 67.5621 436.029 67.9352C435.449 68.3465 434.854 68.726 434.258 69.0756C433.226 69.7289 434.345 71.3163 435.315 70.7048C435.93 70.3467 436.518 69.9835 437.128 69.5763C437.791 69.1588 438.396 68.6727 438.975 68.1815C440.126 67.1905 441.15 66.1341 442.277 65.2526C442.727 64.8962 442.675 64.3418 442.389 63.9425C442.104 63.5529 441.559 63.3383 441.074 63.7215Z" fill="#161921"/>
<path d="M428.359 73.1842C427.758 73.6896 427.184 74.2298 426.603 74.7613C426.033 75.3006 425.496 75.8786 424.998 76.479C424.573 77.0203 424.131 77.5702 423.68 78.1065C423.236 78.6515 422.768 79.1713 422.293 79.6575C421.462 80.5219 422.912 81.8106 423.728 80.9691C424.232 80.4524 424.72 79.9289 425.193 79.3783C425.678 78.8451 426.141 78.2916 426.62 77.7497C427.106 77.2166 427.573 76.6621 428.082 76.1445C428.586 75.6278 429.089 75.1063 429.643 74.64C430.514 73.8826 429.277 72.3829 428.359 73.1842Z" fill="#161921"/>
<path d="M417.381 84.7696C416.375 85.9473 415.322 87.0842 414.449 88.3513C414.063 88.9102 413.661 89.4671 413.24 90.0277C412.82 90.5931 412.377 91.1381 411.922 91.6503C411.135 92.566 412.664 93.7697 413.422 92.8845C413.897 92.3484 414.356 91.8054 414.801 91.2402C415.256 90.6732 415.712 90.0907 416.153 89.5063C417.039 88.3316 417.909 87.15 418.858 86.0383C419.626 85.1311 418.155 83.8663 417.381 84.7696Z" fill="#161921"/>
<path d="M407.393 97.173C406.953 97.8172 406.498 98.4593 406.088 99.1276C405.878 99.4579 405.673 99.7921 405.478 100.129C405.289 100.47 405.112 100.819 404.946 101.171C404.795 101.479 404.646 101.793 404.498 102.111C404.35 102.429 404.202 102.748 404.043 103.063C403.889 103.377 403.725 103.689 403.559 103.995C403.399 104.306 403.233 104.607 403.06 104.901C402.447 105.938 404.167 106.84 404.762 105.836C405.122 105.217 405.469 104.586 405.811 103.951C406.146 103.312 406.482 102.673 406.817 102.029C407.146 101.381 407.494 100.75 407.855 100.116C408.207 99.4785 408.598 98.8687 409.001 98.2666C409.653 97.3019 408.073 96.1729 407.393 97.173Z" fill="#161921"/>
<path d="M399.561 111.104C399.227 111.807 398.901 112.52 398.584 113.23C398.272 113.944 397.994 114.677 397.763 115.416C397.57 116.072 397.37 116.745 397.144 117.408C396.923 118.075 396.691 118.734 396.422 119.36C395.96 120.458 397.775 121.147 398.233 120.055C398.795 118.728 399.259 117.355 399.733 115.985C399.981 115.303 400.211 114.609 400.475 113.934C400.744 113.258 401.003 112.579 401.32 111.923C401.819 110.863 400.075 110.016 399.561 111.104Z" fill="#161921"/>
<path d="M393.624 125.863C393.085 127.31 392.484 128.75 392.116 130.254C391.792 131.575 391.426 132.964 390.936 134.227C390.506 135.339 392.34 135.974 392.767 134.873C393.818 132.173 394.423 129.285 395.441 126.541C395.855 125.428 394.037 124.744 393.624 125.863Z" fill="#161921"/>
<path d="M388.339 140.816C387.854 142.288 387.317 143.77 387.045 145.311C386.931 145.987 386.805 146.68 386.674 147.375C386.538 148.065 386.397 148.757 386.225 149.419C385.934 150.599 387.844 150.96 388.122 149.838C388.303 149.149 388.459 148.454 388.614 147.755C388.767 147.051 388.921 146.348 389.075 145.644C389.386 144.23 389.726 142.811 390.182 141.425C390.561 140.308 388.719 139.679 388.339 140.816Z" fill="#161921"/>
<path d="M384.917 156.534L384.852 157.67L384.766 158.806C384.707 159.561 384.66 160.324 384.662 161.088C384.662 162.432 384.597 163.858 384.37 165.19C384.172 166.362 386.094 166.626 386.292 165.454C386.534 164.019 386.65 162.548 386.714 161.067C386.746 160.327 386.767 159.584 386.789 158.84C386.81 158.097 386.821 157.351 386.858 156.614C386.928 155.472 384.992 155.291 384.917 156.534Z" fill="#161921"/>
<path d="M383.187 172.2C383.118 172.983 383.045 173.766 383.009 174.562C382.972 175.358 382.985 176.15 383.066 176.933C383.212 178.309 383.393 179.742 383.416 181.101C383.436 182.296 385.376 182.187 385.353 181.008C385.33 179.564 385.193 178.132 385.106 176.695C385.057 175.975 385.029 175.262 385.025 174.543C385.027 173.824 385.052 173.1 385.117 172.378C385.232 171.212 383.304 170.994 383.187 172.2Z" fill="#161921"/>
<path d="M383.38 188.115C383.387 188.873 383.361 189.647 383.36 190.417C383.354 191.187 383.374 191.963 383.447 192.733C383.578 194.086 383.695 195.522 383.669 196.885C383.655 197.487 384.144 197.773 384.625 197.76C385.112 197.746 385.597 197.442 385.609 196.856C385.637 195.422 385.567 193.972 385.489 192.509L385.38 190.312C385.348 189.574 385.332 188.843 385.323 188.101C385.322 187.497 384.822 187.208 384.34 187.216C383.853 187.23 383.379 187.536 383.38 188.115Z" fill="#161921"/>
<path d="M383.815 204.064C383.919 204.838 384.011 205.6 384.12 206.373C384.233 207.14 384.371 207.908 384.566 208.659C384.91 209.981 385.265 211.381 385.475 212.729C385.665 213.921 387.565 213.525 387.384 212.376C387.17 210.959 386.858 209.546 386.549 208.122C386.396 207.408 386.243 206.693 386.1 205.976C385.962 205.259 385.832 204.534 385.738 203.813C385.596 202.662 383.664 202.84 383.815 204.064Z" fill="#161921"/>
<path d="M386.838 219.774C387.072 220.523 387.333 221.307 387.606 222.028C387.879 222.745 388.162 223.459 388.5 224.153C389.088 225.368 389.675 226.679 390.089 227.972C390.453 229.111 392.277 228.45 391.92 227.325C391.485 225.945 390.924 224.59 390.344 223.238L389.46 221.211C389.17 220.538 388.909 219.884 388.697 219.196C388.526 218.644 387.983 218.494 387.515 218.629C387.041 218.761 386.655 219.19 386.838 219.774Z" fill="#161921"/>
<path d="M392.294 234.729C392.853 236.1 393.245 237.593 393.938 239.013C394.543 240.26 395.212 241.584 395.907 242.834C396.212 243.384 396.784 243.374 397.186 243.101C397.587 242.829 397.839 242.321 397.577 241.842C397.254 241.255 396.949 240.655 396.647 240.024C396.347 239.397 396.058 238.754 395.771 238.09C395.201 236.766 394.655 235.383 394.087 233.989C393.861 233.434 393.301 233.352 392.851 233.528C392.402 233.71 392.069 234.183 392.294 234.729Z" fill="#161921"/>
<path d="M399.921 248.727C400.342 249.305 400.782 249.985 401.229 250.618C401.671 251.257 402.154 251.873 402.67 252.453C403.127 252.959 403.602 253.482 404.054 254.019C404.511 254.55 404.96 255.093 405.356 255.646C405.714 256.132 406.274 256.063 406.649 255.756C407.029 255.449 407.226 254.916 406.88 254.443C406.463 253.859 406.011 253.297 405.558 252.735C405.109 252.168 404.635 251.62 404.181 251.053C403.723 250.487 403.252 249.933 402.811 249.354C402.36 248.777 401.94 248.198 401.49 247.576C401.126 247.082 400.555 247.147 400.172 247.44C399.787 247.744 399.589 248.272 399.921 248.727Z" fill="#161921"/>
<path d="M409.759 261.28L410.564 262.139L411.403 262.976C411.96 263.533 412.563 264.047 413.192 264.515C413.736 264.934 414.335 265.323 414.897 265.754C415.455 266.186 416.041 266.588 416.557 267.038C417.017 267.433 417.558 267.209 417.838 266.826C418.131 266.43 418.174 265.877 417.736 265.497C417.202 265.03 416.619 264.618 416.068 264.165C415.513 263.718 414.932 263.295 414.38 262.837L413.541 262.16C413.262 261.929 412.996 261.686 412.725 261.448C412.454 261.206 412.189 260.967 411.921 260.719C411.663 260.464 411.414 260.208 411.164 259.946C410.366 259.096 408.92 260.393 409.759 261.28Z" fill="#161921"/>
<path d="M422.394 271.257C423.089 271.627 423.795 272.03 424.459 272.367C425.13 272.717 425.81 273.061 426.512 273.365C427.747 273.896 429.039 274.516 430.2 275.231C431.223 275.858 432.162 274.154 431.161 273.543C429.938 272.789 428.64 272.111 427.309 271.468C426.643 271.147 425.969 270.832 425.291 270.524C424.598 270.217 423.978 269.898 423.339 269.561C422.823 269.291 422.335 269.555 422.092 269.976C421.838 270.39 421.85 270.972 422.394 271.257Z" fill="#161921"/>
<path d="M436.717 278.395C438.212 278.856 439.667 279.335 441.115 279.68C441.429 279.755 441.765 279.84 442.107 279.934C442.444 280.028 442.782 280.123 443.124 280.212C443.8 280.406 444.472 280.607 445.111 280.843C446.246 281.244 446.805 279.383 445.708 278.995C445.037 278.75 444.356 278.531 443.671 278.314C442.98 278.097 442.312 277.891 441.572 277.674C440.121 277.265 438.671 276.965 437.286 276.537C436.172 276.193 435.554 278.035 436.717 278.395Z" fill="#161921"/>
<path d="M451.887 283.073C453.404 283.435 454.931 283.825 456.486 283.95C457.854 284.056 459.288 284.174 460.632 284.415C461.819 284.62 462.061 282.691 460.91 282.493C459.499 282.236 458.066 282.077 456.625 281.901C455.905 281.815 455.187 281.713 454.467 281.602C453.752 281.49 453.037 281.353 452.331 281.185C451.194 280.904 450.715 282.79 451.887 283.073Z" fill="#161921"/>
<path d="M467.682 285.479C469.234 285.584 470.803 285.726 472.352 285.608C473.714 285.505 475.148 285.409 476.506 285.467C477.698 285.517 477.701 283.568 476.52 283.521C473.637 283.397 470.714 283.735 467.813 283.54C466.644 283.456 466.479 285.396 467.682 285.479Z" fill="#161921"/>
<path d="M483.578 285.767C485.13 285.742 486.696 285.765 488.232 285.529C489.581 285.329 491.007 285.119 492.369 285.066C493.566 285.016 493.398 283.08 492.224 283.126C489.353 283.24 486.462 283.772 483.542 283.82C482.369 283.841 482.385 285.787 483.578 285.767Z" fill="#161921"/>
<path d="M499.481 284.639C500.257 284.525 501.035 284.42 501.806 284.276C502.576 284.133 503.351 283.959 504.084 283.722C505.381 283.308 506.755 282.878 508.083 282.627C509.252 282.402 508.813 280.508 507.658 280.73C506.238 280.999 504.836 281.389 503.434 281.774C502.732 281.965 502.04 282.153 501.333 282.314C500.626 282.48 499.919 282.617 499.201 282.72C498.619 282.807 498.393 283.32 498.457 283.803C498.523 284.279 498.884 284.725 499.481 284.639Z" fill="#161921"/>
<path d="M515.039 281.312C516.54 280.943 518.067 280.633 519.515 280.099C520.787 279.629 522.144 279.163 523.467 278.883C524.626 278.635 524.158 276.747 522.998 276.995C520.157 277.603 517.42 278.73 514.58 279.422C513.427 279.704 513.882 281.595 515.039 281.312Z" fill="#161921"/>
<path d="M530.403 277.492C531.151 277.283 531.915 277.105 532.664 276.876C533.408 276.648 534.158 276.418 534.87 276.101C535.495 275.826 536.147 275.56 536.795 275.296C537.442 275.031 538.102 274.804 538.751 274.599C539.895 274.243 539.242 272.411 538.122 272.757C537.435 272.974 536.75 273.196 536.07 273.452C535.396 273.707 534.717 273.963 534.038 274.218C533.36 274.479 532.673 274.721 531.992 274.967C531.304 275.205 530.611 275.413 529.91 275.608C529.341 275.763 529.175 276.299 529.296 276.771C529.407 277.244 529.82 277.649 530.403 277.492Z" fill="#161921"/>
<path d="M545.512 272.477C546.957 271.924 548.434 271.41 549.801 270.686C551 270.046 552.277 269.395 553.548 268.925C554.661 268.511 553.925 266.714 552.812 267.124C550.092 268.132 547.54 269.618 544.818 270.663C543.712 271.086 544.397 272.907 545.512 272.477Z" fill="#161921"/>
<path d="M560.19 266.552C561.619 265.967 563.088 265.434 564.444 264.678C565.633 264.014 566.898 263.331 568.157 262.818C569.262 262.366 568.452 260.598 567.365 261.043C564.697 262.131 562.164 263.644 559.459 264.75C558.357 265.197 559.089 266.999 560.19 266.552Z" fill="#161921"/>
<path d="M574.708 260.077C575.404 259.728 576.106 259.383 576.794 259.015C577.481 258.648 578.158 258.248 578.796 257.806C579.352 257.404 579.935 257.012 580.511 256.611C581.094 256.219 581.686 255.845 582.278 255.501C583.326 254.905 582.272 253.27 581.26 253.844C580.641 254.204 580.024 254.572 579.42 254.963C578.812 255.355 578.203 255.742 577.595 256.134C576.981 256.517 576.375 256.919 575.747 257.284C575.125 257.659 574.491 258.016 573.84 258.341C572.784 258.869 573.63 260.619 574.708 260.077Z" fill="#161921"/>
<path d="M588.374 251.874C589.653 251.003 590.971 250.18 592.141 249.18C593.169 248.303 594.283 247.404 595.434 246.698C596.443 246.084 595.385 244.45 594.363 245.076C591.874 246.605 589.692 248.618 587.281 250.267C586.306 250.929 587.39 252.543 588.374 251.874Z" fill="#161921"/>
<path d="M601.532 243.08C602.811 242.184 604.114 241.309 605.247 240.247C606.24 239.316 607.299 238.343 608.394 237.552C609.358 236.857 608.173 235.318 607.21 236.013C604.853 237.711 602.805 239.823 600.417 241.487C599.938 241.824 599.967 242.388 600.239 242.79C600.511 243.192 601.04 243.425 601.532 243.08Z" fill="#161921"/>
<path d="M614.195 233.558C614.819 233.093 615.443 232.628 616.067 232.163C616.69 231.698 617.275 231.186 617.834 230.644C618.321 230.165 618.827 229.683 619.35 229.213C619.869 228.748 620.393 228.283 620.932 227.869C621.879 227.142 620.634 225.649 619.699 226.364C619.124 226.799 618.577 227.274 618.023 227.74C617.47 228.212 616.929 228.69 616.385 229.18C615.845 229.668 615.307 230.162 614.742 230.625C614.184 231.092 613.62 231.556 613.035 231.993C612.091 232.709 613.236 234.277 614.195 233.558Z" fill="#161921"/>
<path d="M626.539 223.542C627.124 223.03 627.708 222.518 628.288 222.006C628.872 221.489 629.426 220.948 629.938 220.365C630.388 219.853 630.856 219.329 631.338 218.826C631.825 218.328 632.312 217.825 632.819 217.377C633.71 216.586 632.366 215.182 631.484 215.961C630.942 216.44 630.427 216.949 629.906 217.454C629.39 217.963 628.882 218.486 628.381 219.017C627.879 219.548 627.371 220.07 626.851 220.58C626.331 221.09 625.804 221.596 625.259 222.081C624.372 222.861 625.639 224.335 626.539 223.542Z" fill="#161921"/>
<path d="M638.125 212.679C639.21 211.576 640.375 210.527 641.321 209.301C642.156 208.221 643.071 207.12 644.028 206.157C644.874 205.32 643.459 203.984 642.617 204.816C641.597 205.841 640.629 206.927 639.687 208.042C638.743 209.153 637.778 210.253 636.751 211.295C636.338 211.714 636.459 212.265 636.806 212.613C637.147 212.962 637.704 213.104 638.125 212.679Z" fill="#161921"/>
<path d="M649.081 201.208C650.117 200.059 651.221 198.952 652.115 197.691C652.904 196.58 653.766 195.435 654.687 194.443C655.497 193.573 654.034 192.297 653.228 193.161C652.24 194.221 651.326 195.356 650.431 196.512C649.983 197.088 649.525 197.661 649.066 198.229C648.606 198.797 648.136 199.357 647.641 199.897C646.845 200.764 648.272 202.083 649.081 201.208Z" fill="#161921"/>
<path d="M659.562 189.318C660.067 188.732 660.572 188.14 661.078 187.553C661.576 186.957 662.058 186.35 662.482 185.704C663.237 184.57 664.052 183.389 664.936 182.359C665.716 181.46 664.199 180.244 663.428 181.137C662.487 182.232 661.62 183.403 660.764 184.582C659.91 185.765 659.034 186.943 658.092 188.059C657.31 188.948 658.782 190.218 659.562 189.318Z" fill="#161921"/>
<path d="M669.564 176.987C670.034 176.372 670.525 175.763 670.978 175.137C671.436 174.509 671.881 173.869 672.272 173.204C672.612 172.614 672.958 172.003 673.333 171.411C673.702 170.816 674.101 170.244 674.5 169.698C675.213 168.737 673.609 167.637 672.908 168.581C672.481 169.163 672.055 169.75 671.658 170.356C671.255 170.958 670.876 171.58 670.48 172.191L669.287 174.024C668.886 174.636 668.461 175.227 668.019 175.807C667.301 176.744 668.834 177.937 669.564 176.987Z" fill="#161921"/>
<path d="M678.717 163.986C679.135 163.331 679.557 162.675 679.98 162.019C680.391 161.36 680.762 160.67 681.092 159.972C681.376 159.348 681.69 158.728 681.991 158.09C682.299 157.462 682.629 156.844 682.987 156.265C683.613 155.245 681.907 154.311 681.292 155.313C680.916 155.925 680.563 156.557 680.228 157.197C679.892 157.836 679.552 158.48 679.217 159.124C678.878 159.769 678.56 160.425 678.198 161.059C677.841 161.692 677.474 162.322 677.084 162.942C676.771 163.442 677.015 163.954 677.42 164.22C677.829 164.476 678.401 164.491 678.717 163.986Z" fill="#161921"/>
<path d="M686.588 150.127C686.949 149.433 687.271 148.722 687.609 148.018C687.931 147.306 688.257 146.594 688.478 145.847C688.681 145.194 688.896 144.523 689.133 143.863C689.377 143.212 689.62 142.531 689.877 141.897C690.102 141.334 689.748 140.893 689.289 140.737C688.83 140.58 688.268 140.694 688.052 141.23C687.79 141.89 687.528 142.549 687.266 143.209C687.007 143.883 686.758 144.561 686.516 145.247C686.274 145.932 685.994 146.601 685.731 147.281C685.451 147.954 685.188 148.634 684.848 149.279C684.316 150.32 686.047 151.2 686.588 150.127Z" fill="#161921"/>
<path d="M692.318 135.223C692.543 134.501 692.795 133.763 693.041 133.101C693.299 132.422 693.588 131.747 693.846 131.038C694.3 129.797 694.901 128.487 695.549 127.269C695.834 126.729 695.527 126.249 695.086 126.055C694.643 125.855 694.085 125.913 693.813 126.415C693.148 127.652 692.493 128.962 691.907 130.348C691.617 131.043 691.351 131.759 691.107 132.49C690.867 133.236 690.677 133.931 690.455 134.644C690.108 135.794 691.97 136.344 692.318 135.223Z" fill="#161921"/>
<path d="M698.019 120.435C698.338 118.905 698.678 117.356 698.723 115.779C698.738 115.082 698.755 114.364 698.771 113.647C698.775 112.862 698.699 112.158 698.671 111.469C698.645 110.869 698.161 110.613 697.699 110.647C697.232 110.682 696.784 111.023 696.806 111.603C696.833 112.312 696.883 113.012 696.858 113.611C696.823 114.307 696.772 115.026 696.72 115.74C696.606 117.171 696.441 118.616 696.147 120.041C695.894 121.189 697.768 121.617 698.019 120.435Z" fill="#161921"/>
<path d="M753.199 104.126L741.612 90.9663L742.91 86.5408C743.162 85.678 742.615 84.7546 741.695 84.4825L737.729 83.319C736.872 83.0695 735.991 83.469 735.666 84.2159L730.231 78.0415L731.245 74.5797C731.516 73.6583 730.984 72.6821 730.059 72.4109L726.092 71.2474C725.531 71.0808 724.949 71.218 724.516 71.5611L718.697 64.9511C720.612 58.419 721.963 53.8083 722.008 53.65C723.976 46.9326 723.801 34.8946 719.597 33.6621C715.392 32.4247 708.75 42.4602 706.782 49.1775C706.737 49.3359 705.385 53.9418 703.472 60.4787L695.006 62.8894C694.826 62.3697 694.414 61.9397 693.848 61.7741L689.882 60.6105C688.961 60.3384 687.986 60.871 687.716 61.7972L686.702 65.259L678.799 67.5113C678.928 66.7072 678.402 65.8945 677.55 65.6393L673.584 64.4758C672.663 64.2037 671.699 64.6892 671.451 65.5511L670.154 69.9765L653.307 74.7765C651.453 75.3036 650.043 76.814 649.638 78.7001L649.563 79.0592C648.853 82.3925 651.473 85.5035 654.874 85.3626L667.356 84.8448C667.377 86.8935 667.788 88.4575 668.906 88.7964C670.385 89.2456 671.888 87.2579 673.187 84.605L683.324 84.1847C683.497 85.47 683.92 86.3723 684.715 86.6136C685.838 86.9516 686.999 85.804 688.086 83.9863L696.687 83.6271C693.185 95.5847 690.096 106.119 690.027 106.357C689.321 108.776 688.851 112.008 688.741 115.215L670.749 120.801C670.029 121.024 669.448 121.561 669.169 122.259C668.484 123.959 669.791 125.8 671.62 125.712L689.531 124.827C688.499 130.45 687.657 137.031 689.318 137.265C690.949 137.495 693.665 131.757 695.737 126.663L710.303 137.086C711.796 138.152 713.889 137.314 714.23 135.51C714.372 134.769 714.169 134.004 713.684 133.428L701.562 118.988C703.195 116.23 704.552 113.252 705.26 110.838C705.328 110.6 708.417 100.066 711.92 88.1082L718.962 93.0641C718.895 95.1796 719.254 96.7787 720.377 97.0965C721.174 97.3225 722.02 96.79 722.858 95.8044L731.158 101.647C730.816 104.584 731.01 107.064 732.494 107.492C733.619 107.815 734.805 106.722 735.931 105.007L746.154 112.202C748.941 114.162 752.827 112.963 754.023 109.776L754.151 109.432C754.847 107.604 754.476 105.573 753.199 104.126Z" fill="#161921"/>
<path d="M202.119 155.339C200.56 147.249 192.744 141.953 184.663 143.51C176.581 145.068 171.293 152.889 172.852 160.979C172.852 160.979 172.846 161.75 173.555 163.461C173.92 164.42 174.375 165.331 174.912 166.176C177.264 170.278 182.296 177.025 193.071 187.14C199.315 173.745 201.48 165.611 202.139 160.929C202.323 159.944 202.413 158.933 202.389 157.904C202.41 156.047 202.119 155.339 202.119 155.339ZM189.193 167.045C184.291 167.99 179.551 164.778 178.606 159.871C177.66 154.963 180.867 150.22 185.769 149.275C190.671 148.331 195.411 151.542 196.356 156.45C197.307 161.356 194.095 166.1 189.193 167.045Z" fill="#161921"/>
<path d="M197.547 192.76C197.896 194.57 196.712 196.322 194.903 196.67C193.094 197.019 191.344 195.833 190.995 194.022C190.646 192.212 191.83 190.46 193.639 190.112C195.447 189.763 197.198 190.949 197.547 192.76Z" fill="#161921"/>
</g>
<g opacity="0.2">
<path d="M19.9378 373.439C19.8821 373.14 19.8301 372.839 19.7983 372.542C19.761 372.243 19.7403 371.958 19.7156 371.629C19.6664 370.99 19.6079 370.352 19.5018 369.718C19.4128 369.164 19.3329 368.592 19.2823 368.013C19.2335 367.439 19.2013 366.86 19.2242 366.299C19.2368 365.809 18.851 365.558 18.447 365.552C18.043 365.546 17.6264 365.795 17.6122 366.3C17.5745 367.537 17.68 368.774 17.8241 370.006L18.0539 371.849C18.0912 372.148 18.1326 372.492 18.1865 372.805C18.2387 373.125 18.3019 373.438 18.365 373.752C18.4683 374.262 18.9194 374.415 19.3097 374.322C19.6982 374.226 20.0297 373.9 19.9378 373.439Z" fill="#161921"/>
<path d="M19.8032 360.502C19.8733 359.872 19.9729 359.244 20.0633 358.617C20.1536 357.99 20.2477 357.361 20.2976 356.727C20.3463 356.172 20.4096 355.6 20.5004 355.019C20.5893 354.443 20.6948 353.873 20.8336 353.322C21.081 352.361 19.499 352.005 19.2554 352.974C19.106 353.566 18.9823 354.164 18.8734 354.764C18.7625 355.36 18.6739 355.982 18.5927 356.6L18.4828 357.532L18.3857 358.462L18.1988 360.319C18.1368 360.821 18.5247 361.112 18.9253 361.148C19.3259 361.193 19.7466 360.988 19.8032 360.502Z" fill="#161921"/>
<path d="M22.4584 347.679C22.6241 347.064 22.8138 346.451 22.9942 345.838C23.1821 345.23 23.346 344.612 23.4878 343.995C23.5517 343.723 23.6082 343.445 23.6849 343.171C23.7617 342.897 23.842 342.62 23.9243 342.348C24.085 341.795 24.3103 341.27 24.5338 340.76C24.7432 340.321 24.4922 339.937 24.1236 339.765C23.7605 339.595 23.267 339.648 23.0468 340.111C22.7925 340.679 22.542 341.254 22.3503 341.845C22.2517 342.14 22.1514 342.44 22.0583 342.736L21.8086 343.638C21.6354 344.238 21.5081 344.848 21.346 345.451C21.2021 346.055 21.0492 346.659 20.8888 347.257C20.6415 348.227 22.2091 348.627 22.4584 347.679Z" fill="#161921"/>
<path d="M27.54 335.865L28.0995 335.119L28.3792 334.746L28.6809 334.362C29.0788 333.85 29.462 333.327 29.8045 332.779C30.4044 331.814 31.0609 330.815 31.8013 329.963C32.4489 329.217 31.2029 328.183 30.5426 328.939C29.7386 329.866 29.0344 330.87 28.3394 331.884L27.296 333.398C26.9401 333.893 26.5847 334.434 26.2142 334.936C25.6447 335.798 27.0232 336.659 27.54 335.865Z" fill="#161921"/>
<path d="M35.8233 325.751C36.6792 324.89 37.6943 324.179 38.6533 323.358C39.4957 322.633 40.4556 321.914 41.4312 321.324C41.8606 321.064 41.8494 320.59 41.6226 320.253C41.3958 319.917 40.9644 319.712 40.5442 319.963C39.5192 320.583 38.5059 321.288 37.5153 322.065C37.0246 322.458 36.534 322.861 36.0637 323.285C35.588 323.707 35.1252 324.146 34.6754 324.601C34.3039 324.975 34.4417 325.435 34.7378 325.709C35.0375 325.99 35.5046 326.075 35.8233 325.751Z" fill="#161921"/>
<path d="M46.3001 318.123C46.7771 317.857 47.3246 317.674 47.9053 317.503L48.3724 317.362C48.5317 317.313 48.6928 317.259 48.8485 317.202C49.1633 317.088 49.469 316.964 49.7635 316.828C50.8079 316.347 51.8798 315.846 52.9502 315.615C53.4176 315.51 53.5683 315.074 53.4805 314.675C53.3946 314.281 53.0484 313.927 52.5407 314.043C51.9194 314.179 51.315 314.377 50.7329 314.59C50.149 314.81 49.5872 315.045 49.0254 315.272C48.7472 315.386 48.4672 315.496 48.1889 315.601C47.9034 315.71 47.6452 315.8 47.3303 315.905C46.7242 316.117 46.1002 316.366 45.5043 316.697C45.0181 316.973 45.0461 317.47 45.282 317.798C45.5271 318.134 45.9419 318.324 46.3001 318.123Z" fill="#161921"/>
<path d="M58.6652 315.067C59.2929 315.042 59.9209 315.045 60.5489 315.057C61.1787 315.064 61.8031 315.077 62.4291 315.058C62.9798 315.045 63.5508 315.044 64.1149 315.094C64.6807 315.137 65.2379 315.245 65.7713 315.361C66.2351 315.493 66.5666 315.168 66.6663 314.776C66.7659 314.384 66.6207 313.918 66.1202 313.776C65.8111 313.703 65.5003 313.645 65.1896 313.587C64.8788 313.528 64.5626 313.477 64.2484 313.448C63.618 313.378 62.988 313.353 62.3581 313.337C61.7246 313.333 61.0968 313.339 60.4709 313.367C59.8431 313.383 59.2173 313.421 58.5932 313.444C58.0848 313.467 57.8587 313.892 57.884 314.294C57.9131 314.703 58.1824 315.087 58.6652 315.067Z" fill="#161921"/>
<path d="M71.1186 317.464C71.6863 317.738 72.2595 318.003 72.8165 318.301C73.0986 318.447 73.3843 318.583 73.6663 318.721C73.9465 318.864 74.2359 318.998 74.5252 319.122C75.0428 319.334 75.5518 319.6 76.0625 319.861C76.5696 320.133 77.0568 320.438 77.5148 320.758C78.2999 321.34 79.2383 320.008 78.42 319.406C77.9122 319.052 77.3935 318.712 76.8493 318.404C76.3034 318.101 75.7574 317.798 75.1898 317.534L74.3455 317.125L73.4868 316.741C72.9209 316.472 72.3371 316.248 71.7748 315.977C71.3105 315.771 70.9143 316.051 70.7595 316.425C70.6083 316.807 70.6763 317.265 71.1186 317.464Z" fill="#161921"/>
<path d="M82.0341 324.464C82.524 324.873 83.0121 325.289 83.4965 325.706C83.9827 326.118 84.4782 326.529 85.0045 326.902C85.9205 327.56 86.8757 328.287 87.6662 329.087C88.0142 329.436 88.4668 329.32 88.7472 329.03C89.0257 328.736 89.1375 328.259 88.7821 327.905C87.9176 327.031 86.9602 326.256 85.99 325.491L84.5211 324.354C84.035 323.969 83.5363 323.596 83.0667 323.199C82.2776 322.573 81.2708 323.852 82.0341 324.464Z" fill="#161921"/>
<path d="M91.6125 333.431C92.0514 333.895 92.4667 334.384 92.8965 334.857C93.3172 335.339 93.7561 335.802 94.2132 336.247C94.6222 336.634 95.0185 337.05 95.4093 337.473C95.7874 337.908 96.1601 338.35 96.4668 338.816C97.0169 339.624 98.3497 338.696 97.7773 337.853C97.4316 337.337 97.0421 336.853 96.6471 336.377C96.2412 335.905 95.8261 335.444 95.3947 334.995C94.9687 334.539 94.5263 334.105 94.0949 333.656C93.6543 333.216 93.2283 332.769 92.8005 332.319C92.4597 331.948 91.9905 332.049 91.6953 332.328C91.402 332.612 91.2772 333.072 91.6125 333.431Z" fill="#161921"/>
<path d="M99.6232 343.816C100.375 344.876 101.102 345.968 101.986 346.924C102.375 347.344 102.769 347.774 103.149 348.222C103.535 348.671 103.891 349.107 104.191 349.577C104.456 349.981 104.919 349.967 105.259 349.739C105.595 349.512 105.806 349.068 105.52 348.642C105.352 348.377 105.163 348.123 104.975 347.872C104.788 347.622 104.601 347.39 104.409 347.151C104.026 346.678 103.631 346.21 103.238 345.746C102.448 344.811 101.658 343.876 100.947 342.879C100.375 342.063 99.04 342.997 99.6232 343.816Z" fill="#161921"/>
<path d="M107.096 354.682C107.787 355.792 108.477 356.948 109.409 357.917C109.838 358.362 110.206 358.714 110.544 359.16C110.884 359.6 111.183 360.08 111.441 360.576C111.892 361.452 113.32 360.674 112.859 359.779C112.574 359.228 112.244 358.681 111.856 358.155C111.667 357.892 111.457 357.634 111.237 357.382L110.636 356.71C110.247 356.263 109.865 355.803 109.503 355.319C109.143 354.838 108.796 354.337 108.474 353.823C107.958 352.984 106.566 353.822 107.096 354.682Z" fill="#161921"/>
<path d="M114.507 365.732C114.874 366.246 115.215 366.769 115.537 367.292L116.013 368.082C116.173 368.342 116.326 368.606 116.508 368.891C116.824 369.375 117.151 369.873 117.478 370.37C117.8 370.866 118.115 371.365 118.394 371.868C118.891 372.745 120.269 371.877 119.784 371.026C119.494 370.501 119.183 369.99 118.87 369.476C118.556 368.968 118.243 368.454 117.943 367.938C117.634 367.404 117.285 366.844 116.926 366.321C116.565 365.795 116.192 365.288 115.826 364.778C115.225 363.96 113.933 364.95 114.507 365.732Z" fill="#161921"/>
<path d="M121.315 377.021C121.648 377.566 121.972 378.12 122.289 378.669C122.62 379.219 122.968 379.794 123.369 380.309C123.718 380.768 124.08 381.233 124.432 381.709C124.778 382.187 125.125 382.661 125.425 383.149C125.968 383.998 127.297 383.062 126.77 382.237C126.454 381.725 126.11 381.232 125.768 380.732C125.421 380.241 125.072 379.745 124.726 379.248C124.379 378.747 124.046 378.257 123.706 377.734C123.369 377.21 123.027 376.692 122.704 376.165C122.168 375.313 120.796 376.183 121.315 377.021Z" fill="#161921"/>
<path d="M128.687 388.132C129.471 389.171 130.23 390.237 131.134 391.169C131.928 391.987 132.749 392.864 133.417 393.778C134.002 394.582 135.285 393.583 134.698 392.775C133.261 390.805 131.46 389.098 129.987 387.147C129.389 386.363 128.082 387.333 128.687 388.132Z" fill="#161921"/>
<path d="M136.875 398.611C137.708 399.621 138.528 400.66 139.517 401.526C140.388 402.285 141.305 403.082 142.122 403.897C142.479 404.254 142.935 404.128 143.208 403.823C143.477 403.52 143.575 403.05 143.234 402.707C141.562 401.028 139.68 399.459 138.13 397.575C137.507 396.813 136.234 397.831 136.875 398.611Z" fill="#161921"/>
<path d="M146.744 407.795C147.842 408.513 148.924 409.243 150.07 409.812C150.572 410.064 151.086 410.332 151.581 410.624C152.083 410.912 152.533 411.236 153.017 411.58C153.846 412.186 154.715 410.807 153.944 410.245C153.481 409.914 152.951 409.524 152.429 409.205C151.901 408.874 151.362 408.568 150.822 408.267C149.739 407.67 148.651 407.099 147.634 406.432C146.82 405.893 145.896 407.235 146.744 407.795Z" fill="#161921"/>
<path d="M158.15 414.798C158.756 415.066 159.362 415.342 159.976 415.588C160.283 415.703 160.598 415.815 160.909 415.919C161.222 416.027 161.54 416.118 161.861 416.186C162.425 416.318 163.001 416.453 163.577 416.589C164.153 416.724 164.72 416.887 165.266 417.047C166.234 417.346 166.631 415.765 165.698 415.48C165.122 415.308 164.549 415.134 163.97 414.982C163.385 414.837 162.814 414.658 162.227 414.51C161.644 414.35 161.073 414.162 160.497 413.98C159.931 413.775 159.364 413.566 158.815 413.32C157.95 412.898 157.217 414.351 158.15 414.798Z" fill="#161921"/>
<path d="M171.015 418.673C172.295 418.925 173.574 419.218 174.869 419.301C175.437 419.339 176.021 419.383 176.601 419.446C176.894 419.477 177.18 419.516 177.467 419.554C177.756 419.596 178.055 419.632 178.338 419.682C178.59 419.724 178.795 419.656 178.936 419.525C179.078 419.388 179.159 419.194 179.179 418.99C179.2 418.786 179.159 418.581 179.055 418.412C178.953 418.239 178.79 418.109 178.557 418.067C178.268 418.016 177.987 417.979 177.685 417.93C177.384 417.881 177.084 417.835 176.783 417.795C176.176 417.717 175.573 417.646 174.963 417.579C173.748 417.446 172.53 417.306 171.333 417.072C170.371 416.875 170.031 418.469 171.015 418.673Z" fill="#161921"/>
<path d="M184.392 420.106C185.049 420.057 185.711 420.02 186.366 419.94C186.696 419.9 187.019 419.856 187.347 419.804C187.67 419.75 187.991 419.674 188.31 419.595C188.87 419.457 189.44 419.3 190.014 419.169C190.587 419.038 191.161 418.907 191.722 418.824C192.712 418.661 192.383 417.066 191.413 417.224C190.817 417.311 190.227 417.437 189.637 417.553C189.047 417.678 188.456 417.804 187.864 417.926C187.272 418.057 186.676 418.162 186.082 418.262C185.486 418.358 184.887 418.429 184.283 418.473C183.312 418.53 183.364 420.16 184.392 420.106Z" fill="#161921"/>
<path d="M197.578 417.841C198.207 417.7 198.841 417.561 199.474 417.419C200.097 417.277 200.749 417.101 201.362 416.876C202.448 416.475 203.581 416.031 204.68 415.693C205.165 415.542 205.266 415.08 205.123 414.701C204.982 414.316 204.613 414.016 204.149 414.155C203.014 414.503 201.889 414.901 200.741 415.269C200.166 415.451 199.591 415.625 198.996 415.794C198.404 415.962 197.81 416.117 197.213 416.255C196.245 416.472 196.603 418.061 197.578 417.841Z" fill="#161921"/>
<path d="M210.281 413.622C211.388 413.127 212.617 412.818 213.814 412.301C214.886 411.837 216.015 411.35 217.082 410.884C217.557 410.679 217.601 410.204 217.413 409.844C217.228 409.481 216.824 409.221 216.394 409.408C215.86 409.634 215.333 409.857 214.789 410.074C214.231 410.289 213.674 410.508 213.113 410.725C211.97 411.16 210.79 411.609 209.623 412.131C209.14 412.349 209.105 412.823 209.282 413.19C209.372 413.375 209.515 413.528 209.699 413.609C209.874 413.7 210.071 413.715 210.281 413.622Z" fill="#161921"/>
<path d="M222.392 408.017C222.924 407.649 223.46 407.283 223.992 406.915C224.521 406.544 225.041 406.164 225.53 405.739C226.392 405 227.321 404.236 228.274 403.621C229.112 403.078 228.18 401.745 227.347 402.281C226.328 402.938 225.357 403.682 224.394 404.441C223.429 405.196 222.462 405.974 221.463 406.673C220.658 407.235 221.562 408.592 222.392 408.017Z" fill="#161921"/>
<path d="M233.262 400.382C233.529 400.182 233.779 399.995 234.032 399.815L234.806 399.272C235.327 398.91 235.849 398.543 236.343 398.139C237.219 397.425 238.18 396.699 239.15 396.09C239.58 395.82 239.557 395.343 239.319 395.012C239.082 394.681 238.652 394.48 238.239 394.736C237.227 395.372 236.234 396.072 235.241 396.809C234.747 397.176 234.249 397.555 233.758 397.939L232.282 399.083C231.495 399.673 232.456 400.987 233.262 400.382Z" fill="#161921"/>
<path d="M243.958 392.408C244.891 391.48 245.823 390.572 246.62 389.566C247.317 388.676 248.088 387.757 248.916 386.985C249.645 386.309 248.499 385.154 247.77 385.83C246.877 386.663 246.058 387.579 245.258 388.512C244.452 389.444 243.674 390.394 242.812 391.253C242.464 391.601 242.569 392.059 242.853 392.353C243.132 392.649 243.601 392.765 243.958 392.408Z" fill="#161921"/>
<path d="M253.312 383.037C254.236 382.129 255.203 381.253 256.016 380.243C256.729 379.355 257.499 378.427 258.314 377.638C258.676 377.292 258.557 376.832 258.263 376.553C257.967 376.27 257.503 376.165 257.142 376.506C255.406 378.188 253.918 380.16 252.17 381.881C251.463 382.573 252.604 383.735 253.312 383.037Z" fill="#161921"/>
<path d="M262.556 373.46C262.989 372.972 263.42 372.48 263.848 371.981C264.271 371.484 264.662 370.958 265.025 370.413C265.342 369.933 265.652 369.429 265.988 368.949C266.327 368.467 266.655 367.981 267.014 367.536C267.642 366.745 266.311 365.805 265.706 366.57C265.331 367.037 264.983 367.529 264.627 368.015C264.271 368.5 263.935 369.008 263.576 369.496C263.218 369.987 262.875 370.489 262.497 370.968C262.125 371.448 261.749 371.93 261.345 372.385C260.677 373.118 261.883 374.209 262.556 373.46Z" fill="#161921"/>
<path d="M270.633 362.823C271.356 361.748 272.128 360.695 272.73 359.554C273.26 358.55 273.847 357.504 274.52 356.603C275.113 355.812 273.788 354.868 273.183 355.67C271.714 357.632 270.653 359.879 269.283 361.91C268.73 362.732 270.074 363.652 270.633 362.823Z" fill="#161921"/>
<path d="M278.075 351.835C278.778 350.739 279.517 349.647 280.056 348.455C280.527 347.408 281.026 346.309 281.599 345.317C282.096 344.44 280.645 343.699 280.162 344.55C278.963 346.627 278.025 348.9 276.705 350.956C276.169 351.783 277.526 352.682 278.075 351.835Z" fill="#161921"/>
<path d="M284.6 340.259C285.241 339.148 285.954 338.061 286.485 336.872C286.953 335.827 287.46 334.734 288.03 333.737C288.281 333.3 288.041 332.892 287.68 332.707C287.319 332.523 286.84 332.55 286.595 332.974C285.402 335.044 284.422 337.306 283.19 339.446C282.691 340.319 284.109 341.113 284.6 340.259Z" fill="#161921"/>
<path d="M290.703 328.335C291.139 327.093 291.581 325.845 291.813 324.564C292.018 323.44 292.242 322.261 292.599 321.189C292.912 320.25 291.357 319.774 291.036 320.726C290.653 321.89 290.385 323.083 290.112 324.273C289.843 325.462 289.564 326.651 289.166 327.795C289.006 328.259 289.299 328.626 289.68 328.769C290.062 328.911 290.538 328.816 290.703 328.335Z" fill="#161921"/>
<path d="M294.634 315.655C295.028 314.421 295.477 313.187 295.714 311.908C295.924 310.782 296.16 309.601 296.493 308.509C296.78 307.546 295.204 307.146 294.921 308.083C294.218 310.383 293.834 312.82 293.084 315.154C292.783 316.1 294.33 316.603 294.634 315.655Z" fill="#161921"/>
<path d="M298.1 302.751C298.343 301.465 298.606 300.173 298.656 298.87C298.7 297.727 298.76 296.525 298.945 295.406C299.114 294.426 297.5 294.206 297.331 295.187C296.927 297.584 296.947 300.055 296.498 302.446C296.409 302.93 296.756 303.251 297.157 303.332C297.558 303.414 298.012 303.247 298.1 302.751Z" fill="#161921"/>
<path d="M300.055 289.602C300.158 288.945 300.237 288.287 300.3 287.623C300.334 287.292 300.34 286.961 300.352 286.632C300.359 286.302 300.365 285.971 300.335 285.641C300.297 285.06 300.257 284.467 300.218 283.874C300.187 283.281 300.155 282.693 300.156 282.116C300.161 281.611 299.738 281.379 299.335 281.4C298.925 281.42 298.536 281.687 298.531 282.174C298.532 282.473 298.536 282.771 298.546 283.07L298.57 283.967C298.598 284.565 298.603 285.163 298.625 285.765C298.626 286.364 298.634 286.968 298.606 287.573C298.576 288.174 298.539 288.779 298.445 289.371C298.306 290.327 299.907 290.623 300.055 289.602Z" fill="#161921"/>
<path d="M299.879 276.123C299.775 275.475 299.7 274.822 299.582 274.176C299.469 273.528 299.331 272.888 299.137 272.263C298.8 271.167 298.449 270.008 298.234 268.891C298.04 267.906 296.457 268.279 296.647 269.248C296.873 270.433 297.195 271.607 297.496 272.786C297.653 273.374 297.798 273.965 297.931 274.561C298.068 275.155 298.174 275.752 298.269 276.354C298.396 277.326 300.01 277.131 299.879 276.123Z" fill="#161921"/>
<path d="M296.919 263.049C296.712 262.426 296.549 261.78 296.295 261.172C296.055 260.557 295.8 259.948 295.501 259.363C295.255 258.843 294.933 258.338 294.668 257.809C294.392 257.286 294.14 256.755 293.919 256.222C293.484 255.304 292.039 256.05 292.454 256.927C292.681 257.48 292.931 258.026 293.196 258.564C293.461 259.102 293.75 259.633 293.988 260.189L294.743 261.843L294.928 262.261L295.086 262.687C295.186 262.973 295.285 263.259 295.378 263.549C295.673 264.482 297.23 264.02 296.919 263.049Z" fill="#161921"/>
<path d="M291.248 250.845C290.885 250.296 290.517 249.746 290.153 249.194C289.967 248.92 289.78 248.651 289.585 248.386C289.379 248.126 289.158 247.884 288.934 247.643C288.536 247.223 288.134 246.787 287.748 246.338C287.359 245.891 286.946 245.469 286.592 245.018C285.957 244.225 284.751 245.32 285.357 246.076C285.545 246.308 285.736 246.538 285.934 246.764C286.132 246.991 286.332 247.212 286.518 247.449C286.898 247.915 287.291 248.369 287.686 248.828C287.883 249.06 288.094 249.275 288.274 249.52L288.821 250.242C289.183 250.726 289.543 251.216 289.878 251.718C290.371 252.551 291.769 251.723 291.248 250.845Z" fill="#161921"/>
<path d="M282.615 240.505L281.892 239.827L281.531 239.49L281.15 239.177C280.638 238.76 280.111 238.359 279.563 237.998C279.09 237.667 278.565 237.386 278.065 237.064C277.566 236.746 277.079 236.414 276.624 236.064C276.209 235.773 275.777 235.975 275.554 236.314C275.331 236.654 275.311 237.13 275.708 237.412C276.181 237.78 276.667 238.127 277.167 238.458L277.922 238.954C278.179 239.114 278.413 239.303 278.661 239.472L280.133 240.534C280.382 240.707 280.611 240.904 280.841 241.101C281.07 241.297 281.297 241.5 281.518 241.706C282.232 242.365 283.364 241.198 282.615 240.505Z" fill="#161921"/>
<path d="M271.618 232.74C271.037 232.432 270.443 232.144 269.85 231.857C269.254 231.574 268.654 231.29 268.031 231.1C266.94 230.748 265.791 230.374 264.739 229.919C263.808 229.521 263.248 231.052 264.147 231.433C265.247 231.91 266.382 232.319 267.523 232.742C268.098 232.948 268.647 233.194 269.207 233.425C269.764 233.667 270.324 233.898 270.86 234.182C271.712 234.661 272.509 233.241 271.618 232.74Z" fill="#161921"/>
<path d="M259.112 227.792C257.83 227.463 256.524 227.142 255.197 227.089C254.617 227.071 254.018 227.053 253.423 227.034C252.836 227.02 252.248 226.987 251.676 226.933C251.177 226.883 250.904 227.271 250.88 227.675C250.858 228.083 251.083 228.508 251.568 228.556C252.166 228.616 252.766 228.655 253.363 228.688L254.252 228.742L255.144 228.809C255.737 228.862 256.336 228.925 256.934 229.013C257.527 229.102 258.119 229.215 258.703 229.365C259.177 229.483 259.518 229.167 259.629 228.769C259.747 228.386 259.609 227.917 259.112 227.792Z" fill="#161921"/>
<path d="M245.713 226.522C244.406 226.543 243.086 226.538 241.803 226.749C240.673 226.938 239.483 227.124 238.345 227.179C237.347 227.226 237.49 228.846 238.476 228.8C240.891 228.685 243.301 228.19 245.738 228.152C246.722 228.139 246.725 226.51 245.713 226.522Z" fill="#161921"/>
<path d="M232.408 227.443C231.105 227.599 229.775 227.737 228.512 228.141C227.958 228.322 227.393 228.504 226.825 228.692C226.261 228.869 225.689 229.058 225.143 229.198C224.176 229.452 224.653 231.012 225.608 230.761C226.202 230.606 226.757 230.438 227.33 230.271C227.898 230.101 228.473 229.937 229.05 229.777C230.21 229.467 231.392 229.201 232.595 229.058C233.573 228.952 233.418 227.329 232.408 227.443Z" fill="#161921"/>
<path d="M219.396 230.776C218.164 231.224 216.906 231.658 215.77 232.32C215.271 232.607 214.754 232.902 214.242 233.2C213.716 233.496 213.191 233.787 212.679 234.075C212.23 234.332 212.234 234.81 212.46 235.146C212.685 235.488 213.113 235.704 213.521 235.473C214.027 235.192 214.51 234.937 215.054 234.65C215.585 234.37 216.118 234.089 216.649 233.81C217.72 233.254 218.816 232.728 219.958 232.312C220.875 231.978 220.35 230.433 219.396 230.776Z" fill="#161921"/>
<path d="M207.717 237.481C207.22 237.89 206.715 238.282 206.221 238.668C205.721 239.061 205.237 239.432 204.752 239.845C203.882 240.579 202.945 241.343 201.995 241.974C201.159 242.539 202.137 243.844 202.943 243.3C203.94 242.635 204.905 241.898 205.878 241.149C206.885 240.368 207.807 239.52 208.751 238.734C209.525 238.1 208.481 236.847 207.717 237.481Z" fill="#161921"/>
<path d="M197.374 246.022C196.591 247.108 195.86 248.168 195.228 249.233C194.95 249.701 194.637 250.161 194.291 250.586C193.92 251.052 193.529 251.496 193.131 251.916C192.452 252.681 193.722 253.699 194.36 252.982C194.772 252.55 195.161 252.121 195.558 251.652C195.994 251.162 196.368 250.63 196.72 250.1C197.416 249.035 197.995 247.947 198.698 246.975C198.977 246.584 198.807 246.149 198.483 245.895C198.164 245.647 197.675 245.601 197.374 246.022Z" fill="#161921"/>
<path d="M189.337 256.593C188.97 257.14 188.634 257.708 188.289 258.271C187.956 258.837 187.658 259.428 187.397 260.027C187.181 260.561 186.952 261.106 186.714 261.643C186.483 262.185 186.227 262.712 185.957 263.214C185.489 264.103 186.956 264.803 187.417 263.936C187.703 263.403 187.974 262.868 188.227 262.315C188.494 261.773 188.737 261.22 188.997 260.673C189.265 260.131 189.512 259.576 189.801 259.041C190.087 258.508 190.371 257.971 190.708 257.467C191.234 256.655 189.89 255.735 189.337 256.593Z" fill="#161921"/>
<path d="M183.191 268.47C182.655 269.652 182.071 270.811 181.663 272.034C181.482 272.574 181.288 273.116 181.079 273.665C180.873 274.217 180.642 274.759 180.395 275.277C179.974 276.197 181.485 276.811 181.889 275.922C182.147 275.38 182.391 274.836 182.617 274.278C182.852 273.716 183.084 273.141 183.303 272.568C183.744 271.417 184.169 270.263 184.674 269.148C185.082 268.239 183.604 267.563 183.191 268.47Z" fill="#161921"/>
<path d="M178.033 280.775C177.828 281.396 177.611 282.018 177.436 282.651C177.344 282.966 177.256 283.283 177.178 283.599C177.105 283.918 177.044 284.24 176.991 284.562C176.942 284.845 176.895 285.132 176.849 285.423C176.804 285.713 176.759 286.004 176.704 286.294C176.653 286.583 176.593 286.872 176.531 287.157C176.475 287.444 176.411 287.726 176.34 288.002C176.087 288.98 177.682 289.306 177.927 288.36C178.073 287.778 178.206 287.189 178.333 286.599C178.455 286.006 178.577 285.414 178.697 284.818C178.812 284.22 178.945 283.631 179.088 283.036C179.223 282.442 179.396 281.86 179.581 281.282C179.882 280.354 178.348 279.812 178.033 280.775Z" fill="#161921"/>
<path d="M174.964 293.809C174.859 294.452 174.761 295.102 174.671 295.747C174.586 296.394 174.533 297.049 174.518 297.698C174.515 298.271 174.511 298.859 174.483 299.445C174.46 300.033 174.426 300.618 174.356 301.184C174.239 302.175 175.859 302.309 175.974 301.323C176.119 300.124 176.173 298.911 176.237 297.698C176.278 297.091 176.302 296.479 176.358 295.875C176.417 295.268 176.467 294.661 176.571 294.06C176.726 293.09 175.125 292.813 174.964 293.809Z" fill="#161921"/>
<path d="M173.614 307.069C173.516 308.359 173.367 309.657 173.42 310.954C173.466 312.093 173.494 313.296 173.393 314.427C173.305 315.421 174.929 315.507 175.017 314.521C175.236 312.104 175.052 309.638 175.234 307.193C175.309 306.2 173.687 306.072 173.614 307.069Z" fill="#161921"/>
<path d="M172.833 320.334C172.785 321.631 172.697 322.949 172.836 324.253C172.901 324.824 172.961 325.411 173.017 326C173.068 326.588 173.115 327.177 173.13 327.75C173.17 328.768 174.792 328.615 174.754 327.647C174.74 327.05 174.704 326.455 174.666 325.856C174.627 325.254 174.587 324.651 174.547 324.049C174.469 322.839 174.413 321.618 174.459 320.395C174.504 319.409 172.875 319.33 172.833 320.334Z" fill="#161921"/>
<path d="M173.73 333.781L173.942 334.711L174.137 335.645C174.265 336.267 174.404 336.893 174.583 337.507C174.895 338.588 175.174 339.751 175.301 340.877C175.414 341.866 177.022 341.632 176.909 340.643C176.771 339.431 176.523 338.22 176.23 337.013C176.084 336.41 175.928 335.807 175.773 335.203C175.617 334.6 175.453 333.997 175.312 333.395C175.102 332.46 173.502 332.763 173.73 333.781Z" fill="#161921"/>
<path d="M175.977 346.795C176.103 347.441 176.226 348.088 176.382 348.738C176.538 349.387 176.732 350.021 176.98 350.633C177.416 351.706 177.895 352.818 178.229 353.907C178.523 354.864 180.059 354.325 179.767 353.381C179.412 352.225 178.97 351.103 178.566 349.967C178.359 349.399 178.171 348.831 178.001 348.254C177.835 347.674 177.687 347.086 177.572 346.489C177.393 345.524 175.791 345.797 175.977 346.795Z" fill="#161921"/>
<path d="M179.83 359.561C180.011 360.17 180.171 360.799 180.348 361.419C180.522 362.04 180.718 362.66 180.956 363.263C181.376 364.321 181.804 365.45 182.1 366.554C182.228 367.042 182.688 367.158 183.073 367.036C183.461 366.911 183.781 366.555 183.655 366.08C183.344 364.919 182.951 363.768 182.548 362.608L181.95 360.865C181.753 360.279 181.57 359.694 181.391 359.098C181.249 358.612 180.78 358.496 180.393 358.615C180.005 358.739 179.694 359.096 179.83 359.561Z" fill="#161921"/>
<path d="M183.885 372.299C184.149 372.898 184.4 373.489 184.667 374.086C184.937 374.678 185.226 375.264 185.557 375.824C186.142 376.808 186.753 377.852 187.235 378.889C187.665 379.804 189.102 379.044 188.689 378.161C188.188 377.07 187.609 376.005 187.029 374.931C186.74 374.391 186.451 373.851 186.169 373.307C185.891 372.762 185.619 372.209 185.375 371.65C184.994 370.756 183.479 371.348 183.885 372.299Z" fill="#161921"/>
<path d="M189.968 384.243C190.33 384.791 190.723 385.362 191.111 385.879C191.497 386.392 191.89 386.902 192.324 387.382C193.079 388.224 193.856 389.142 194.49 390.087C195.048 390.919 196.362 389.963 195.814 389.141C195.143 388.131 194.376 387.171 193.596 386.217L192.413 384.791C192.023 384.316 191.661 383.85 191.33 383.345C191.065 382.941 190.593 382.947 190.247 383.164C189.897 383.38 189.685 383.815 189.968 384.243Z" fill="#161921"/>
<path d="M197.835 395.014C198.603 395.988 199.266 397.098 200.153 398.08C200.93 398.944 201.776 399.854 202.626 400.699C203 401.071 203.458 400.93 203.718 400.617C203.978 400.305 204.062 399.838 203.74 399.513C203.344 399.115 202.958 398.703 202.569 398.265C202.182 397.83 201.8 397.379 201.414 396.912C200.648 395.978 199.888 394.992 199.107 394.002C198.795 393.607 198.325 393.671 198.004 393.918C197.685 394.168 197.527 394.627 197.835 395.014Z" fill="#161921"/>
<path d="M207.227 404.51C207.7 404.878 208.212 405.323 208.718 405.729C209.223 406.14 209.755 406.524 210.305 406.871C210.79 407.172 211.294 407.483 211.783 407.81C212.274 408.132 212.762 408.464 213.209 408.817C213.61 409.125 214.045 408.94 214.276 408.606C214.51 408.27 214.545 407.795 214.157 407.495C213.685 407.122 213.19 406.775 212.696 406.427C212.202 406.074 211.693 405.744 211.196 405.393C210.696 405.044 210.188 404.707 209.699 404.344C209.202 403.983 208.729 403.616 208.222 403.219C207.814 402.906 207.369 403.091 207.13 403.416C206.89 403.75 206.854 404.221 207.227 404.51Z" fill="#161921"/>
<path d="M218.063 412.33L218.91 412.835L219.78 413.313C220.357 413.632 220.962 413.905 221.577 414.136C222.113 414.347 222.685 414.521 223.238 414.738C223.787 414.956 224.352 415.143 224.872 415.385C225.335 415.597 225.718 415.291 225.854 414.917C225.998 414.53 225.904 414.075 225.464 413.871C224.926 413.619 224.36 413.423 223.811 413.187C223.26 412.955 222.695 412.75 222.144 412.51L221.311 412.159C221.033 412.038 220.762 411.904 220.489 411.776C220.215 411.644 219.945 411.513 219.673 411.376C219.405 411.231 219.145 411.082 218.883 410.93C218.044 410.43 217.181 411.811 218.063 412.33Z" fill="#161921"/>
<path d="M230.551 417.426C231.197 417.562 231.859 417.723 232.471 417.84C233.093 417.966 233.72 418.084 234.356 418.166C235.473 418.307 236.657 418.506 237.758 418.812C238.728 419.078 239.087 417.488 238.14 417.229C236.98 416.907 235.778 416.662 234.557 416.454C233.946 416.35 233.331 416.253 232.713 416.162C232.084 416.077 231.51 415.963 230.918 415.841C230.44 415.743 230.109 416.069 230.011 416.465C229.902 416.857 230.047 417.323 230.551 417.426Z" fill="#161921"/>
<path d="M243.739 419.845C245.05 419.868 246.332 419.916 247.578 419.857C247.848 419.844 248.138 419.835 248.436 419.831C248.729 419.829 249.023 419.826 249.319 419.819C249.908 419.818 250.496 419.823 251.065 419.865C252.072 419.924 252.09 418.296 251.116 418.238C250.519 418.197 249.921 418.179 249.318 418.163C248.712 418.149 248.126 418.139 247.48 418.136C246.217 418.144 244.98 418.239 243.766 418.217C242.789 418.198 242.72 419.825 243.739 419.845Z" fill="#161921"/>
<path d="M257.038 420.086C258.343 420.025 259.663 419.984 260.944 419.723C262.069 419.491 263.252 419.253 264.389 419.134C265.393 419.024 265.139 417.415 264.167 417.523C262.971 417.643 261.781 417.849 260.58 418.041C259.98 418.139 259.379 418.224 258.773 418.302C258.172 418.378 257.564 418.434 256.957 418.463C255.977 418.501 256.028 420.13 257.038 420.086Z" fill="#161921"/>
<path d="M270.312 418.353C271.586 418.077 272.882 417.827 274.101 417.372C275.174 416.973 276.305 416.562 277.412 416.293C278.383 416.057 277.933 414.487 276.971 414.723C274.622 415.293 272.347 416.245 269.966 416.762C269.006 416.966 269.324 418.566 270.312 418.353Z" fill="#161921"/>
<path d="M283.175 414.892C284.418 414.511 285.684 414.166 286.866 413.619C287.905 413.145 289.004 412.644 290.088 412.286C291.041 411.966 290.455 410.447 289.521 410.757C287.236 411.516 285.033 412.616 282.694 413.333C281.754 413.623 282.219 415.185 283.175 414.892Z" fill="#161921"/>
<path d="M295.714 410.29C296.313 410.017 296.915 409.752 297.501 409.457C298.088 409.163 298.672 408.843 299.207 408.482C300.154 407.847 301.161 407.182 302.172 406.671C303.06 406.218 302.267 404.796 301.389 405.243C300.308 405.79 299.271 406.429 298.231 407.065C297.71 407.381 297.197 407.694 296.665 407.988C296.135 408.286 295.597 408.56 295.043 408.81C294.595 409.015 294.533 409.48 294.695 409.854C294.86 410.222 295.253 410.497 295.714 410.29Z" fill="#161921"/>
<path d="M307.466 403.996C308.588 403.351 309.745 402.747 310.787 401.98C311.702 401.307 312.686 400.616 313.686 400.083C314.561 399.614 313.746 398.203 312.87 398.672C310.724 399.822 308.783 401.365 306.657 402.582C305.795 403.077 306.6 404.493 307.466 403.996Z" fill="#161921"/>
<path d="M318.946 397.352C319.499 397.01 320.073 396.69 320.623 396.331C321.169 395.974 321.719 395.616 322.218 395.195C322.658 394.828 323.121 394.463 323.581 394.099C324.041 393.736 324.519 393.4 324.994 393.084C325.832 392.532 324.881 391.209 324.059 391.747C323.557 392.082 323.057 392.42 322.57 392.783C322.086 393.145 321.599 393.509 321.111 393.873C320.626 394.24 320.129 394.594 319.638 394.951C319.14 395.302 318.63 395.631 318.112 395.95C317.69 396.207 317.681 396.677 317.887 397.029C318.087 397.384 318.513 397.614 318.946 397.352Z" fill="#161921"/>
<path d="M329.943 389.805C330.978 389.024 332.048 388.267 332.98 387.367C333.796 386.573 334.673 385.753 335.587 385.079C336.387 384.487 335.377 383.212 334.576 383.8C332.621 385.244 330.912 387.033 328.963 388.506C328.171 389.103 329.146 390.41 329.943 389.805Z" fill="#161921"/>
<path d="M340.383 381.625C341.397 380.822 342.456 380.052 343.372 379.129C344.175 378.318 345.035 377.474 345.928 376.769C346.713 376.148 345.651 374.913 344.879 375.523C342.983 377.02 341.296 378.826 339.375 380.344C338.593 380.96 339.6 382.241 340.383 381.625Z" fill="#161921"/>
<path d="M350.565 373.04C351.044 372.598 351.529 372.157 351.997 371.701C352.466 371.246 352.917 370.767 353.328 370.262C353.682 369.81 354.06 369.359 354.431 368.902C354.809 368.451 355.199 368.013 355.596 367.598C356.3 366.875 355.073 365.803 354.392 366.501C353.976 366.934 353.565 367.374 353.17 367.829C352.772 368.286 352.372 368.739 351.973 369.196C351.568 369.647 351.173 370.111 350.752 370.551C350.339 370.997 349.911 371.432 349.463 371.845C348.736 372.515 349.823 373.727 350.565 373.04Z" fill="#161921"/>
<path d="M359.661 363.262C360.488 362.264 361.358 361.295 362.067 360.219C362.691 359.274 363.379 358.291 364.141 357.455C364.811 356.726 363.579 355.657 362.902 356.399C361.253 358.207 359.965 360.335 358.407 362.222C357.776 362.982 359.024 364.029 359.661 363.262Z" fill="#161921"/>
<path d="M368.209 353.126C369.031 352.108 369.877 351.101 370.541 349.982C371.125 349.003 371.752 347.973 372.449 347.082C373.064 346.299 371.752 345.335 371.138 346.118C369.635 348.032 368.478 350.209 366.942 352.103C366.634 352.486 366.789 352.933 367.101 353.193C367.413 353.454 367.893 353.518 368.209 353.126Z" fill="#161921"/>
<path d="M376.191 342.519C376.585 342 376.979 341.481 377.374 340.961C377.768 340.442 378.12 339.894 378.444 339.328C378.724 338.83 379.019 338.324 379.331 337.824C379.641 337.329 379.955 336.833 380.292 336.375C380.886 335.569 379.537 334.657 378.95 335.449C378.589 335.933 378.259 336.443 377.921 336.947C377.586 337.454 377.261 337.966 376.937 338.486C376.616 339.005 376.297 339.527 375.95 340.031C375.609 340.537 375.263 341.041 374.894 341.529C374.3 342.325 375.586 343.321 376.191 342.519Z" fill="#161921"/>
<path d="M383.801 331.589C384.152 331.041 384.504 330.492 384.852 329.946C385.202 329.394 385.523 328.83 385.799 328.242C386.042 327.725 386.297 327.194 386.568 326.678C386.845 326.163 387.12 325.645 387.424 325.167C387.957 324.323 386.55 323.505 386.02 324.338C385.696 324.849 385.399 325.378 385.097 325.906C384.8 326.435 384.512 326.974 384.232 327.518C383.952 328.062 383.664 328.601 383.364 329.132C383.063 329.663 382.757 330.193 382.431 330.71C381.898 331.544 383.26 332.436 383.801 331.589Z" fill="#161921"/>
<path d="M390.604 320.152C391.221 319.012 391.915 317.897 392.392 316.69C392.813 315.627 393.294 314.529 393.84 313.531C394.327 312.66 392.878 311.914 392.393 312.779C391.81 313.841 391.283 314.94 390.784 316.057C390.282 317.171 389.761 318.28 389.176 319.358C388.941 319.791 389.167 320.206 389.526 320.406C389.882 320.607 390.363 320.593 390.604 320.152Z" fill="#161921"/>
<path d="M396.758 308.373C397.325 307.207 397.957 306.06 398.384 304.837C398.76 303.76 399.188 302.638 399.7 301.625C400.15 300.736 398.675 300.049 398.227 300.932C397.678 302.015 397.206 303.141 396.754 304.279C396.527 304.847 396.291 305.414 396.054 305.978C395.816 306.542 395.567 307.103 395.294 307.652C394.855 308.535 396.31 309.265 396.758 308.373Z" fill="#161921"/>
<path d="M402.433 296.367C402.704 295.777 402.972 295.184 403.243 294.594C403.506 293.999 403.753 293.398 403.944 292.779C404.288 291.691 404.67 290.551 405.142 289.517C405.561 288.611 404.058 287.985 403.645 288.883C403.141 289.983 402.715 291.127 402.301 292.275C401.888 293.426 401.456 294.577 400.957 295.694C400.535 296.592 402.015 297.272 402.433 296.367Z" fill="#161921"/>
<path d="M407.619 284.117C407.855 283.513 408.109 282.908 408.328 282.299C408.551 281.687 408.761 281.068 408.921 280.442C409.058 279.888 409.194 279.316 409.359 278.753C409.517 278.187 409.706 277.635 409.9 277.102C410.25 276.163 408.704 275.651 408.359 276.574C408.15 277.141 407.944 277.712 407.765 278.292C407.58 278.87 407.42 279.459 407.243 280.043L406.708 281.796C406.528 282.382 406.323 282.956 406.102 283.526C405.742 284.447 407.253 285.051 407.619 284.117Z" fill="#161921"/>
<path d="M411.968 271.524C412.152 270.9 412.339 270.274 412.527 269.648C412.706 269.022 412.844 268.38 412.947 267.742C413.03 267.173 413.139 266.601 413.234 266.018C413.336 265.44 413.458 264.866 413.611 264.318C413.879 263.351 412.288 262.995 412.025 263.945C411.865 264.525 411.728 265.116 411.606 265.708C411.484 266.301 411.361 266.899 411.241 267.495C411.117 268.093 411.014 268.695 410.87 269.289C410.73 269.882 410.58 270.474 410.411 271.063C410.275 271.538 410.59 271.894 410.978 272.015C411.367 272.126 411.83 272.005 411.968 271.524Z" fill="#161921"/>
<path d="M415.084 258.54C415.213 257.898 415.307 257.25 415.416 256.605C415.509 255.957 415.607 255.308 415.611 254.656C415.623 254.082 415.64 253.492 415.677 252.906C415.722 252.325 415.759 251.72 415.819 251.151C415.87 250.645 415.482 250.372 415.076 250.353C414.67 250.334 414.244 250.556 414.195 251.037C414.138 251.629 414.08 252.221 414.022 252.813C413.97 253.416 413.927 254.019 413.892 254.628C413.857 255.236 413.786 255.839 413.732 256.448C413.664 257.055 413.61 257.663 413.486 258.261C413.3 259.223 414.898 259.53 415.084 258.54Z" fill="#161921"/>
<path d="M416.234 245.211C416.247 244.577 416.278 243.925 416.323 243.335C416.373 242.728 416.449 242.118 416.492 241.487C416.569 240.383 416.748 239.189 416.987 238.057C417.091 237.557 416.732 237.241 416.332 237.187C415.929 237.13 415.494 237.306 415.391 237.773C415.143 238.923 414.92 240.13 414.77 241.382C414.698 242.009 414.65 242.647 414.624 243.292C414.604 243.948 414.613 244.553 414.599 245.177C414.587 246.184 416.214 246.194 416.234 245.211Z" fill="#161921"/>
<path d="M417.387 231.982C417.289 230.677 417.202 229.351 416.873 228.071C416.723 227.506 416.57 226.925 416.416 226.343C416.236 225.711 416.012 225.161 415.829 224.613C415.669 224.137 415.22 224.043 414.856 224.178C414.488 224.314 414.207 224.693 414.359 225.155C414.546 225.719 414.748 226.271 414.868 226.759C415.001 227.327 415.127 227.918 415.251 228.505C415.492 229.683 415.695 230.885 415.789 232.1C415.852 233.083 417.46 232.992 417.387 231.982Z" fill="#161921"/>
</g>
<path d="M529.493 411.649L522.048 398.985L523.817 395.55C524.162 394.88 523.858 394.034 523.144 393.664L520.065 392.078C519.4 391.737 518.612 391.926 518.226 392.489L514.733 386.547L516.117 383.86C516.486 383.145 516.203 382.257 515.484 381.887L512.406 380.301C511.971 380.075 511.47 380.096 511.06 380.309L507.32 373.949C509.931 368.878 511.774 365.299 511.836 365.176C514.52 359.962 516.285 350.03 513.022 348.35C509.759 346.665 502.703 353.868 500.018 359.082C499.957 359.206 498.114 362.781 495.503 367.855L488.156 368.496C488.09 368.04 487.82 367.621 487.38 367.395L484.302 365.809C483.588 365.439 482.701 365.723 482.332 366.442L480.949 369.129L474.09 369.729C474.324 369.088 474.02 368.336 473.359 367.991L470.281 366.405C469.566 366.035 468.696 366.281 468.356 366.951L466.587 370.386L451.966 371.664C450.357 371.804 448.957 372.823 448.325 374.31L448.206 374.594C447.094 377.224 448.756 380.199 451.576 380.622L461.928 382.175C461.62 383.864 461.71 385.216 462.576 385.672C463.722 386.276 465.273 384.879 466.763 382.902L475.169 384.164C475.108 385.248 475.313 386.058 475.929 386.383C476.799 386.839 477.936 386.079 479.118 384.755L486.252 385.824C481.474 395.106 477.263 403.283 477.168 403.468C476.204 405.346 475.305 407.93 474.705 410.552L459.018 412.294C458.39 412.364 457.827 412.713 457.487 413.243C456.653 414.533 457.437 416.255 458.956 416.473L473.831 418.585C472.091 423.047 470.355 428.327 471.684 428.783C472.99 429.231 476.134 424.941 478.646 421.079L488.977 431.964C490.036 433.077 491.891 432.72 492.458 431.29C492.692 430.702 492.647 430.041 492.339 429.49L484.655 415.688C486.436 413.679 488.025 411.443 488.989 409.57C489.084 409.385 493.295 401.208 498.073 391.926L503.08 397.119C502.69 398.849 502.732 400.222 503.606 400.661C504.226 400.974 505.005 400.67 505.851 399.992L511.753 406.114C511.006 408.477 510.772 410.548 511.926 411.135C512.8 411.579 513.949 410.868 515.148 409.635L522.417 417.175C524.4 419.23 527.786 418.86 529.276 416.427L529.436 416.165C530.298 414.772 530.314 413.042 529.493 411.649Z" fill="#277CF9"/>
<g opacity="0.2">
<path d="M32.998 363.405C32.998 356.501 27.4076 350.905 20.5118 350.905C13.6161 350.905 8.02568 356.501 8.02568 363.405C8.02568 363.405 7.89844 364.037 8.21039 365.558C8.35816 366.404 8.58801 367.226 8.89586 368.007C10.1806 371.754 13.2508 378.102 20.5118 388.132C27.7729 378.102 30.8431 371.754 32.1278 368.007C32.4357 367.226 32.6696 366.408 32.8133 365.558C33.1252 364.033 32.998 363.405 32.998 363.405ZM20.5077 370.986C16.3252 370.986 12.9348 367.592 12.9348 363.405C12.9348 359.218 16.3252 355.823 20.5077 355.823C24.6903 355.823 28.0807 359.218 28.0807 363.405C28.0848 367.592 24.6903 370.986 20.5077 370.986Z" fill="#161921"/>
<path d="M23.3029 393.466C23.3029 395.011 22.051 396.264 20.5076 396.264C18.9643 396.264 17.7124 395.011 17.7124 393.466C17.7124 391.921 18.9643 390.668 20.5076 390.668C22.051 390.668 23.3029 391.921 23.3029 393.466Z" fill="#161921"/>
</g>
</svg>
