<svg width="677" height="527" viewBox="0 0 677 527" fill="none" xmlns="http://www.w3.org/2000/svg">
<path d="M210.071 38.9505C210.157 38.6588 210.247 38.367 210.354 38.0876C210.457 37.8041 210.567 37.5412 210.695 37.2371C210.941 36.6454 211.179 36.0496 211.372 35.4374C211.544 34.9032 211.733 34.3567 211.951 33.8184C212.168 33.2843 212.402 32.7542 212.677 32.2652C212.911 31.8338 212.681 31.4352 212.324 31.2462C211.967 31.0572 211.483 31.0901 211.241 31.5338C210.645 32.6186 210.178 33.7691 209.747 34.9319L209.114 36.6783C209.012 36.9618 208.893 37.2864 208.798 37.5905C208.7 37.8986 208.614 38.2068 208.527 38.515C208.388 39.0163 208.72 39.3573 209.11 39.4518C209.5 39.5422 209.944 39.4025 210.071 38.9505Z" fill="#CACEDB"/>
<path d="M215.825 27.3631C216.174 26.833 216.548 26.3194 216.913 25.8017C217.278 25.284 217.648 24.7662 217.98 24.2238C218.276 23.7513 218.592 23.2706 218.937 22.7939C219.277 22.3214 219.63 21.8612 220.004 21.4338C220.661 20.6901 219.413 19.6546 218.756 20.4066C218.354 20.8668 217.972 21.3434 217.603 21.8283C217.233 22.3091 216.872 22.8227 216.519 23.3363L215.998 24.117L215.489 24.9018L214.479 26.4715C214.196 26.8906 214.409 27.3261 214.75 27.5398C215.087 27.7617 215.555 27.7699 215.825 27.3631Z" fill="#CACEDB"/>
<path d="M224.014 17.144C224.441 16.6715 224.888 16.2113 225.328 15.747C225.771 15.2909 226.198 14.8143 226.604 14.3294C226.785 14.1157 226.961 13.8938 227.154 13.6843C227.347 13.4747 227.544 13.2652 227.741 13.0597C228.135 12.6406 228.574 12.2749 229.005 11.9215C229.391 11.6257 229.342 11.1696 229.091 10.8491C228.845 10.5327 228.381 10.356 227.975 10.6683C227.491 11.0586 227.006 11.4572 226.567 11.8969C226.346 12.1146 226.12 12.3365 225.902 12.5584L225.27 13.2487C224.843 13.7048 224.453 14.1897 224.035 14.654C223.632 15.1265 223.222 15.5949 222.807 16.0551C222.147 16.8071 223.361 17.8754 224.014 17.144Z" fill="#CACEDB"/>
<path d="M233.906 8.92615L234.744 8.51525L235.162 8.3098L235.605 8.10435C236.192 7.82905 236.771 7.53731 237.325 7.20448C238.298 6.6169 239.337 6.02519 240.383 5.60197C241.299 5.23216 240.658 3.74471 239.726 4.11863C238.59 4.57884 237.506 5.1541 236.426 5.74168L234.809 6.6169C234.267 6.89631 233.705 7.21682 233.147 7.49623C232.248 8.00574 233.085 9.39868 233.906 8.92615Z" fill="#CACEDB"/>
<path d="M245.879 3.67574C247.033 3.29762 248.26 3.125 249.487 2.82908C250.567 2.56604 251.749 2.36056 252.886 2.27836C253.387 2.24137 253.592 1.81393 253.543 1.41115C253.493 1.00837 253.202 0.630251 252.713 0.663131C251.519 0.749441 250.296 0.917935 249.06 1.16042C248.445 1.28783 247.825 1.42348 247.213 1.58788C246.598 1.74817 245.986 1.92901 245.379 2.1304C244.878 2.2948 244.792 2.76744 244.931 3.14556C245.071 3.5319 245.448 3.81959 245.879 3.67574Z" fill="#CACEDB"/>
<path d="M258.677 1.63716C259.223 1.61661 259.794 1.70292 260.389 1.81389L260.869 1.90021C261.033 1.92898 261.202 1.95363 261.366 1.97418C261.698 2.01528 262.027 2.04403 262.351 2.05636C263.5 2.10157 264.682 2.14268 265.741 2.42216C266.205 2.54135 266.538 2.22077 266.64 1.82621C266.743 1.43576 266.595 0.963116 266.09 0.835706C265.475 0.675416 264.847 0.576777 264.231 0.502797C263.611 0.432927 263.004 0.387728 262.4 0.334298C262.101 0.309638 261.801 0.280859 261.505 0.247979C261.202 0.215099 260.931 0.178118 260.602 0.128798C259.966 0.0424882 259.297 -0.0191819 258.616 0.00547814C258.058 0.0301381 257.856 0.486354 257.918 0.885024C257.984 1.29602 258.267 1.6536 258.677 1.63716Z" fill="#CACEDB"/>
<path d="M271.081 4.5295C271.652 4.79248 272.21 5.08011 272.764 5.37595C273.323 5.66769 273.873 5.96355 274.439 6.23063C274.936 6.46895 275.445 6.72782 275.925 7.02778C276.409 7.32362 276.857 7.67288 277.279 8.01803C277.632 8.34675 278.076 8.20706 278.342 7.90299C278.609 7.59893 278.691 7.11817 278.31 6.76479C278.067 6.55935 277.817 6.36622 277.567 6.1731C277.316 5.97998 277.058 5.79098 276.791 5.62251C276.261 5.27324 275.711 4.96506 275.157 4.66511C274.595 4.37337 274.033 4.09395 273.462 3.83508C272.896 3.56389 272.321 3.31325 271.755 3.05028C271.291 2.84072 270.897 3.11602 270.737 3.48583C270.577 3.86386 270.642 4.32816 271.081 4.5295Z" fill="#CACEDB"/>
<path d="M281.088 12.3202C281.47 12.8215 281.86 13.3187 282.221 13.8365C282.406 14.0953 282.599 14.346 282.788 14.5966C282.972 14.8514 283.169 15.102 283.371 15.3445C283.736 15.7677 284.068 16.2361 284.405 16.7004C284.733 17.1729 285.029 17.666 285.292 18.1591C285.727 19.0343 287.167 18.2742 286.712 17.3661C286.42 16.8196 286.112 16.2813 285.768 15.7595C285.419 15.2417 285.07 14.724 284.684 14.2309L284.118 13.4831L283.527 12.7517C283.145 12.2545 282.726 11.7902 282.349 11.293C282.028 10.8985 281.548 10.9684 281.24 11.2314C280.932 11.5025 280.785 11.9422 281.088 12.3202Z" fill="#CACEDB"/>
<path d="M287.635 23.5129C287.886 24.1005 288.132 24.6922 288.374 25.2839C288.62 25.8715 288.875 26.4632 289.175 27.0343C289.692 28.0369 290.213 29.1176 290.554 30.19C290.706 30.6585 291.161 30.7612 291.543 30.6297C291.925 30.4941 292.241 30.1202 292.085 29.6435C291.711 28.4725 291.21 27.3466 290.693 26.2248L289.901 24.5443C289.642 23.9814 289.367 23.4225 289.129 22.8555C288.711 21.9392 287.233 22.6213 287.635 23.5129Z" fill="#CACEDB"/>
<path d="M292.097 35.8523C292.278 36.4645 292.425 37.0891 292.594 37.7054C292.75 38.3259 292.93 38.9381 293.135 39.5421C293.324 40.0722 293.488 40.6228 293.644 41.1775C293.784 41.7363 293.915 42.2993 293.977 42.854C294.1 43.8237 295.709 43.6018 295.582 42.591C295.508 41.9747 295.381 41.3665 295.245 40.7625C295.097 40.1585 294.937 39.5586 294.757 38.9628C294.584 38.3628 294.387 37.7753 294.207 37.1795C294.014 36.5878 293.837 35.9961 293.661 35.4003C293.525 34.9154 293.062 34.7921 292.672 34.9072C292.282 35.0264 291.962 35.3797 292.097 35.8523Z" fill="#CACEDB"/>
<path d="M294.519 48.7422C294.707 50.0284 294.859 51.3309 295.212 52.5841C295.368 53.1347 295.524 53.6977 295.66 54.2688C295.799 54.8441 295.918 55.3947 295.972 55.9494C296.025 56.4302 296.444 56.6274 296.85 56.5781C297.252 56.5288 297.642 56.2288 297.581 55.7193C297.552 55.407 297.499 55.0947 297.445 54.7866C297.392 54.4784 297.33 54.1866 297.269 53.8867C297.141 53.2909 297.002 52.6951 296.862 52.1034C296.583 50.9118 296.304 49.7202 296.124 48.508C295.984 47.5219 294.371 47.7479 294.519 48.7422Z" fill="#CACEDB"/>
<path d="M296.243 61.8168C296.353 63.1194 296.444 64.463 296.834 65.7492C297.014 66.3408 297.183 66.8216 297.281 67.3722C297.384 67.9187 297.433 68.4816 297.437 69.0405C297.441 70.0266 299.067 69.9814 299.062 68.9747C299.058 68.3543 299.013 67.7174 298.906 67.0723C298.857 66.7518 298.787 66.4272 298.705 66.1025L298.476 65.2314C298.332 64.6562 298.2 64.0727 298.098 63.4769C297.995 62.8852 297.913 62.2812 297.86 61.6772C297.782 60.6951 296.161 60.8101 296.243 61.8168Z" fill="#CACEDB"/>
<path d="M297.827 75.0273C297.921 75.6519 297.987 76.2723 298.036 76.8846L298.102 77.805C298.127 78.109 298.143 78.4131 298.176 78.75C298.237 79.3253 298.303 79.917 298.369 80.5087C298.43 81.0963 298.484 81.6838 298.504 82.2591C298.549 83.2658 300.171 83.1179 300.126 82.1399C300.105 81.54 300.06 80.9442 300.015 80.3443C299.965 79.7485 299.92 79.1486 299.887 78.5528C299.855 77.9365 299.797 77.279 299.715 76.6503C299.633 76.0176 299.53 75.3971 299.436 74.7766C299.272 73.7741 297.671 74.0699 297.827 75.0273Z" fill="#CACEDB"/>
<path d="M298.767 88.176C298.816 88.8129 298.853 89.4539 298.886 90.0867C298.931 90.7277 298.98 91.3975 299.103 92.0385C299.206 92.6055 299.317 93.1849 299.415 93.7683C299.506 94.3518 299.6 94.9312 299.645 95.5023C299.744 96.5049 301.353 96.2748 301.258 95.301C301.209 94.7011 301.127 94.1053 301.049 93.5054C300.963 92.9096 300.877 92.3096 300.795 91.7097C300.712 91.1057 300.639 90.5181 300.573 89.8977C300.511 89.2772 300.442 88.6609 300.392 88.0445C300.302 87.0419 298.685 87.194 298.767 88.176Z" fill="#CACEDB"/>
<path d="M300.29 101.423C300.515 102.705 300.708 104 301.09 105.241C301.427 106.33 301.759 107.484 301.94 108.602C302.096 109.584 303.692 109.276 303.536 108.29C303.151 105.882 302.321 103.544 301.895 101.136C301.718 100.166 300.113 100.437 300.29 101.423Z" fill="#CACEDB"/>
<path d="M302.826 114.478C303.11 115.756 303.368 117.054 303.857 118.274C304.288 119.347 304.743 120.473 305.1 121.57C305.256 122.051 305.72 122.145 306.102 121.997C306.479 121.849 306.779 121.475 306.631 121.015C305.905 118.759 304.94 116.508 304.415 114.124C304.205 113.163 302.609 113.492 302.826 114.478Z" fill="#CACEDB"/>
<path d="M307.448 127.142C308.101 128.28 308.733 129.422 309.496 130.449C309.829 130.901 310.165 131.374 310.473 131.859C310.789 132.344 311.044 132.837 311.319 133.363C311.783 134.279 313.182 133.445 312.751 132.594C312.489 132.089 312.193 131.501 311.873 130.979C311.553 130.445 311.212 129.928 310.867 129.414C310.174 128.391 309.463 127.388 308.86 126.332C308.38 125.482 306.947 126.258 307.448 127.142Z" fill="#CACEDB"/>
<path d="M314.43 138.561C314.849 139.074 315.263 139.596 315.698 140.093C315.92 140.336 316.15 140.578 316.38 140.812C316.61 141.051 316.852 141.277 317.106 141.482C317.55 141.856 318.001 142.238 318.453 142.62C318.904 143.002 319.335 143.405 319.75 143.795C320.476 144.502 321.547 143.274 320.846 142.596C320.41 142.181 319.979 141.766 319.532 141.367C319.076 140.973 318.65 140.553 318.194 140.155C317.747 139.748 317.324 139.321 316.893 138.898C316.482 138.458 316.072 138.014 315.694 137.546C315.115 136.777 313.802 137.739 314.43 138.561Z" fill="#CACEDB"/>
<path d="M324.133 147.855C325.159 148.66 326.165 149.503 327.281 150.164C327.77 150.456 328.271 150.76 328.759 151.081C329.005 151.241 329.243 151.405 329.482 151.57C329.72 151.738 329.97 151.907 330.2 152.079C330.405 152.231 330.619 152.264 330.803 152.211C330.992 152.153 331.152 152.018 331.263 151.845C331.374 151.672 331.431 151.471 331.415 151.274C331.403 151.072 331.316 150.883 331.127 150.74C330.894 150.563 330.66 150.403 330.413 150.222C330.167 150.041 329.921 149.864 329.67 149.692C329.166 149.347 328.661 149.01 328.148 148.673C327.126 148.003 326.103 147.325 325.143 146.573C324.375 145.961 323.349 147.226 324.133 147.855Z" fill="#CACEDB"/>
<path d="M335.4 155.206C336.008 155.461 336.615 155.728 337.235 155.954C337.547 156.069 337.855 156.176 338.171 156.279C338.483 156.378 338.803 156.456 339.123 156.53C339.686 156.661 340.264 156.78 340.835 156.924C341.405 157.068 341.976 157.212 342.514 157.393C343.47 157.697 343.901 156.127 342.965 155.827C342.395 155.634 341.812 155.478 341.233 155.313C340.65 155.157 340.067 155.001 339.484 154.841C338.897 154.688 338.319 154.512 337.744 154.331C337.169 154.146 336.603 153.936 336.045 153.702C335.154 153.312 334.46 154.787 335.4 155.206Z" fill="#CACEDB"/>
<path d="M348.178 159.176C348.802 159.336 349.43 159.5 350.058 159.661C350.678 159.817 351.338 159.956 351.987 160.035C353.136 160.17 354.347 160.289 355.48 160.487C355.981 160.573 356.28 160.207 356.326 159.804C356.375 159.398 356.182 158.962 355.706 158.876C354.536 158.67 353.354 158.514 352.164 158.321C351.568 158.222 350.977 158.115 350.37 157.996C349.766 157.877 349.167 157.745 348.572 157.597C347.612 157.351 347.209 158.929 348.178 159.176Z" fill="#CACEDB"/>
<path d="M361.411 161.185C362.622 161.247 363.858 161.53 365.159 161.612C366.324 161.686 367.552 161.764 368.713 161.834C369.23 161.867 369.485 161.465 369.481 161.058C369.481 160.651 369.239 160.236 368.771 160.207C368.192 160.166 367.621 160.125 367.039 160.071C366.443 160.01 365.848 159.952 365.249 159.89C364.034 159.759 362.778 159.623 361.501 159.557C360.972 159.533 360.726 159.94 360.717 160.347C360.713 160.552 360.771 160.753 360.898 160.91C361.013 161.07 361.181 161.173 361.411 161.185Z" fill="#CACEDB"/>
<path d="M374.747 161.691C375.387 161.604 376.032 161.522 376.672 161.436C377.312 161.346 377.949 161.243 378.577 161.087C379.681 160.819 380.855 160.56 381.983 160.445C382.977 160.343 382.751 158.732 381.766 158.83C380.559 158.954 379.356 159.175 378.154 159.414C376.951 159.648 375.736 159.903 374.529 160.071C373.557 160.207 373.745 161.826 374.747 161.691Z" fill="#CACEDB"/>
<path d="M387.898 159.825C388.226 159.768 388.534 159.714 388.842 159.669L389.778 159.537C390.406 159.451 391.038 159.361 391.662 159.225C392.766 158.987 393.952 158.777 395.093 158.674C395.598 158.629 395.795 158.193 395.734 157.791C395.672 157.388 395.381 157.014 394.896 157.055C393.706 157.162 392.503 157.334 391.284 157.54C390.677 157.643 390.061 157.754 389.45 157.873L387.615 158.222C386.646 158.391 386.905 159.998 387.898 159.825Z" fill="#CACEDB"/>
<path d="M401.049 157.577C402.301 157.174 403.545 156.788 404.71 156.254C405.737 155.777 406.841 155.309 407.928 154.997C408.885 154.725 408.388 153.176 407.432 153.448C406.258 153.784 405.113 154.228 403.976 154.697C402.835 155.161 401.71 155.654 400.553 156.028C400.085 156.18 399.97 156.636 400.089 157.026C400.204 157.417 400.569 157.733 401.049 157.577Z" fill="#CACEDB"/>
<path d="M413.638 153.476C414.873 153.086 416.134 152.745 417.316 152.215C418.354 151.746 419.462 151.27 420.546 150.937C421.026 150.793 421.129 150.329 420.993 149.947C420.858 149.56 420.493 149.256 420.016 149.396C417.706 150.107 415.485 151.187 413.145 151.927C412.201 152.223 412.69 153.776 413.638 153.476Z" fill="#CACEDB"/>
<path d="M426.223 149.141C426.83 148.903 427.438 148.66 428.045 148.41C428.648 148.159 429.235 147.867 429.806 147.547C430.307 147.263 430.812 146.955 431.329 146.68C431.85 146.404 432.363 146.121 432.884 145.887C433.804 145.468 433.044 144.025 432.158 144.432C431.612 144.679 431.078 144.958 430.541 145.229C430.003 145.501 429.473 145.8 428.932 146.072C428.39 146.347 427.856 146.639 427.302 146.893C426.752 147.152 426.198 147.411 425.632 147.633C424.704 147.982 425.283 149.503 426.223 149.141Z" fill="#CACEDB"/>
<path d="M438.249 143.331C439.382 142.702 440.548 142.115 441.603 141.371C442.53 140.718 443.528 140.052 444.537 139.555C445.424 139.119 444.673 137.677 443.77 138.117C441.57 139.197 439.604 140.718 437.461 141.905C436.595 142.386 437.375 143.816 438.249 143.331Z" fill="#CACEDB"/>
<path d="M449.869 136.921C450.994 136.263 452.147 135.627 453.169 134.809C454.064 134.09 455.008 133.338 455.969 132.713C456.81 132.159 455.854 130.84 455.037 131.378C453.026 132.685 451.158 134.283 449.048 135.516C448.195 136.009 448.995 137.426 449.869 136.921Z" fill="#CACEDB"/>
<path d="M460.939 129.57C462.015 128.871 463.143 128.226 464.157 127.409C465.048 126.69 465.996 125.946 466.957 125.317C467.379 125.042 467.351 124.569 467.113 124.241C466.875 123.912 466.435 123.719 466.025 123.986C464.022 125.288 462.121 126.858 460.053 128.206C459.211 128.756 460.114 130.108 460.939 129.57Z" fill="#CACEDB"/>
<path d="M471.792 121.718C472.744 120.81 473.705 119.897 474.493 118.862C475.186 117.954 475.921 117.005 476.726 116.212C477.432 115.517 476.262 114.387 475.543 115.09C474.673 115.953 473.893 116.894 473.109 117.831C472.33 118.767 471.541 119.7 470.667 120.538C470.314 120.88 470.409 121.34 470.684 121.64C470.959 121.94 471.426 122.071 471.792 121.718Z" fill="#CACEDB"/>
<path d="M481.052 112.205C481.963 111.285 482.923 110.389 483.716 109.358C484.413 108.45 485.16 107.505 485.953 106.683C486.646 105.956 485.423 104.883 484.746 105.59C483.075 107.32 481.626 109.317 479.898 111.055C479.201 111.762 480.35 112.912 481.052 112.205Z" fill="#CACEDB"/>
<path d="M490 102.282C490.8 101.247 491.621 100.215 492.257 99.0773C492.815 98.0788 493.415 97.0351 494.088 96.1229C494.683 95.3258 493.345 94.3971 492.75 95.1943C491.301 97.146 490.197 99.3567 488.711 101.284C488.411 101.674 488.575 102.118 488.896 102.373C489.216 102.627 489.696 102.685 490 102.282Z" fill="#CACEDB"/>
<path d="M497.712 91.4551C498.102 90.9168 498.472 90.3662 498.829 89.8033C499.009 89.5239 499.165 89.2321 499.325 88.9445C499.481 88.6528 499.637 88.361 499.76 88.0529C499.99 87.5187 500.224 86.9722 500.458 86.4257C500.7 85.8833 500.938 85.345 501.201 84.8314C501.435 84.3835 501.164 83.985 500.795 83.8206C500.421 83.6521 499.953 83.7138 499.728 84.1452C499.592 84.4123 499.461 84.6794 499.334 84.9506L498.948 85.76C498.701 86.3065 498.435 86.8407 498.18 87.3872C497.909 87.9214 497.642 88.4637 497.343 88.9897C497.043 89.5115 496.735 90.0334 496.382 90.5182C495.824 91.3072 497.117 92.2974 497.712 91.4551Z" fill="#CACEDB"/>
<path d="M503.676 79.3664C503.877 78.7418 504.107 78.1255 504.296 77.4968C504.489 76.8681 504.657 76.2353 504.768 75.5902C504.965 74.4602 505.179 73.2686 505.495 72.1756C505.77 71.21 504.189 70.8238 503.918 71.773C503.582 72.9317 503.336 74.1233 503.069 75.3108C502.942 75.9066 502.802 76.4983 502.65 77.09C502.502 77.6817 502.326 78.2611 502.137 78.8404C501.809 79.765 503.336 80.3238 503.676 79.3664Z" fill="#CACEDB"/>
<path d="M506.976 66.3738C507.075 65.7246 507.223 65.0754 507.272 64.418C507.338 63.7605 507.387 63.1031 507.387 62.4457C507.403 61.8704 507.346 61.2746 507.35 60.6829C507.342 60.0912 507.358 59.5036 507.403 58.9284C507.432 57.9134 505.807 57.9217 505.778 58.8914C505.729 59.4872 505.704 60.0871 505.696 60.687C505.688 61.2869 505.704 61.8909 505.663 62.495L505.585 64.3111L505.56 64.7672L505.507 65.2192C505.466 65.5192 505.425 65.8191 505.376 66.1191C505.215 67.0847 506.812 67.3806 506.976 66.3738Z" fill="#CACEDB"/>
<path d="M507.465 52.9251C507.391 52.2718 507.313 51.6143 507.239 50.9569C507.198 50.6282 507.153 50.3036 507.099 49.979C507.034 49.6543 506.948 49.338 506.857 49.0216C506.693 48.4669 506.533 47.8957 506.394 47.3205C506.25 46.7452 506.073 46.1823 505.963 45.6193C505.757 44.625 504.185 45.0523 504.382 46.0015C504.444 46.2932 504.509 46.5849 504.583 46.8767C504.657 47.1684 504.735 47.456 504.793 47.7519C504.92 48.3395 505.064 48.923 505.207 49.5106C505.277 49.8064 505.367 50.094 505.417 50.394L505.577 51.2856C505.679 51.8814 505.778 52.4813 505.848 53.0813C505.909 54.0469 507.53 53.9441 507.465 52.9251Z" fill="#CACEDB"/>
<path d="M504.468 39.7929L504.132 38.8601L503.964 38.3958L503.767 37.9438C503.5 37.3398 503.212 36.744 502.888 36.1728C502.617 35.6633 502.277 35.1744 501.977 34.6607C501.677 34.1512 501.394 33.6335 501.148 33.1158C500.91 32.6679 500.434 32.6514 500.081 32.8528C499.728 33.0541 499.494 33.4691 499.719 33.9006C499.974 34.4429 500.249 34.973 500.544 35.4948L500.992 36.2797C501.148 36.5385 501.271 36.8138 501.415 37.0768L502.244 38.6917C502.387 38.9587 502.502 39.2382 502.617 39.5176C502.732 39.797 502.843 40.0805 502.946 40.364C503.282 41.2762 504.821 40.7503 504.468 39.7929Z" fill="#CACEDB"/>
<path d="M498.197 27.8808C497.819 27.3425 497.421 26.8166 497.023 26.2906C496.62 25.7688 496.214 25.2428 495.746 24.7908C494.933 23.9814 494.08 23.1267 493.349 22.2433C492.701 21.4667 491.506 22.5761 492.134 23.3239C492.898 24.2484 493.723 25.1278 494.548 26.0235C494.966 26.4673 495.344 26.9357 495.738 27.3959C496.124 27.8644 496.518 28.3246 496.867 28.8218C497.409 29.6353 498.763 28.7314 498.197 27.8808Z" fill="#CACEDB"/>
<path d="M489.302 17.7932C488.309 16.9179 487.291 16.0386 486.133 15.3894C485.624 15.11 485.099 14.8224 484.578 14.5347C484.06 14.2553 483.551 13.9595 483.067 13.6513C482.644 13.3801 482.226 13.602 482.02 13.9512C481.815 14.3046 481.823 14.7854 482.234 15.0484C482.739 15.373 483.256 15.6811 483.773 15.9811L484.541 16.4331L485.304 16.8974C485.809 17.2138 486.314 17.5425 486.806 17.8918C487.295 18.241 487.771 18.6108 488.222 19.0094C488.592 19.3299 489.039 19.2025 489.318 18.8985C489.597 18.6108 489.688 18.1301 489.302 17.7932Z" fill="#CACEDB"/>
<path d="M477.94 10.5779C476.767 10.0027 475.593 9.39863 474.353 9.00417C473.261 8.65901 472.116 8.28509 471.078 7.81666C470.166 7.40576 469.559 8.91378 470.458 9.32057C472.662 10.3149 475.034 10.9683 477.222 12.0407C478.105 12.4763 478.848 11.0258 477.94 10.5779Z" fill="#CACEDB"/>
<path d="M465.668 5.3558C464.436 4.9037 463.189 4.42284 461.879 4.20912C461.305 4.1187 460.718 4.02415 460.127 3.93373C459.544 3.83509 458.949 3.74469 458.399 3.62139C457.422 3.40767 457.138 5.01467 458.103 5.22427C458.702 5.3558 459.273 5.45856 459.86 5.56953C460.443 5.67639 461.03 5.79145 461.617 5.91064C462.79 6.16135 463.964 6.4614 465.101 6.88062C466.021 7.22997 466.62 5.71337 465.668 5.3558Z" fill="#CACEDB"/>
<path d="M452.562 2.41738C451.261 2.25709 449.943 2.07215 448.63 2.14613C448.055 2.1749 447.46 2.20366 446.869 2.23654C446.265 2.2612 445.666 2.28177 445.079 2.30643C444.562 2.33109 444.349 2.75851 444.398 3.16129C444.443 3.56818 444.726 3.95452 445.194 3.93397C445.773 3.91342 446.319 3.90521 446.934 3.89699C447.534 3.88877 448.137 3.88055 448.736 3.87233C449.943 3.86411 451.158 3.89287 452.365 4.04083C453.333 4.16002 453.567 2.54479 452.562 2.41738Z" fill="#CACEDB"/>
<path d="M439.111 3.08733C438.483 3.22707 437.855 3.34628 437.239 3.46547C436.615 3.58877 436.016 3.69974 435.396 3.8477C434.288 4.10663 433.106 4.36145 431.973 4.49297C430.972 4.61627 431.251 6.22327 432.215 6.10408C433.406 5.96434 434.6 5.74652 435.807 5.52047C437.059 5.28209 438.266 4.94507 439.464 4.67381C440.441 4.46009 440.08 2.8695 439.111 3.08733Z" fill="#CACEDB"/>
<path d="M426.017 6.00045C424.827 6.61269 423.694 7.22492 422.648 7.88646C422.188 8.1782 421.699 8.4453 421.199 8.66718C420.657 8.91372 420.107 9.13149 419.561 9.32461C418.609 9.69853 419.278 11.1819 420.172 10.8326C420.735 10.6354 421.277 10.4299 421.843 10.1916C422.455 9.9533 423.029 9.64923 423.583 9.33695C424.688 8.70416 425.697 7.99741 426.764 7.45091C427.191 7.22903 427.236 6.76473 427.064 6.39081C426.892 6.02511 426.477 5.76213 426.017 6.00045Z" fill="#CACEDB"/>
<path d="M414.057 11.7694C413.482 12.0899 412.924 12.4433 412.361 12.7885C411.807 13.1418 411.274 13.5322 410.769 13.9472C410.334 14.3252 409.882 14.7073 409.427 15.0772C408.975 15.4552 408.507 15.8086 408.039 16.1332C407.218 16.7125 408.208 18.0028 409.012 17.4398C409.509 17.0947 409.993 16.7413 410.469 16.3633C410.954 16.0017 411.421 15.6196 411.902 15.2498C412.386 14.8882 412.858 14.506 413.359 14.1609C413.856 13.8157 414.352 13.4665 414.882 13.1706C415.719 12.6857 414.939 11.2558 414.057 11.7694Z" fill="#CACEDB"/>
<path d="M403.188 19.5602C402.174 20.3696 401.127 21.138 400.208 22.042C399.801 22.4405 399.383 22.835 398.948 23.2295C398.513 23.6281 398.061 24.0061 397.605 24.3553C396.813 24.984 397.88 26.2167 398.644 25.6086C399.12 25.2429 399.584 24.869 400.039 24.4745C400.503 24.0801 400.971 23.6733 401.427 23.2624C402.342 22.4365 403.245 21.6023 404.201 20.838C404.977 20.2135 403.968 18.9397 403.188 19.5602Z" fill="#CACEDB"/>
<path d="M393.004 28.1809C392.54 28.6411 392.064 29.0972 391.621 29.5821C391.395 29.8204 391.174 30.0628 390.96 30.3093C390.751 30.56 390.55 30.8189 390.357 31.0818C390.184 31.3119 390.012 31.5462 389.84 31.7845C389.667 32.0228 389.495 32.2611 389.314 32.4953C389.138 32.7295 388.953 32.9596 388.768 33.1856C388.588 33.4157 388.403 33.6376 388.214 33.8513C387.545 34.6073 388.818 35.6223 389.466 34.8909C389.86 34.4389 390.246 33.9746 390.628 33.5062C391.005 33.0336 391.383 32.5611 391.76 32.0844C392.134 31.6037 392.52 31.1394 392.918 30.6751C393.308 30.2066 393.727 29.767 394.153 29.3355C394.843 28.6452 393.722 27.4659 393.004 28.1809Z" fill="#CACEDB"/>
<path d="M384.352 38.3998C383.966 38.9257 383.584 39.4599 383.211 39.9941C382.841 40.5323 382.496 41.0912 382.189 41.6623C381.926 42.1718 381.655 42.6937 381.364 43.2032C381.076 43.7168 380.781 44.2222 380.461 44.6947C379.906 45.5248 381.29 46.3794 381.84 45.5535C382.513 44.5509 383.112 43.4949 383.72 42.443C384.032 41.9212 384.331 41.387 384.655 40.8734C384.984 40.3598 385.304 39.842 385.669 39.3531C386.248 38.56 384.947 37.5862 384.352 38.3998Z" fill="#CACEDB"/>
<path d="M377.128 49.6009C376.454 50.7062 375.732 51.7951 375.19 52.9744C374.714 54.0098 374.193 55.0946 373.589 56.0561C373.06 56.9026 374.468 57.7161 374.993 56.8779C376.286 54.8234 377.243 52.5429 378.515 50.4473C379.032 49.5968 377.645 48.7462 377.128 49.6009Z" fill="#CACEDB"/>
<path d="M370.408 61.065C369.776 62.1991 369.099 63.3332 368.631 64.5576C368.43 65.0959 368.217 65.6465 367.999 66.1971C367.777 66.7436 367.552 67.2901 367.305 67.8078C366.878 68.7324 368.393 69.3323 368.799 68.4529C369.058 67.9147 369.296 67.3682 369.534 66.8176C369.772 66.2629 370.01 65.7082 370.248 65.1534C370.729 64.0399 371.233 62.9264 371.829 61.858C372.317 60.9992 370.901 60.1898 370.408 61.065Z" fill="#CACEDB"/>
<path d="M365.101 73.4537L364.867 74.3782L364.617 75.2987C364.449 75.9109 364.288 76.5314 364.169 77.16C363.956 78.2654 363.677 79.4282 363.279 80.4883C362.93 81.4211 364.469 81.9429 364.818 81.0102C365.245 79.8679 365.573 78.6763 365.861 77.4682C366.004 76.8642 366.14 76.2561 366.275 75.6479C366.411 75.0398 366.538 74.4276 366.686 73.8277C366.924 72.899 365.36 72.4429 365.101 73.4537Z" fill="#CACEDB"/>
<path d="M361.194 86.0682C361.013 86.701 360.828 87.3338 360.672 87.983C360.516 88.6322 360.401 89.2855 360.344 89.943C360.245 91.0976 360.167 92.3056 359.97 93.4274C359.798 94.4136 361.411 94.6313 361.579 93.6575C361.789 92.4659 361.904 91.2661 362.06 90.0703C362.134 89.4704 362.224 88.8787 362.335 88.2871C362.45 87.6954 362.585 87.1037 362.753 86.5202C363.032 85.5792 361.481 85.0944 361.194 86.0682Z" fill="#CACEDB"/>
<path d="M358.829 99.1922C358.714 99.8168 358.571 100.45 358.448 101.082C358.32 101.715 358.214 102.356 358.152 103.001C358.045 104.135 357.914 105.335 357.676 106.453C357.569 106.946 357.926 107.258 358.325 107.324C358.727 107.39 359.174 107.217 359.277 106.736C359.527 105.561 359.7 104.357 359.868 103.141L360.126 101.317C360.217 100.704 360.319 100.1 360.43 99.4881C360.525 98.9909 360.159 98.6745 359.761 98.6047C359.359 98.5389 358.92 98.7156 358.829 99.1922Z" fill="#CACEDB"/>
<path d="M356.658 112.382C356.621 113.036 356.576 113.677 356.543 114.33C356.514 114.979 356.506 115.632 356.547 116.282C356.621 117.424 356.691 118.632 356.65 119.774C356.617 120.785 358.243 120.76 358.276 119.787C358.325 118.587 358.293 117.375 358.264 116.154C358.252 115.542 358.239 114.93 358.235 114.318C358.235 113.705 358.243 113.089 358.28 112.481C358.346 111.511 356.728 111.351 356.658 112.382Z" fill="#CACEDB"/>
<path d="M356.654 125.786C356.728 126.439 356.818 127.125 356.929 127.762C357.04 128.395 357.159 129.028 357.327 129.652C357.619 130.745 357.894 131.916 358.029 133.046C358.148 134.041 359.753 133.786 359.638 132.804C359.498 131.6 359.252 130.396 358.989 129.192L358.583 127.384C358.452 126.784 358.341 126.205 358.275 125.605C358.222 125.124 357.799 124.915 357.393 124.952C356.982 124.985 356.596 125.276 356.654 125.786Z" fill="#CACEDB"/>
<path d="M358.772 138.955C359.014 140.171 359.1 141.462 359.445 142.739C359.745 143.861 360.085 145.057 360.459 146.195C360.623 146.696 361.095 146.779 361.469 146.618C361.842 146.458 362.129 146.08 361.99 145.645C361.818 145.11 361.662 144.568 361.514 144.001C361.366 143.438 361.231 142.863 361.099 142.271C360.841 141.092 360.611 139.867 360.364 138.63C360.266 138.137 359.819 137.981 359.42 138.055C359.022 138.133 358.673 138.47 358.772 138.955Z" fill="#CACEDB"/>
<path d="M362.827 151.68C363.082 152.223 363.336 152.851 363.603 153.443C363.866 154.039 364.165 154.622 364.498 155.181C364.793 155.67 365.101 156.176 365.389 156.689C365.68 157.199 365.963 157.717 366.201 158.234C366.419 158.69 366.891 158.723 367.248 158.53C367.609 158.337 367.855 157.93 367.646 157.486C367.396 156.94 367.112 156.406 366.829 155.872C366.55 155.333 366.246 154.807 365.963 154.269C365.676 153.731 365.376 153.201 365.105 152.654C364.826 152.108 364.572 151.565 364.301 150.982C364.079 150.518 363.599 150.481 363.238 150.661C362.872 150.85 362.626 151.253 362.827 151.68Z" fill="#CACEDB"/>
<path d="M368.931 163.568L369.456 164.402L370.014 165.224C370.384 165.77 370.798 166.288 371.242 166.773C371.623 167.204 372.054 167.619 372.448 168.063C372.838 168.507 373.257 168.93 373.61 169.382C373.926 169.781 374.406 169.682 374.698 169.411C375.001 169.132 375.125 168.684 374.825 168.302C374.46 167.833 374.045 167.402 373.663 166.941C373.278 166.485 372.867 166.046 372.485 165.581L371.902 164.891C371.71 164.657 371.529 164.414 371.344 164.176C371.16 163.934 370.979 163.695 370.798 163.449C370.626 163.198 370.462 162.947 370.298 162.693C369.776 161.867 368.381 162.705 368.931 163.568Z" fill="#CACEDB"/>
<path d="M377.743 173.779C378.256 174.194 378.774 174.637 379.266 175.02C379.763 175.414 380.268 175.804 380.797 176.166C381.729 176.799 382.693 177.514 383.535 178.286C384.278 178.964 385.32 177.711 384.594 177.049C383.707 176.236 382.747 175.472 381.754 174.732C381.257 174.362 380.752 173.996 380.243 173.635C379.722 173.273 379.262 172.912 378.79 172.534C378.408 172.23 377.965 172.369 377.698 172.677C377.423 172.977 377.341 173.458 377.743 173.779Z" fill="#CACEDB"/>
<path d="M388.395 181.923C389.552 182.539 390.673 183.164 391.81 183.677C392.056 183.788 392.319 183.911 392.586 184.043C392.848 184.174 393.111 184.306 393.378 184.433C393.903 184.7 394.424 184.971 394.913 185.267C395.783 185.777 396.538 184.335 395.697 183.842C395.184 183.533 394.658 183.246 394.129 182.958C393.595 182.67 393.078 182.395 392.503 182.099C391.375 181.532 390.23 181.056 389.158 180.484C388.296 180.024 387.496 181.442 388.395 181.923Z" fill="#CACEDB"/>
<path d="M400.134 188.177C401.324 188.715 402.519 189.278 403.779 189.627C404.887 189.931 406.049 190.256 407.116 190.667C408.06 191.024 408.565 189.475 407.649 189.13C406.529 188.694 405.375 188.337 404.218 187.963C403.639 187.778 403.065 187.581 402.49 187.375C401.919 187.17 401.353 186.944 400.799 186.693C399.908 186.282 399.214 187.758 400.134 188.177Z" fill="#CACEDB"/>
<path d="M412.747 192.66C414.007 192.993 415.276 193.359 416.569 193.507C417.706 193.638 418.9 193.786 420.008 194.049C420.981 194.279 421.293 192.676 420.328 192.45C417.976 191.891 415.518 191.706 413.162 191.086C412.214 190.831 411.77 192.401 412.747 192.66Z" fill="#CACEDB"/>
<path d="M425.779 195.417C427.06 195.643 428.345 195.91 429.646 195.96C430.787 196.009 431.994 196.062 433.122 196.235C434.116 196.383 434.284 194.764 433.311 194.616C430.931 194.254 428.468 194.233 426.058 193.81C425.09 193.642 424.794 195.245 425.779 195.417Z" fill="#CACEDB"/>
<path d="M439.041 197.011C439.698 197.04 440.355 197.077 441.011 197.081C441.668 197.085 442.333 197.065 442.973 196.987C444.106 196.851 445.305 196.715 446.438 196.719C447.435 196.719 447.374 195.092 446.389 195.092C445.178 195.088 443.963 195.186 442.748 195.281C442.14 195.326 441.541 195.371 440.933 195.392C440.326 195.417 439.723 195.417 439.115 195.388C438.623 195.367 438.356 195.754 438.331 196.161C438.311 196.563 438.536 196.987 439.041 197.011Z" fill="#CACEDB"/>
<path d="M452.369 196.74C453.662 196.675 454.967 196.662 456.244 196.453C457.364 196.268 458.554 196.099 459.687 196.079C460.681 196.058 460.594 194.431 459.601 194.451C457.167 194.5 454.737 194.994 452.291 195.113C451.298 195.162 451.371 196.79 452.369 196.74Z" fill="#CACEDB"/>
<path d="M465.614 196.034C466.263 195.98 466.92 195.956 467.572 195.886C468.221 195.816 468.873 195.746 469.51 195.598C470.068 195.471 470.647 195.356 471.221 195.241C471.796 195.125 472.375 195.043 472.941 194.977C473.939 194.866 473.692 193.255 472.715 193.362C472.116 193.432 471.517 193.506 470.918 193.609C470.322 193.712 469.723 193.814 469.124 193.917C468.525 194.024 467.921 194.114 467.322 194.209C466.719 194.295 466.115 194.357 465.508 194.406C465.015 194.443 464.793 194.858 464.818 195.265C464.835 195.672 465.11 196.071 465.614 196.034Z" fill="#CACEDB"/>
<path d="M478.839 194.304C480.116 194.078 481.413 193.889 482.653 193.511C483.74 193.174 484.894 192.841 486.014 192.656C486.995 192.491 486.675 190.897 485.694 191.057C483.297 191.456 480.961 192.274 478.556 192.701C477.579 192.874 477.854 194.481 478.839 194.304Z" fill="#CACEDB"/>
<path d="M491.855 191.756C493.123 191.502 494.416 191.296 495.652 190.889C496.735 190.532 497.885 190.17 499.001 189.948C499.982 189.751 499.596 188.168 498.632 188.362C496.263 188.834 493.94 189.677 491.539 190.158C490.562 190.351 490.878 191.95 491.855 191.756Z" fill="#CACEDB"/>
<path d="M504.826 188.731C505.454 188.555 506.086 188.382 506.71 188.189C507.333 187.996 507.953 187.774 508.548 187.511C509.07 187.268 509.611 187.038 510.149 186.8C510.691 186.57 511.237 186.356 511.779 186.167C512.735 185.843 512.128 184.33 511.204 184.643C510.638 184.84 510.071 185.045 509.513 185.271C508.951 185.497 508.388 185.719 507.826 185.945C507.26 186.163 506.697 186.397 506.123 186.599C505.552 186.808 504.973 187.001 504.386 187.166C503.434 187.433 503.853 189.007 504.826 188.731Z" fill="#CACEDB"/>
<path d="M517.369 184.15C518.559 183.636 519.774 183.168 520.895 182.531C521.88 181.972 522.939 181.409 523.998 181.01C524.926 180.665 524.314 179.153 523.374 179.507C521.084 180.369 518.97 181.68 516.725 182.654C515.818 183.044 516.454 184.544 517.369 184.15Z" fill="#CACEDB"/>
<path d="M529.589 179.001C530.783 178.467 531.994 177.953 533.094 177.259C534.058 176.651 535.085 176.018 536.111 175.541C537.014 175.122 536.283 173.668 535.38 174.087C533.172 175.11 531.152 176.523 528.924 177.514C528.476 177.715 528.411 178.184 528.571 178.557C528.731 178.931 529.129 179.207 529.589 179.001Z" fill="#CACEDB"/>
<path d="M541.516 173.175C542.103 172.891 542.69 172.608 543.277 172.324C543.864 172.041 544.427 171.712 544.973 171.354C545.449 171.038 545.941 170.722 546.446 170.418C546.947 170.118 547.452 169.818 547.961 169.563C548.855 169.115 548.067 167.689 547.185 168.129C546.643 168.396 546.118 168.7 545.588 168.996C545.059 169.296 544.537 169.604 544.012 169.92C543.491 170.237 542.97 170.557 542.432 170.849C541.898 171.145 541.361 171.437 540.81 171.704C539.92 172.143 540.613 173.614 541.516 173.175Z" fill="#CACEDB"/>
<path d="M553.26 166.892C553.822 166.563 554.384 166.235 554.943 165.906C555.505 165.573 556.047 165.216 556.56 164.817C557.011 164.468 557.479 164.11 557.955 163.773C558.436 163.441 558.916 163.104 559.404 162.816C560.262 162.306 559.38 160.938 558.53 161.439C558.009 161.748 557.504 162.085 556.995 162.417C556.49 162.754 555.989 163.104 555.493 163.461C554.996 163.819 554.495 164.168 553.986 164.505C553.477 164.842 552.964 165.175 552.439 165.487C551.585 165.988 552.394 167.402 553.26 166.892Z" fill="#CACEDB"/>
<path d="M564.514 159.792C565.582 159.056 566.706 158.378 567.679 157.519C568.537 156.763 569.465 156.003 570.405 155.362C571.234 154.807 570.281 153.484 569.456 154.035C568.455 154.717 567.486 155.457 566.534 156.225C565.582 156.989 564.613 157.741 563.603 158.436C563.197 158.715 563.209 159.188 563.439 159.529C563.665 159.87 564.1 160.075 564.514 159.792Z" fill="#CACEDB"/>
<path d="M575.346 152.091C576.381 151.311 577.464 150.575 578.4 149.68C579.225 148.891 580.116 148.085 581.031 147.415C581.836 146.828 580.834 145.546 580.034 146.129C579.053 146.844 578.121 147.633 577.202 148.443C576.742 148.845 576.274 149.244 575.806 149.638C575.338 150.033 574.862 150.419 574.37 150.785C573.577 151.372 574.542 152.683 575.346 152.091Z" fill="#CACEDB"/>
<path d="M585.854 143.972C586.363 143.569 586.872 143.163 587.381 142.76C587.886 142.349 588.379 141.926 588.83 141.461C589.63 140.648 590.488 139.806 591.379 139.099C592.163 138.482 591.108 137.242 590.332 137.854C589.384 138.606 588.485 139.432 587.595 140.266C586.704 141.104 585.797 141.934 584.845 142.702C584.061 143.311 585.07 144.588 585.854 143.972Z" fill="#CACEDB"/>
<path d="M596.038 135.413C596.522 134.982 597.023 134.558 597.495 134.115C597.971 133.671 598.439 133.215 598.866 132.73C599.239 132.298 599.621 131.851 600.023 131.423C600.421 130.992 600.84 130.585 601.255 130.199C601.994 129.521 600.848 128.362 600.122 129.028C599.679 129.439 599.235 129.854 598.812 130.289C598.386 130.721 597.975 131.173 597.552 131.612L596.28 132.931C595.853 133.371 595.41 133.79 594.954 134.197C594.215 134.854 595.287 136.079 596.038 135.413Z" fill="#CACEDB"/>
<path d="M605.63 126.168C606.078 125.695 606.529 125.223 606.981 124.75C607.424 124.274 607.838 123.764 608.22 123.242C608.553 122.774 608.91 122.314 609.259 121.837C609.612 121.369 609.981 120.912 610.367 120.493C611.044 119.754 609.788 118.714 609.123 119.441C608.717 119.885 608.327 120.35 607.949 120.822C607.572 121.295 607.19 121.771 606.812 122.248C606.431 122.724 606.065 123.213 605.667 123.678C605.273 124.142 604.871 124.602 604.452 125.05C604.116 125.412 604.235 125.872 604.526 126.156C604.822 126.431 605.289 126.534 605.63 126.168Z" fill="#CACEDB"/>
<path d="M614.303 116.015C614.71 115.501 615.087 114.967 615.477 114.441C615.855 113.907 616.236 113.372 616.536 112.793C616.807 112.288 617.09 111.77 617.39 111.265C617.694 110.767 618.001 110.246 618.313 109.765C618.588 109.337 618.367 108.918 618.014 108.717C617.661 108.516 617.181 108.52 616.918 108.927C616.598 109.428 616.277 109.929 615.957 110.43C615.637 110.944 615.325 111.462 615.017 111.988C614.71 112.514 614.373 113.019 614.049 113.537C613.712 114.046 613.388 114.564 613.006 115.041C612.403 115.813 613.688 116.812 614.303 116.015Z" fill="#CACEDB"/>
<path d="M621.38 104.662C621.679 104.103 622.003 103.536 622.311 103.03C622.631 102.513 622.976 102.003 623.3 101.461C623.871 100.511 624.573 99.5294 625.299 98.6295C625.62 98.231 625.443 97.7872 625.111 97.5571C624.778 97.3229 624.31 97.2818 624.006 97.6516C623.263 98.5638 622.516 99.5376 621.815 100.585C621.466 101.111 621.133 101.658 620.817 102.221C620.501 102.796 620.234 103.338 619.939 103.889C619.471 104.781 620.916 105.529 621.38 104.662Z" fill="#CACEDB"/>
<path d="M628.415 93.3987C628.92 92.1907 629.445 90.9703 629.732 89.6801C629.855 89.1089 629.983 88.5213 630.11 87.9338C630.237 87.2887 630.286 86.697 630.373 86.1258C630.446 85.6286 630.089 85.341 629.704 85.2958C629.314 85.2506 628.891 85.4602 628.817 85.9409C628.727 86.5285 628.657 87.112 628.542 87.6009C628.402 88.168 628.246 88.7515 628.09 89.3308C627.77 90.4896 627.405 91.6524 626.937 92.7783C626.547 93.6823 628.021 94.3315 628.415 93.3987Z" fill="#CACEDB"/>
<path d="M676.397 88.7309L668.952 76.067L670.721 72.6319C671.066 71.9621 670.762 71.1157 670.048 70.7459L666.969 69.1598C666.304 68.8187 665.516 69.0078 665.13 69.5707L661.637 63.6291L663.021 60.9418C663.39 60.2269 663.107 59.3393 662.388 58.9695L659.31 57.3834C658.875 57.1574 658.374 57.178 657.964 57.3916L654.224 51.0309C656.835 45.9604 658.678 42.3815 658.739 42.2582C661.424 37.0439 663.189 27.1125 659.926 25.4319C656.662 23.7472 649.607 30.9503 646.922 36.1646C646.861 36.2879 645.018 39.8627 642.407 44.9373L635.06 45.5783C634.994 45.1222 634.723 44.7031 634.284 44.4771L631.206 42.891C630.492 42.5212 629.605 42.8047 629.236 43.5238L627.852 46.2111L620.994 46.811C621.228 46.17 620.924 45.418 620.263 45.0729L617.185 43.4868C616.47 43.117 615.6 43.3636 615.26 44.0333L613.49 47.4684L598.87 48.7463C597.261 48.886 595.861 49.9051 595.229 51.3925L595.11 51.676C593.998 54.3058 595.66 57.2807 598.48 57.7039L608.832 59.2571C608.524 60.9459 608.614 62.2978 609.48 62.7539C610.625 63.3579 612.177 61.9608 613.667 59.9844L622.073 61.2459C622.012 62.3307 622.217 63.1401 622.832 63.4647C623.703 63.9208 624.84 63.1607 626.022 61.8376L633.156 62.9059C628.378 72.1881 624.166 80.365 624.072 80.5499C623.107 82.4277 622.209 85.0123 621.609 87.6338L605.922 89.376C605.294 89.4458 604.731 89.7951 604.391 90.3252C603.557 91.6154 604.341 93.3371 605.86 93.5549L620.735 95.6669C618.995 100.129 617.258 105.409 618.588 105.865C619.894 106.313 623.038 102.023 625.55 98.161L635.881 109.046C636.94 110.159 638.795 109.802 639.362 108.372C639.596 107.784 639.55 107.123 639.243 106.572L631.559 92.77C633.34 90.7607 634.929 88.5254 635.893 86.6517C635.988 86.4668 640.199 78.2899 644.977 69.0077L649.984 74.2015C649.594 75.9314 649.635 77.3038 650.51 77.7434C651.13 78.0557 651.909 77.7517 652.755 77.0737L658.657 83.1961C657.91 85.5588 657.676 87.6297 658.83 88.2173C659.704 88.661 660.853 87.9502 662.052 86.7175L669.321 94.2575C671.304 96.312 674.69 95.9422 676.18 93.5096L676.34 93.2467C677.202 91.8537 677.218 90.1238 676.397 88.7309Z" fill="#CACEDB"/>
<path d="M214.902 43.4868C214.902 36.5837 209.311 30.9872 202.416 30.9872C195.52 30.9872 189.93 36.5837 189.93 43.4868C189.93 43.4868 189.802 44.1196 190.114 45.6399C190.262 46.4863 190.492 47.3081 190.8 48.0889C192.085 51.8362 195.155 58.1846 202.416 68.2147C209.677 58.1846 212.747 51.8362 214.032 48.0889C214.34 47.3081 214.574 46.4904 214.717 45.6399C215.029 44.1154 214.902 43.4868 214.902 43.4868ZM202.412 51.0679C198.229 51.0679 194.839 47.6738 194.839 43.4868C194.839 39.2997 198.229 35.9057 202.412 35.9057C206.594 35.9057 209.985 39.2997 209.985 43.4868C209.989 47.6738 206.594 51.0679 202.412 51.0679Z" fill="#CACEDB"/>
<path d="M205.207 73.548C205.207 75.093 203.955 76.3463 202.412 76.3463C200.868 76.3463 199.616 75.093 199.616 73.548C199.616 72.0031 200.868 70.7498 202.412 70.7498C203.955 70.7498 205.207 72.0031 205.207 73.548Z" fill="#CACEDB"/>
<path d="M20.1669 368.869C20.2531 368.578 20.3434 368.286 20.4501 368.006C20.5527 367.723 20.6635 367.46 20.7908 367.156C21.0371 366.564 21.2751 365.968 21.468 365.356C21.6404 364.822 21.8292 364.275 22.0468 363.737C22.2643 363.203 22.4983 362.673 22.7733 362.184C23.0073 361.753 22.7774 361.354 22.4203 361.165C22.0632 360.976 21.5789 361.009 21.3367 361.453C20.7415 362.537 20.2736 363.688 19.8426 364.851L19.2105 366.597C19.1079 366.881 18.9889 367.205 18.8945 367.509C18.7959 367.817 18.7098 368.126 18.6236 368.434C18.484 368.935 18.8165 369.276 19.2064 369.371C19.5963 369.461 20.0396 369.321 20.1669 368.869Z" fill="#CACEDB"/>
<path d="M25.9215 357.282C26.2704 356.752 26.6439 356.238 27.0092 355.72C27.3745 355.203 27.7439 354.685 28.0764 354.143C28.3719 353.67 28.688 353.189 29.0328 352.713C29.3734 352.24 29.7264 351.78 30.0999 351.353C30.7567 350.609 29.5089 349.573 28.8521 350.325C28.4499 350.785 28.0682 351.262 27.6988 351.747C27.3293 352.228 26.9681 352.741 26.6151 353.255L26.0939 354.036L25.5849 354.821L24.5752 356.39C24.292 356.809 24.5054 357.245 24.8461 357.458C25.1826 357.68 25.6506 357.689 25.9215 357.282Z" fill="#CACEDB"/>
<path d="M34.1102 347.063C34.537 346.59 34.9844 346.13 35.4236 345.666C35.8669 345.21 36.2938 344.733 36.7002 344.248C36.8808 344.034 37.0573 343.813 37.2502 343.603C37.4431 343.393 37.6401 343.184 37.8371 342.978C38.2312 342.559 38.6704 342.194 39.1013 341.84C39.4872 341.544 39.4379 341.088 39.1875 340.768C38.9413 340.451 38.4774 340.275 38.0711 340.587C37.5867 340.977 37.1024 341.376 36.6632 341.816C36.4416 342.033 36.2158 342.255 35.9983 342.477L35.3662 343.167C34.9393 343.624 34.5494 344.108 34.1307 344.573C33.7284 345.045 33.318 345.514 32.9034 345.974C32.2426 346.726 33.4575 347.794 34.1102 347.063Z" fill="#CACEDB"/>
<path d="M44.0022 338.845L44.8395 338.434L45.2582 338.229L45.7015 338.023C46.2885 337.748 46.8672 337.456 47.4213 337.123C48.3941 336.536 49.4326 335.944 50.4792 335.521C51.3946 335.151 50.7543 333.663 49.8225 334.037C48.6855 334.498 47.6019 335.073 46.5224 335.66L44.9052 336.536C44.3634 336.815 43.8011 337.136 43.2429 337.415C42.3439 337.924 43.1813 339.317 44.0022 338.845Z" fill="#CACEDB"/>
<path d="M55.9753 333.594C57.1287 333.216 58.356 333.044 59.5833 332.748C60.6628 332.485 61.8449 332.279 62.9819 332.197C63.4826 332.16 63.6879 331.733 63.6386 331.33C63.5894 330.927 63.2979 330.549 62.8095 330.582C61.615 330.668 60.3919 330.837 59.1564 331.079C58.5407 331.207 57.9209 331.342 57.3093 331.507C56.6936 331.667 56.0821 331.848 55.4746 332.049C54.9738 332.214 54.8876 332.686 55.0272 333.064C55.1667 333.451 55.5444 333.738 55.9753 333.594Z" fill="#CACEDB"/>
<path d="M68.7734 331.556C69.3194 331.535 69.8899 331.622 70.4851 331.733L70.9653 331.819C71.1295 331.848 71.2978 331.872 71.4619 331.893C71.7944 331.934 72.1228 331.963 72.447 331.975C73.5963 332.02 74.7785 332.061 75.8374 332.341C76.3013 332.46 76.6337 332.139 76.7363 331.745C76.839 331.354 76.6912 330.882 76.1863 330.754C75.5706 330.594 74.9426 330.495 74.327 330.421C73.7072 330.352 73.0997 330.306 72.4963 330.253C72.1967 330.228 71.897 330.2 71.6015 330.167C71.2978 330.134 71.0269 330.097 70.6985 330.047C70.0623 329.961 69.3932 329.9 68.7119 329.924C68.1536 329.949 67.9525 330.405 68.0141 330.804C68.0798 331.215 68.363 331.572 68.7734 331.556Z" fill="#CACEDB"/>
<path d="M81.1775 334.448C81.748 334.711 82.3063 334.999 82.8604 335.295C83.4186 335.586 83.9686 335.882 84.5351 336.149C85.0317 336.388 85.5407 336.647 86.0209 336.946C86.5053 337.242 86.9527 337.592 87.3754 337.937C87.7284 338.265 88.1717 338.126 88.4385 337.822C88.7053 337.518 88.7874 337.037 88.4057 336.683C88.1635 336.478 87.9131 336.285 87.6628 336.092C87.4124 335.899 87.1538 335.71 86.887 335.541C86.3575 335.192 85.8075 334.884 85.2534 334.584C84.691 334.292 84.1287 334.013 83.5582 333.754C82.9917 333.483 82.4171 333.232 81.8507 332.969C81.3868 332.759 80.9928 333.035 80.8327 333.405C80.6726 333.783 80.7383 334.247 81.1775 334.448Z" fill="#CACEDB"/>
<path d="M91.1845 342.239C91.5662 342.74 91.9562 343.237 92.3174 343.755C92.5021 344.014 92.695 344.265 92.8838 344.515C93.0685 344.77 93.2655 345.021 93.4667 345.263C93.832 345.686 94.1644 346.155 94.501 346.619C94.8294 347.092 95.1249 347.585 95.3876 348.078C95.8227 348.953 97.2634 348.193 96.8078 347.285C96.5164 346.738 96.2085 346.2 95.8637 345.678C95.5149 345.16 95.166 344.643 94.7801 344.15L94.2137 343.402L93.6226 342.67C93.2409 342.173 92.8222 341.709 92.4446 341.212C92.1245 340.817 91.6442 340.887 91.3364 341.15C91.0285 341.421 90.8808 341.861 91.1845 342.239Z" fill="#CACEDB"/>
<path d="M97.7313 353.432C97.9817 354.019 98.228 354.611 98.4701 355.203C98.7164 355.79 98.9709 356.382 99.2705 356.953C99.7877 357.956 100.309 359.036 100.65 360.109C100.802 360.577 101.257 360.68 101.639 360.548C102.021 360.413 102.337 360.039 102.181 359.562C101.807 358.391 101.306 357.265 100.789 356.144L99.9971 354.463C99.7385 353.9 99.4635 353.341 99.2254 352.774C98.8067 351.858 97.3291 352.54 97.7313 353.432Z" fill="#CACEDB"/>
<path d="M102.193 365.771C102.374 366.383 102.521 367.008 102.69 367.624C102.846 368.245 103.026 368.857 103.231 369.461C103.42 369.991 103.584 370.542 103.74 371.096C103.88 371.655 104.011 372.218 104.073 372.773C104.196 373.742 105.805 373.521 105.678 372.51C105.604 371.893 105.477 371.285 105.341 370.681C105.193 370.077 105.033 369.477 104.853 368.882C104.68 368.282 104.483 367.694 104.303 367.098C104.11 366.507 103.933 365.915 103.757 365.319C103.621 364.834 103.158 364.711 102.768 364.826C102.378 364.945 102.058 365.298 102.193 365.771Z" fill="#CACEDB"/>
<path d="M104.615 378.661C104.804 379.947 104.955 381.25 105.308 382.503C105.464 383.053 105.62 383.616 105.756 384.188C105.895 384.763 106.014 385.313 106.068 385.868C106.121 386.349 106.54 386.546 106.946 386.497C107.348 386.447 107.738 386.148 107.677 385.638C107.648 385.326 107.595 385.013 107.541 384.705C107.488 384.397 107.426 384.105 107.365 383.805C107.238 383.21 107.098 382.614 106.958 382.022C106.679 380.83 106.4 379.639 106.22 378.427C106.08 377.441 104.467 377.667 104.615 378.661Z" fill="#CACEDB"/>
<path d="M106.339 391.736C106.449 393.038 106.54 394.382 106.93 395.668C107.11 396.26 107.279 396.74 107.377 397.291C107.48 397.837 107.529 398.4 107.533 398.959C107.537 399.945 109.163 399.9 109.158 398.893C109.154 398.273 109.109 397.636 109.003 396.991C108.953 396.67 108.883 396.346 108.801 396.021L108.572 395.15C108.428 394.575 108.297 393.991 108.194 393.396C108.091 392.804 108.009 392.2 107.956 391.596C107.878 390.614 106.257 390.729 106.339 391.736Z" fill="#CACEDB"/>
<path d="M107.923 404.946C108.017 405.571 108.083 406.191 108.132 406.803L108.198 407.724C108.223 408.028 108.239 408.332 108.272 408.669C108.333 409.244 108.399 409.836 108.465 410.427C108.526 411.015 108.58 411.603 108.6 412.178C108.645 413.185 110.267 413.037 110.222 412.059C110.201 411.459 110.156 410.863 110.111 410.263C110.062 409.667 110.016 409.067 109.984 408.472C109.951 407.855 109.893 407.198 109.811 406.569C109.729 405.936 109.626 405.316 109.532 404.695C109.368 403.693 107.767 403.989 107.923 404.946Z" fill="#CACEDB"/>
<path d="M108.863 418.095C108.912 418.732 108.949 419.373 108.982 420.005C109.027 420.646 109.076 421.316 109.2 421.957C109.302 422.524 109.413 423.104 109.512 423.687C109.602 424.271 109.696 424.85 109.741 425.421C109.84 426.424 111.449 426.194 111.354 425.22C111.305 424.62 111.223 424.024 111.145 423.424C111.059 422.828 110.973 422.228 110.891 421.628C110.809 421.024 110.735 420.437 110.669 419.816C110.607 419.196 110.538 418.58 110.488 417.963C110.398 416.961 108.781 417.113 108.863 418.095Z" fill="#CACEDB"/>
<path d="M110.386 431.342C110.612 432.624 110.804 433.918 111.186 435.159C111.523 436.248 111.855 437.403 112.036 438.521C112.192 439.503 113.788 439.194 113.632 438.208C113.247 435.8 112.418 433.462 111.991 431.054C111.814 430.085 110.209 430.356 110.386 431.342Z" fill="#CACEDB"/>
<path d="M112.922 444.396C113.206 445.674 113.464 446.973 113.953 448.193C114.384 449.266 114.839 450.391 115.196 451.489C115.352 451.969 115.816 452.064 116.198 451.916C116.575 451.768 116.875 451.394 116.727 450.934C116.001 448.678 115.036 446.426 114.511 444.043C114.302 443.082 112.705 443.41 112.922 444.396Z" fill="#CACEDB"/>
<path d="M117.544 457.06C118.197 458.198 118.829 459.341 119.592 460.368C119.925 460.82 120.261 461.293 120.569 461.777C120.885 462.262 121.14 462.755 121.415 463.281C121.879 464.198 123.278 463.364 122.847 462.513C122.585 462.008 122.289 461.42 121.969 460.898C121.649 460.364 121.308 459.846 120.963 459.333C120.27 458.309 119.56 457.307 118.956 456.251C118.476 455.4 117.043 456.177 117.544 457.06Z" fill="#CACEDB"/>
<path d="M124.526 468.479C124.945 468.993 125.359 469.515 125.794 470.012C126.016 470.254 126.246 470.497 126.476 470.731C126.706 470.969 126.948 471.195 127.202 471.401C127.646 471.775 128.097 472.157 128.549 472.539C129 472.921 129.431 473.324 129.846 473.714C130.572 474.421 131.643 473.192 130.942 472.514C130.506 472.099 130.075 471.684 129.628 471.286C129.172 470.891 128.746 470.472 128.29 470.074C127.843 469.667 127.42 469.239 126.989 468.816C126.578 468.377 126.168 467.933 125.79 467.464C125.212 466.696 123.898 467.658 124.526 468.479Z" fill="#CACEDB"/>
<path d="M134.229 477.774C135.255 478.579 136.261 479.422 137.378 480.083C137.866 480.375 138.367 480.679 138.855 480.999C139.101 481.16 139.34 481.324 139.578 481.488C139.816 481.657 140.066 481.825 140.296 481.998C140.501 482.15 140.715 482.183 140.899 482.129C141.088 482.072 141.248 481.936 141.359 481.764C141.47 481.591 141.527 481.39 141.511 481.193C141.499 480.991 141.412 480.802 141.224 480.658C140.99 480.482 140.756 480.321 140.509 480.141C140.263 479.96 140.017 479.783 139.766 479.611C139.262 479.265 138.757 478.929 138.244 478.592C137.222 477.922 136.2 477.244 135.239 476.492C134.471 475.88 133.445 477.145 134.229 477.774Z" fill="#CACEDB"/>
<path d="M145.496 485.125C146.104 485.38 146.711 485.647 147.331 485.873C147.643 485.988 147.951 486.095 148.267 486.198C148.579 486.296 148.899 486.374 149.219 486.448C149.782 486.58 150.36 486.699 150.931 486.843C151.501 486.987 152.072 487.131 152.61 487.312C153.566 487.616 153.997 486.046 153.061 485.746C152.491 485.552 151.908 485.396 151.329 485.232C150.746 485.076 150.163 484.92 149.58 484.759C148.994 484.607 148.415 484.43 147.84 484.25C147.265 484.065 146.699 483.855 146.141 483.621C145.25 483.23 144.556 484.706 145.496 485.125Z" fill="#CACEDB"/>
<path d="M158.274 489.094C158.898 489.255 159.526 489.419 160.154 489.579C160.774 489.735 161.435 489.875 162.083 489.953C163.232 490.089 164.443 490.208 165.576 490.405C166.077 490.492 166.376 490.126 166.422 489.723C166.471 489.316 166.278 488.881 165.802 488.794C164.632 488.589 163.45 488.433 162.26 488.239C161.664 488.141 161.073 488.034 160.466 487.915C159.862 487.796 159.263 487.664 158.668 487.516C157.708 487.269 157.305 488.848 158.274 489.094Z" fill="#CACEDB"/>
<path d="M171.507 491.104C172.718 491.165 173.954 491.449 175.255 491.531C176.42 491.605 177.648 491.683 178.809 491.753C179.326 491.786 179.581 491.383 179.577 490.976C179.577 490.569 179.335 490.154 178.867 490.126C178.288 490.084 177.717 490.043 177.135 489.99C176.539 489.928 175.944 489.871 175.345 489.809C174.13 489.678 172.874 489.542 171.598 489.476C171.068 489.452 170.822 489.858 170.814 490.265C170.809 490.471 170.867 490.672 170.994 490.828C171.109 490.989 171.277 491.091 171.507 491.104Z" fill="#CACEDB"/>
<path d="M184.843 491.61C185.483 491.523 186.128 491.441 186.768 491.355C187.408 491.264 188.045 491.162 188.673 491.005C189.777 490.738 190.951 490.479 192.079 490.364C193.073 490.261 192.847 488.65 191.862 488.749C190.655 488.872 189.452 489.094 188.25 489.333C187.047 489.567 185.832 489.822 184.625 489.99C183.653 490.126 183.841 491.745 184.843 491.61Z" fill="#CACEDB"/>
<path d="M197.994 489.744C198.322 489.686 198.63 489.633 198.938 489.588L199.874 489.456C200.502 489.37 201.134 489.279 201.758 489.144C202.862 488.905 204.048 488.696 205.189 488.593C205.694 488.548 205.891 488.112 205.83 487.709C205.768 487.307 205.477 486.933 204.992 486.974C203.802 487.081 202.599 487.253 201.38 487.459C200.773 487.561 200.157 487.672 199.546 487.792L197.711 488.141C196.742 488.309 197.001 489.916 197.994 489.744Z" fill="#CACEDB"/>
<path d="M211.145 487.496C212.397 487.093 213.641 486.707 214.807 486.173C215.833 485.696 216.937 485.228 218.025 484.915C218.981 484.644 218.484 483.095 217.528 483.366C216.354 483.703 215.209 484.147 214.072 484.615C212.931 485.08 211.806 485.573 210.649 485.947C210.181 486.099 210.066 486.555 210.185 486.945C210.3 487.336 210.665 487.652 211.145 487.496Z" fill="#CACEDB"/>
<path d="M223.734 483.395C224.97 483.005 226.23 482.664 227.412 482.133C228.45 481.665 229.558 481.188 230.642 480.856C231.122 480.712 231.225 480.247 231.089 479.865C230.954 479.479 230.589 479.175 230.113 479.315C227.802 480.026 225.581 481.106 223.241 481.846C222.297 482.142 222.786 483.695 223.734 483.395Z" fill="#CACEDB"/>
<path d="M236.319 479.06C236.926 478.822 237.534 478.579 238.141 478.328C238.745 478.078 239.331 477.786 239.902 477.466C240.403 477.182 240.908 476.874 241.425 476.599C241.946 476.323 242.459 476.04 242.98 475.806C243.9 475.386 243.141 473.944 242.254 474.351C241.708 474.597 241.174 474.877 240.637 475.148C240.099 475.419 239.57 475.719 239.028 475.99C238.486 476.266 237.952 476.557 237.398 476.812C236.848 477.071 236.294 477.33 235.728 477.552C234.8 477.901 235.379 479.421 236.319 479.06Z" fill="#CACEDB"/>
<path d="M248.345 473.25C249.478 472.621 250.644 472.034 251.699 471.29C252.626 470.637 253.624 469.971 254.633 469.474C255.52 469.038 254.769 467.596 253.866 468.036C251.666 469.116 249.7 470.637 247.557 471.824C246.691 472.305 247.471 473.735 248.345 473.25Z" fill="#CACEDB"/>
<path d="M259.965 466.84C261.09 466.182 262.243 465.545 263.265 464.728C264.16 464.009 265.104 463.257 266.065 462.632C266.906 462.077 265.95 460.758 265.133 461.297C263.122 462.603 261.254 464.202 259.144 465.434C258.291 465.927 259.091 467.345 259.965 466.84Z" fill="#CACEDB"/>
<path d="M271.035 459.489C272.111 458.79 273.239 458.145 274.253 457.327C275.144 456.608 276.092 455.865 277.053 455.236C277.475 454.961 277.447 454.488 277.209 454.159C276.971 453.831 276.531 453.637 276.121 453.905C274.118 455.207 272.217 456.777 270.149 458.124C269.307 458.675 270.21 460.027 271.035 459.489Z" fill="#CACEDB"/>
<path d="M281.888 451.636C282.84 450.728 283.801 449.816 284.589 448.781C285.282 447.873 286.017 446.923 286.822 446.13C287.528 445.436 286.358 444.306 285.639 445.009C284.769 445.872 283.989 446.812 283.205 447.749C282.426 448.686 281.637 449.619 280.763 450.457C280.41 450.798 280.505 451.258 280.78 451.558C281.055 451.858 281.523 451.99 281.888 451.636Z" fill="#CACEDB"/>
<path d="M291.148 442.124C292.059 441.204 293.02 440.308 293.812 439.277C294.509 438.369 295.256 437.424 296.049 436.602C296.742 435.874 295.519 434.802 294.842 435.509C293.171 437.239 291.722 439.236 289.994 440.974C289.297 441.68 290.446 442.831 291.148 442.124Z" fill="#CACEDB"/>
<path d="M300.096 432.201C300.896 431.166 301.717 430.134 302.353 428.996C302.912 427.998 303.511 426.954 304.184 426.042C304.779 425.245 303.441 424.316 302.846 425.113C301.397 427.065 300.293 429.275 298.807 431.203C298.507 431.593 298.672 432.037 298.992 432.291C299.312 432.546 299.792 432.604 300.096 432.201Z" fill="#CACEDB"/>
<path d="M307.808 421.374C308.198 420.836 308.568 420.285 308.925 419.722C309.105 419.443 309.261 419.151 309.421 418.863C309.577 418.571 309.733 418.28 309.856 417.972C310.086 417.437 310.32 416.891 310.554 416.344C310.796 415.802 311.035 415.264 311.297 414.75C311.531 414.302 311.26 413.904 310.891 413.739C310.517 413.571 310.049 413.632 309.824 414.064C309.688 414.331 309.557 414.598 309.43 414.869L309.044 415.679C308.798 416.225 308.531 416.759 308.276 417.306C308.005 417.84 307.739 418.382 307.439 418.908C307.139 419.43 306.831 419.952 306.478 420.437C305.92 421.226 307.213 422.216 307.808 421.374Z" fill="#CACEDB"/>
<path d="M313.772 409.285C313.973 408.661 314.203 408.044 314.392 407.415C314.585 406.787 314.753 406.154 314.864 405.509C315.061 404.379 315.275 403.187 315.591 402.094C315.866 401.129 314.285 400.742 314.014 401.692C313.678 402.85 313.432 404.042 313.165 405.229C313.038 405.825 312.898 406.417 312.746 407.009C312.598 407.6 312.422 408.18 312.233 408.759C311.905 409.684 313.432 410.242 313.772 409.285Z" fill="#CACEDB"/>
<path d="M317.072 396.293C317.171 395.643 317.319 394.994 317.368 394.337C317.434 393.679 317.483 393.022 317.483 392.364C317.499 391.789 317.442 391.193 317.446 390.602C317.438 390.01 317.454 389.422 317.499 388.847C317.528 387.832 315.903 387.84 315.874 388.81C315.825 389.406 315.8 390.006 315.792 390.606C315.784 391.206 315.8 391.81 315.759 392.414L315.681 394.23L315.656 394.686L315.603 395.138C315.562 395.438 315.521 395.738 315.472 396.038C315.312 397.003 316.908 397.299 317.072 396.293Z" fill="#CACEDB"/>
<path d="M317.561 382.844C317.487 382.191 317.409 381.533 317.335 380.876C317.294 380.547 317.249 380.222 317.196 379.898C317.13 379.573 317.044 379.257 316.953 378.94C316.789 378.386 316.629 377.814 316.49 377.239C316.346 376.664 316.169 376.101 316.059 375.538C315.853 374.544 314.281 374.971 314.478 375.92C314.54 376.212 314.606 376.504 314.679 376.795C314.753 377.087 314.831 377.375 314.889 377.671C315.016 378.258 315.16 378.842 315.303 379.429C315.373 379.725 315.463 380.013 315.513 380.313L315.673 381.204C315.775 381.8 315.874 382.4 315.944 383C316.005 383.966 317.627 383.863 317.561 382.844Z" fill="#CACEDB"/>
<path d="M314.564 369.712L314.228 368.779L314.06 368.314L313.863 367.863C313.596 367.258 313.308 366.663 312.984 366.092C312.713 365.582 312.373 365.093 312.073 364.579C311.773 364.07 311.49 363.552 311.244 363.034C311.006 362.587 310.53 362.57 310.177 362.771C309.824 362.973 309.59 363.388 309.815 363.819C310.07 364.362 310.345 364.892 310.641 365.414L311.088 366.198C311.244 366.457 311.367 366.733 311.511 366.996L312.34 368.61C312.483 368.877 312.598 369.157 312.713 369.436C312.828 369.716 312.939 369.999 313.042 370.283C313.378 371.195 314.917 370.669 314.564 369.712Z" fill="#CACEDB"/>
<path d="M308.293 357.8C307.915 357.261 307.517 356.735 307.119 356.209C306.717 355.688 306.31 355.162 305.842 354.71C305.03 353.9 304.176 353.045 303.445 352.162C302.797 351.385 301.602 352.495 302.23 353.243C302.994 354.167 303.819 355.047 304.644 355.942C305.062 356.386 305.44 356.855 305.834 357.315C306.22 357.783 306.614 358.243 306.963 358.741C307.505 359.554 308.859 358.65 308.293 357.8Z" fill="#CACEDB"/>
<path d="M299.398 347.712C298.405 346.837 297.387 345.957 296.229 345.308C295.72 345.029 295.195 344.741 294.674 344.453C294.156 344.174 293.647 343.878 293.163 343.57C292.74 343.299 292.322 343.521 292.116 343.87C291.911 344.223 291.919 344.704 292.33 344.967C292.835 345.292 293.352 345.6 293.869 345.9L294.637 346.352L295.4 346.816C295.905 347.133 296.41 347.461 296.902 347.811C297.391 348.16 297.867 348.53 298.319 348.928C298.688 349.249 299.135 349.121 299.414 348.817C299.694 348.53 299.784 348.049 299.398 347.712Z" fill="#CACEDB"/>
<path d="M288.037 340.497C286.863 339.921 285.689 339.317 284.449 338.923C283.357 338.578 282.212 338.204 281.174 337.735C280.262 337.324 279.655 338.832 280.554 339.239C282.758 340.234 285.13 340.887 287.318 341.959C288.201 342.395 288.944 340.944 288.037 340.497Z" fill="#CACEDB"/>
<path d="M275.764 335.275C274.532 334.822 273.285 334.342 271.975 334.128C271.401 334.037 270.814 333.943 270.223 333.852C269.64 333.754 269.045 333.663 268.495 333.54C267.518 333.326 267.234 334.933 268.199 335.143C268.798 335.275 269.369 335.377 269.956 335.488C270.539 335.595 271.126 335.71 271.713 335.829C272.886 336.08 274.06 336.38 275.197 336.799C276.117 337.149 276.716 335.632 275.764 335.275Z" fill="#CACEDB"/>
<path d="M262.658 332.336C261.357 332.176 260.039 331.991 258.726 332.065C258.151 332.094 257.556 332.122 256.965 332.155C256.361 332.18 255.762 332.201 255.175 332.225C254.658 332.25 254.445 332.677 254.494 333.08C254.539 333.487 254.822 333.873 255.29 333.853C255.869 333.832 256.415 333.824 257.03 333.816C257.63 333.808 258.233 333.799 258.832 333.791C260.039 333.783 261.254 333.812 262.461 333.96C263.43 334.079 263.663 332.464 262.658 332.336Z" fill="#CACEDB"/>
<path d="M249.207 333.006C248.579 333.146 247.951 333.265 247.335 333.384C246.711 333.507 246.112 333.618 245.492 333.766C244.384 334.025 243.202 334.28 242.069 334.412C241.068 334.535 241.347 336.142 242.311 336.023C243.502 335.883 244.696 335.665 245.903 335.439C247.155 335.201 248.362 334.864 249.56 334.593C250.537 334.379 250.176 332.788 249.207 333.006Z" fill="#CACEDB"/>
<path d="M236.113 335.919C234.923 336.531 233.79 337.144 232.744 337.805C232.284 338.097 231.795 338.364 231.295 338.586C230.753 338.832 230.203 339.05 229.657 339.243C228.705 339.617 229.374 341.101 230.269 340.751C230.831 340.554 231.373 340.349 231.939 340.11C232.551 339.872 233.125 339.568 233.679 339.256C234.784 338.623 235.793 337.916 236.86 337.37C237.287 337.148 237.332 336.683 237.16 336.31C236.988 335.944 236.573 335.681 236.113 335.919Z" fill="#CACEDB"/>
<path d="M224.153 341.688C223.578 342.009 223.02 342.362 222.457 342.707C221.903 343.061 221.37 343.451 220.865 343.866C220.43 344.244 219.978 344.626 219.523 344.996C219.071 345.374 218.603 345.727 218.135 346.052C217.314 346.631 218.304 347.921 219.108 347.359C219.605 347.013 220.089 346.66 220.565 346.282C221.05 345.92 221.518 345.538 221.998 345.168C222.482 344.807 222.954 344.425 223.455 344.08C223.952 343.734 224.448 343.385 224.978 343.089C225.815 342.604 225.035 341.175 224.153 341.688Z" fill="#CACEDB"/>
<path d="M213.284 349.479C212.27 350.288 211.223 351.057 210.304 351.961C209.897 352.359 209.479 352.754 209.044 353.148C208.609 353.547 208.157 353.925 207.701 354.274C206.909 354.903 207.976 356.135 208.74 355.527C209.216 355.162 209.68 354.788 210.135 354.393C210.599 353.999 211.067 353.592 211.523 353.181C212.438 352.355 213.341 351.521 214.298 350.757C215.073 350.132 214.064 348.858 213.284 349.479Z" fill="#CACEDB"/>
<path d="M203.1 358.1C202.636 358.56 202.16 359.016 201.717 359.501C201.491 359.739 201.27 359.982 201.056 360.228C200.847 360.479 200.646 360.738 200.453 361.001C200.28 361.231 200.108 361.465 199.936 361.703C199.763 361.942 199.591 362.18 199.41 362.414C199.234 362.648 199.049 362.878 198.864 363.104C198.684 363.335 198.499 363.556 198.31 363.77C197.641 364.526 198.914 365.541 199.562 364.81C199.956 364.358 200.342 363.893 200.724 363.425C201.101 362.952 201.479 362.48 201.857 362.003C202.23 361.522 202.616 361.058 203.014 360.594C203.404 360.125 203.823 359.686 204.25 359.254C204.939 358.564 203.819 357.385 203.1 358.1Z" fill="#CACEDB"/>
<path d="M194.448 368.319C194.062 368.844 193.68 369.379 193.307 369.913C192.937 370.451 192.592 371.01 192.285 371.581C192.022 372.091 191.751 372.612 191.46 373.122C191.172 373.636 190.877 374.141 190.557 374.614C190.002 375.444 191.386 376.298 191.936 375.472C192.609 374.47 193.208 373.414 193.816 372.362C194.128 371.84 194.427 371.306 194.751 370.792C195.08 370.279 195.4 369.761 195.765 369.272C196.344 368.479 195.043 367.505 194.448 368.319Z" fill="#CACEDB"/>
<path d="M187.224 379.52C186.551 380.625 185.828 381.714 185.286 382.893C184.81 383.929 184.289 385.013 183.686 385.975C183.156 386.821 184.564 387.635 185.089 386.797C186.382 384.742 187.339 382.462 188.611 380.366C189.128 379.516 187.741 378.665 187.224 379.52Z" fill="#CACEDB"/>
<path d="M180.504 390.984C179.872 392.118 179.195 393.252 178.727 394.476C178.526 395.015 178.313 395.565 178.095 396.116C177.873 396.662 177.648 397.209 177.401 397.727C176.975 398.651 178.489 399.251 178.895 398.372C179.154 397.833 179.392 397.287 179.63 396.736C179.868 396.182 180.106 395.627 180.344 395.072C180.825 393.959 181.329 392.845 181.925 391.777C182.413 390.918 180.997 390.109 180.504 390.984Z" fill="#CACEDB"/>
<path d="M175.197 403.372L174.963 404.297L174.713 405.217C174.545 405.83 174.385 406.45 174.265 407.079C174.052 408.184 173.773 409.347 173.375 410.407C173.026 411.34 174.565 411.862 174.914 410.929C175.341 409.787 175.669 408.595 175.957 407.387C176.1 406.783 176.236 406.175 176.371 405.567C176.507 404.959 176.634 404.346 176.782 403.746C177.02 402.818 175.456 402.362 175.197 403.372Z" fill="#CACEDB"/>
<path d="M171.29 415.987C171.109 416.62 170.924 417.253 170.768 417.902C170.612 418.551 170.497 419.204 170.44 419.862C170.341 421.016 170.263 422.224 170.066 423.346C169.894 424.332 171.507 424.55 171.675 423.576C171.885 422.385 172 421.185 172.156 419.989C172.23 419.389 172.32 418.798 172.431 418.206C172.546 417.614 172.681 417.022 172.849 416.439C173.128 415.498 171.577 415.013 171.29 415.987Z" fill="#CACEDB"/>
<path d="M168.925 429.111C168.811 429.736 168.667 430.368 168.544 431.001C168.416 431.634 168.31 432.275 168.248 432.92C168.141 434.054 168.01 435.254 167.772 436.372C167.665 436.865 168.022 437.177 168.421 437.243C168.823 437.308 169.27 437.136 169.373 436.655C169.623 435.48 169.796 434.276 169.964 433.06L170.222 431.235C170.313 430.623 170.415 430.019 170.526 429.407C170.621 428.91 170.255 428.593 169.857 428.523C169.455 428.458 169.016 428.634 168.925 429.111Z" fill="#CACEDB"/>
<path d="M166.754 442.301C166.717 442.954 166.672 443.595 166.639 444.249C166.61 444.898 166.602 445.551 166.643 446.2C166.717 447.343 166.787 448.551 166.746 449.693C166.713 450.704 168.339 450.679 168.372 449.705C168.421 448.506 168.389 447.293 168.36 446.073C168.348 445.461 168.335 444.849 168.331 444.236C168.331 443.624 168.339 443.008 168.376 442.4C168.442 441.43 166.824 441.27 166.754 442.301Z" fill="#CACEDB"/>
<path d="M166.75 455.704C166.824 456.358 166.914 457.044 167.025 457.681C167.136 458.314 167.255 458.946 167.423 459.571C167.715 460.664 167.99 461.835 168.125 462.965C168.244 463.959 169.849 463.705 169.734 462.723C169.594 461.519 169.348 460.315 169.086 459.111L168.679 457.303C168.548 456.703 168.437 456.124 168.371 455.524C168.318 455.043 167.895 454.833 167.489 454.87C167.078 454.903 166.693 455.195 166.75 455.704Z" fill="#CACEDB"/>
<path d="M168.868 468.874C169.11 470.09 169.196 471.38 169.541 472.658C169.841 473.78 170.181 474.976 170.555 476.114C170.719 476.615 171.191 476.697 171.565 476.537C171.938 476.377 172.226 475.999 172.086 475.563C171.914 475.029 171.758 474.487 171.61 473.92C171.462 473.357 171.327 472.781 171.195 472.19C170.937 471.01 170.707 469.786 170.461 468.549C170.362 468.056 169.915 467.9 169.517 467.974C169.118 468.052 168.769 468.389 168.868 468.874Z" fill="#CACEDB"/>
<path d="M172.923 481.599C173.178 482.141 173.432 482.77 173.699 483.362C173.962 483.958 174.261 484.541 174.594 485.1C174.889 485.589 175.197 486.094 175.485 486.608C175.776 487.117 176.059 487.635 176.297 488.153C176.515 488.609 176.987 488.642 177.344 488.449C177.705 488.256 177.951 487.849 177.742 487.405C177.492 486.859 177.208 486.324 176.925 485.79C176.646 485.252 176.342 484.726 176.059 484.188C175.772 483.65 175.472 483.119 175.201 482.573C174.922 482.026 174.668 481.484 174.397 480.901C174.175 480.436 173.695 480.399 173.334 480.58C172.968 480.769 172.722 481.172 172.923 481.599Z" fill="#CACEDB"/>
<path d="M179.027 493.487L179.552 494.321L180.11 495.143C180.48 495.689 180.894 496.207 181.338 496.692C181.719 497.123 182.15 497.538 182.544 497.982C182.934 498.426 183.353 498.849 183.706 499.301C184.022 499.699 184.502 499.601 184.794 499.33C185.098 499.05 185.221 498.602 184.921 498.22C184.556 497.752 184.141 497.32 183.759 496.86C183.374 496.404 182.963 495.964 182.581 495.5L181.999 494.81C181.806 494.576 181.625 494.333 181.44 494.095C181.256 493.852 181.075 493.614 180.894 493.368C180.722 493.117 180.558 492.866 180.394 492.611C179.872 491.786 178.477 492.624 179.027 493.487Z" fill="#CACEDB"/>
<path d="M187.839 503.697C188.352 504.112 188.87 504.556 189.362 504.938C189.859 505.333 190.364 505.723 190.893 506.085C191.825 506.717 192.79 507.432 193.631 508.205C194.374 508.883 195.416 507.63 194.69 506.968C193.803 506.155 192.843 505.39 191.85 504.651C191.353 504.281 190.848 503.915 190.339 503.554C189.818 503.192 189.358 502.83 188.886 502.452C188.504 502.148 188.061 502.288 187.794 502.596C187.519 502.896 187.437 503.377 187.839 503.697Z" fill="#CACEDB"/>
<path d="M198.491 511.841C199.648 512.458 200.769 513.082 201.906 513.596C202.152 513.707 202.415 513.83 202.682 513.962C202.944 514.093 203.207 514.225 203.474 514.352C203.999 514.619 204.52 514.89 205.009 515.186C205.879 515.696 206.634 514.253 205.793 513.76C205.28 513.452 204.754 513.164 204.225 512.877C203.691 512.589 203.174 512.314 202.6 512.018C201.471 511.451 200.326 510.974 199.254 510.403C198.392 509.943 197.592 511.361 198.491 511.841Z" fill="#CACEDB"/>
<path d="M210.23 518.095C211.42 518.634 212.615 519.197 213.875 519.546C214.983 519.85 216.145 520.175 217.212 520.585C218.156 520.943 218.661 519.394 217.745 519.049C216.625 518.613 215.471 518.256 214.314 517.882C213.735 517.697 213.161 517.5 212.586 517.294C212.015 517.089 211.449 516.863 210.895 516.612C210.004 516.201 209.31 517.676 210.23 518.095Z" fill="#CACEDB"/>
<path d="M222.843 522.579C224.103 522.912 225.372 523.277 226.665 523.425C227.802 523.557 228.996 523.705 230.104 523.968C231.077 524.198 231.389 522.595 230.424 522.369C228.073 521.81 225.614 521.625 223.258 521.005C222.31 520.75 221.866 522.32 222.843 522.579Z" fill="#CACEDB"/>
<path d="M235.875 525.336C237.156 525.562 238.441 525.829 239.742 525.878C240.883 525.928 242.09 525.981 243.219 526.154C244.212 526.302 244.38 524.682 243.407 524.534C241.027 524.173 238.564 524.152 236.154 523.729C235.186 523.56 234.89 525.163 235.875 525.336Z" fill="#CACEDB"/>
<path d="M249.137 526.93C249.794 526.959 250.451 526.996 251.108 527C251.764 527.004 252.429 526.983 253.07 526.905C254.202 526.77 255.401 526.634 256.534 526.638C257.531 526.638 257.47 525.011 256.485 525.011C255.274 525.007 254.059 525.105 252.844 525.2C252.236 525.245 251.637 525.29 251.03 525.311C250.422 525.335 249.819 525.335 249.211 525.307C248.719 525.286 248.452 525.672 248.427 526.079C248.407 526.482 248.632 526.905 249.137 526.93Z" fill="#CACEDB"/>
<path d="M262.465 526.659C263.758 526.593 265.063 526.581 266.34 526.371C267.46 526.186 268.651 526.018 269.783 525.997C270.777 525.977 270.691 524.349 269.697 524.37C267.263 524.419 264.833 524.912 262.387 525.032C261.394 525.081 261.468 526.708 262.465 526.659Z" fill="#CACEDB"/>
<path d="M275.71 525.952C276.359 525.899 277.016 525.874 277.668 525.804C278.317 525.735 278.969 525.665 279.606 525.517C280.164 525.389 280.743 525.274 281.317 525.159C281.892 525.044 282.471 524.962 283.037 524.896C284.035 524.785 283.788 523.174 282.811 523.281C282.212 523.351 281.613 523.425 281.014 523.528C280.418 523.63 279.819 523.733 279.22 523.836C278.621 523.943 278.017 524.033 277.418 524.128C276.815 524.214 276.211 524.276 275.604 524.325C275.111 524.362 274.89 524.777 274.914 525.184C274.931 525.591 275.206 525.989 275.71 525.952Z" fill="#CACEDB"/>
<path d="M288.935 524.223C290.212 523.997 291.509 523.808 292.749 523.429C293.836 523.092 294.99 522.76 296.11 522.575C297.091 522.41 296.771 520.815 295.79 520.976C293.393 521.374 291.058 522.192 288.652 522.62C287.675 522.792 287.95 524.399 288.935 524.223Z" fill="#CACEDB"/>
<path d="M301.951 521.675C303.219 521.42 304.512 521.215 305.748 520.808C306.831 520.45 307.981 520.089 309.097 519.867C310.078 519.669 309.692 518.087 308.728 518.28C306.359 518.753 304.036 519.595 301.635 520.076C300.658 520.269 300.974 521.868 301.951 521.675Z" fill="#CACEDB"/>
<path d="M314.922 518.65C315.55 518.473 316.182 518.301 316.806 518.108C317.429 517.914 318.049 517.693 318.644 517.43C319.166 517.187 319.708 516.957 320.245 516.719C320.787 516.489 321.333 516.275 321.875 516.086C322.831 515.761 322.224 514.249 321.3 514.561C320.734 514.759 320.167 514.964 319.609 515.19C319.047 515.416 318.484 515.638 317.922 515.864C317.356 516.082 316.793 516.316 316.219 516.517C315.648 516.727 315.069 516.92 314.482 517.084C313.53 517.352 313.949 518.925 314.922 518.65Z" fill="#CACEDB"/>
<path d="M327.465 514.068C328.656 513.555 329.871 513.086 330.991 512.449C331.976 511.891 333.035 511.328 334.094 510.929C335.022 510.584 334.41 509.072 333.47 509.425C331.18 510.288 329.066 511.599 326.821 512.573C325.914 512.963 326.55 514.463 327.465 514.068Z" fill="#CACEDB"/>
<path d="M339.685 508.92C340.879 508.386 342.09 507.872 343.19 507.178C344.154 506.57 345.181 505.937 346.207 505.46C347.11 505.041 346.379 503.586 345.476 504.006C343.268 505.029 341.248 506.442 339.02 507.432C338.572 507.634 338.507 508.102 338.667 508.476C338.827 508.85 339.225 509.125 339.685 508.92Z" fill="#CACEDB"/>
<path d="M351.613 503.093C352.199 502.81 352.786 502.526 353.373 502.243C353.96 501.959 354.523 501.631 355.069 501.273C355.545 500.957 356.037 500.64 356.542 500.336C357.043 500.036 357.548 499.736 358.057 499.482C358.952 499.034 358.163 497.608 357.281 498.048C356.739 498.315 356.214 498.619 355.684 498.915C355.155 499.215 354.633 499.523 354.108 499.839C353.587 500.156 353.066 500.476 352.528 500.768C351.994 501.064 351.457 501.355 350.907 501.622C350.016 502.062 350.709 503.533 351.613 503.093Z" fill="#CACEDB"/>
<path d="M363.356 496.811C363.918 496.482 364.48 496.153 365.039 495.825C365.601 495.492 366.143 495.134 366.656 494.736C367.107 494.387 367.575 494.029 368.051 493.692C368.532 493.359 369.012 493.022 369.5 492.735C370.358 492.225 369.476 490.857 368.626 491.358C368.105 491.666 367.6 492.003 367.091 492.336C366.586 492.673 366.085 493.022 365.589 493.38C365.092 493.737 364.591 494.087 364.082 494.424C363.573 494.76 363.06 495.093 362.535 495.406C361.681 495.907 362.49 497.32 363.356 496.811Z" fill="#CACEDB"/>
<path d="M374.611 489.71C375.678 488.975 376.802 488.297 377.775 487.438C378.633 486.682 379.561 485.922 380.501 485.281C381.33 484.726 380.378 483.403 379.552 483.954C378.551 484.636 377.582 485.375 376.63 486.144C375.678 486.908 374.709 487.66 373.699 488.354C373.293 488.634 373.305 489.106 373.535 489.447C373.761 489.788 374.196 489.994 374.611 489.71Z" fill="#CACEDB"/>
<path d="M385.443 482.01C386.477 481.23 387.56 480.494 388.496 479.598C389.321 478.809 390.212 478.004 391.127 477.334C391.932 476.747 390.93 475.465 390.13 476.048C389.149 476.763 388.217 477.552 387.298 478.361C386.838 478.764 386.37 479.163 385.902 479.557C385.434 479.952 384.958 480.338 384.466 480.704C383.673 481.291 384.638 482.602 385.443 482.01Z" fill="#CACEDB"/>
<path d="M395.95 473.891C396.459 473.488 396.968 473.081 397.477 472.679C397.982 472.268 398.475 471.844 398.926 471.38C399.726 470.567 400.584 469.724 401.475 469.017C402.259 468.401 401.204 467.16 400.428 467.772C399.48 468.524 398.581 469.35 397.691 470.184C396.8 471.023 395.893 471.853 394.941 472.621C394.157 473.229 395.166 474.507 395.95 473.891Z" fill="#CACEDB"/>
<path d="M406.134 465.332C406.618 464.9 407.119 464.477 407.591 464.033C408.067 463.59 408.535 463.133 408.962 462.649C409.335 462.217 409.717 461.769 410.119 461.342C410.518 460.911 410.936 460.504 411.351 460.117C412.09 459.439 410.944 458.281 410.218 458.946C409.775 459.357 409.331 459.772 408.909 460.208C408.482 460.639 408.071 461.091 407.648 461.531L406.376 462.85C405.949 463.29 405.506 463.709 405.05 464.116C404.311 464.773 405.383 465.997 406.134 465.332Z" fill="#CACEDB"/>
<path d="M415.726 456.087C416.174 455.614 416.625 455.142 417.077 454.669C417.52 454.192 417.934 453.683 418.316 453.161C418.649 452.693 419.006 452.232 419.355 451.756C419.708 451.287 420.077 450.831 420.463 450.412C421.14 449.672 419.884 448.633 419.219 449.36C418.813 449.804 418.423 450.268 418.045 450.741C417.668 451.213 417.286 451.69 416.908 452.167C416.527 452.643 416.161 453.132 415.763 453.597C415.369 454.061 414.967 454.521 414.548 454.969C414.212 455.331 414.331 455.791 414.622 456.074C414.918 456.35 415.386 456.452 415.726 456.087Z" fill="#CACEDB"/>
<path d="M424.399 445.933C424.806 445.42 425.183 444.885 425.573 444.359C425.951 443.825 426.332 443.291 426.632 442.712C426.903 442.206 427.186 441.689 427.486 441.183C427.79 440.686 428.097 440.164 428.409 439.683C428.684 439.256 428.463 438.837 428.11 438.636C427.757 438.434 427.277 438.438 427.014 438.845C426.694 439.347 426.374 439.848 426.053 440.349C425.733 440.863 425.421 441.38 425.113 441.906C424.806 442.432 424.469 442.938 424.145 443.456C423.808 443.965 423.484 444.483 423.102 444.959C422.499 445.732 423.784 446.73 424.399 445.933Z" fill="#CACEDB"/>
<path d="M431.476 434.58C431.775 434.021 432.099 433.454 432.407 432.949C432.727 432.431 433.072 431.922 433.396 431.379C433.967 430.43 434.669 429.448 435.395 428.548C435.716 428.15 435.539 427.706 435.207 427.476C434.874 427.242 434.406 427.201 434.102 427.57C433.36 428.483 432.612 429.456 431.911 430.504C431.562 431.03 431.229 431.577 430.913 432.14C430.597 432.715 430.33 433.257 430.035 433.808C429.567 434.699 431.012 435.447 431.476 434.58Z" fill="#CACEDB"/>
<path d="M438.511 423.317C439.016 422.109 439.541 420.889 439.828 419.599C439.951 419.028 440.079 418.44 440.206 417.852C440.333 417.207 440.382 416.616 440.469 416.045C440.543 415.547 440.185 415.26 439.8 415.214C439.41 415.169 438.987 415.379 438.913 415.86C438.823 416.447 438.753 417.031 438.638 417.52C438.498 418.087 438.342 418.67 438.187 419.25C437.866 420.408 437.501 421.571 437.033 422.697C436.643 423.601 438.117 424.25 438.511 423.317Z" fill="#CACEDB"/>
<path d="M486.493 418.65L479.048 405.986L480.817 402.551C481.162 401.881 480.858 401.034 480.144 400.665L477.065 399.079C476.4 398.738 475.612 398.927 475.226 399.489L471.733 393.548L473.117 390.861C473.486 390.146 473.203 389.258 472.484 388.888L469.406 387.302C468.971 387.076 468.47 387.097 468.06 387.31L464.32 380.95C466.931 375.879 468.774 372.3 468.836 372.177C471.52 366.963 473.285 357.031 470.022 355.351C466.759 353.666 459.703 360.869 457.018 366.083C456.957 366.207 455.114 369.781 452.503 374.856L445.156 375.497C445.09 375.041 444.82 374.622 444.38 374.396L441.302 372.81C440.588 372.44 439.701 372.723 439.332 373.443L437.949 376.13L431.09 376.73C431.324 376.089 431.02 375.337 430.359 374.992L427.281 373.406C426.566 373.036 425.696 373.282 425.356 373.952L423.587 377.387L408.966 378.665C407.357 378.805 405.957 379.824 405.325 381.311L405.206 381.595C404.094 384.225 405.756 387.199 408.576 387.623L418.928 389.176C418.62 390.865 418.71 392.217 419.576 392.673C420.722 393.277 422.273 391.88 423.763 389.903L432.169 391.165C432.108 392.249 432.313 393.059 432.929 393.383C433.799 393.84 434.936 393.079 436.118 391.756L443.252 392.825C438.474 402.107 434.263 410.284 434.168 410.469C433.204 412.346 432.305 414.931 431.705 417.553L416.018 419.295C415.39 419.365 414.827 419.714 414.487 420.244C413.653 421.534 414.437 423.256 415.956 423.474L430.831 425.586C429.091 430.048 427.355 435.328 428.684 435.784C429.99 436.232 433.134 431.942 435.646 428.08L445.977 438.964C447.036 440.078 448.891 439.721 449.458 438.291C449.692 437.703 449.647 437.041 449.339 436.491L441.655 422.689C443.436 420.679 445.025 418.444 445.989 416.57C446.084 416.386 450.295 408.209 455.073 398.926L460.08 404.12C459.69 405.85 459.732 407.223 460.606 407.662C461.226 407.974 462.005 407.67 462.851 406.992L468.753 413.115C468.006 415.478 467.772 417.548 468.926 418.136C469.8 418.58 470.949 417.869 472.148 416.636L479.417 424.176C481.4 426.231 484.786 425.861 486.276 423.428L486.436 423.165C487.298 421.772 487.314 420.043 486.493 418.65Z" fill="#CACEDB"/>
<path d="M24.998 373.406C24.998 366.502 19.4076 360.906 12.5118 360.906C5.61614 360.906 0.0256815 366.502 0.0256815 373.406C0.0256815 373.406 -0.101556 374.038 0.210393 375.559C0.358158 376.405 0.588015 377.227 0.895859 378.008C2.1806 381.755 5.25083 388.103 12.5118 398.133C19.7729 388.103 22.8431 381.755 24.1278 378.008C24.4357 377.227 24.6696 376.409 24.8133 375.559C25.1252 374.034 24.998 373.406 24.998 373.406ZM12.5077 380.987C8.32516 380.987 4.93477 377.593 4.93477 373.406C4.93477 369.218 8.32516 365.824 12.5077 365.824C16.6903 365.824 20.0807 369.218 20.0807 373.406C20.0848 377.593 16.6903 380.987 12.5077 380.987Z" fill="#CACEDB"/>
<path d="M15.3029 403.467C15.3029 405.012 14.051 406.265 12.5077 406.265C10.9644 406.265 9.71246 405.012 9.71246 403.467C9.71246 401.922 10.9644 400.669 12.5077 400.669C14.051 400.669 15.3029 401.922 15.3029 403.467Z" fill="#CACEDB"/>
</svg>
