<svg width="1038" height="625" viewBox="0 0 1038 625" fill="none" xmlns="http://www.w3.org/2000/svg">
<path d="M870.68 86.6054C871.847 57.351 852.686 32.8318 827.883 31.8404C803.079 30.849 782.026 53.7607 780.859 83.0151C779.692 112.269 798.853 136.789 823.657 137.78C848.46 138.771 869.513 115.86 870.68 86.6054Z" fill="#EBEBEB"/>
<path d="M857.08 86.296C855.807 112.953 838.049 134.137 816.141 136.73C818.459 137.289 820.834 137.647 823.267 137.776C848.065 139.05 869.301 116.362 870.703 87.1268C872.106 57.8777 853.145 33.1549 828.347 31.8801C826.157 31.7655 823.982 31.8514 821.85 32.0949C843.057 37.2228 858.34 59.926 857.08 86.296Z" fill="#E0E0E0"/>
<path d="M506.192 604.8C535.293 601.946 557.763 588.176 556.38 574.045C554.996 559.913 530.284 550.77 501.184 553.624C472.083 556.478 449.613 570.248 450.997 584.379C452.38 598.511 477.092 607.654 506.192 604.8Z" fill="#EBEBEB"/>
<path d="M504.122 597.181C477.564 599.272 455.441 591.423 451.549 579.234C451.134 580.609 450.919 581.998 450.948 583.402C451.191 597.64 475.002 607.308 504.137 605.016C533.271 602.724 556.696 589.317 556.453 575.08C556.438 573.819 556.224 572.602 555.837 571.413C552.017 584.018 530.395 595.119 504.122 597.181Z" fill="#E0E0E0"/>
<path d="M131.382 526.784C146.195 514.363 146.354 490.135 131.737 472.669C117.12 455.204 93.2629 451.115 78.45 463.536C63.6371 475.957 63.4782 500.185 78.0951 517.651C92.712 535.116 116.569 539.206 131.382 526.784Z" fill="#EBEBEB"/>
<path d="M86.3372 510.923C99.7883 526.737 120.795 531.335 135.519 522.497C134.36 523.944 133.058 525.29 131.627 526.536C116.96 539.127 93.1057 535.26 78.3382 517.913C63.5849 500.567 63.5134 476.303 78.1808 463.712C79.4829 462.595 80.8567 461.621 82.2876 460.762C71.6699 474.026 73.0293 495.282 86.3372 510.923Z" fill="#E0E0E0"/>
<path d="M80.8104 316.917C81.0286 302.062 72.9801 289.899 62.8337 289.75C52.6873 289.6 44.2851 301.522 44.0669 316.376C43.8487 331.231 51.8972 343.395 62.0436 343.544C72.19 343.693 80.5922 331.772 80.8104 316.917Z" fill="#EBEBEB"/>
<path d="M49.6536 316.206C49.3674 329.742 55.9498 341.144 64.8075 343.293C63.8488 343.493 62.8614 343.579 61.874 343.551C51.7285 343.25 43.7723 330.96 44.0872 316.106C44.402 301.252 52.8876 289.45 63.0331 289.75C63.9346 289.779 64.8075 289.894 65.6661 290.109C56.8657 291.899 49.9398 302.814 49.6536 316.206Z" fill="#E0E0E0"/>
<path d="M924.284 437.285C916.585 451.824 920.363 468.869 932.712 475.372C945.061 481.875 961.303 475.358 969.001 460.819C976.7 446.281 972.922 429.235 960.573 422.732C948.224 416.229 931.982 422.747 924.284 437.285Z" fill="#EBEBEB"/>
<path d="M962.169 457.31C969.181 444.06 966.662 428.72 956.817 421.2C958.091 421.586 959.35 422.102 960.566 422.747C972.916 429.25 976.679 446.295 968.995 460.833C961.296 475.372 945.055 481.875 932.706 475.386C931.618 474.813 930.588 474.154 929.629 473.424C941.334 476.991 955.229 470.416 962.169 457.31Z" fill="#E0E0E0"/>
<path d="M279.317 84.2794C286.851 62.7813 278.177 40.1637 259.944 33.7615C241.711 27.3594 220.823 39.5971 213.29 61.0952C205.756 82.5933 214.429 105.211 232.662 111.613C250.895 118.015 271.783 105.778 279.317 84.2794Z" fill="#EBEBEB"/>
<path d="M220.668 63.4496C213.956 83.1018 220.739 103.528 235.85 111.692C234.019 111.434 232.187 111.004 230.398 110.403C212.096 104.201 203.224 81.6981 210.594 60.1409C217.949 38.5836 238.755 26.1219 257.057 32.3241C258.674 32.8684 260.22 33.556 261.693 34.3438C244.865 31.966 227.307 43.998 220.668 63.4496Z" fill="#E0E0E0"/>
<path d="M723.806 70.7977L729.816 74.3787C730.588 74.837 730.531 75.9972 729.701 76.4126L723.319 79.6068C723.119 79.7071 722.947 79.8646 722.833 80.0509L719.098 86.1385C718.611 86.9263 717.466 86.8976 717.066 86.0812L714.018 79.7787C713.918 79.5782 713.775 79.4206 713.589 79.306L707.578 75.7251C706.791 75.2667 706.863 74.1065 707.693 73.6911L714.075 70.4969C714.275 70.3966 714.447 70.2391 714.562 70.0529L718.296 63.9653C718.783 63.1775 719.928 63.2061 720.328 64.0226L723.376 70.325C723.477 70.5112 723.62 70.6831 723.806 70.7977Z" fill="#E0E0E0"/>
<path d="M141.562 589.146L147.572 592.727C148.344 593.185 148.287 594.345 147.457 594.761L141.075 597.955C140.875 598.055 140.703 598.213 140.589 598.399L136.854 604.486C136.367 605.274 135.223 605.246 134.822 604.429L131.774 598.127C131.674 597.926 131.531 597.769 131.345 597.654L125.335 594.073C124.562 593.615 124.619 592.454 125.449 592.039L131.831 588.845C132.031 588.745 132.203 588.587 132.318 588.401L136.052 582.313C136.539 581.525 137.684 581.554 138.084 582.371L141.132 588.673C141.218 588.859 141.376 589.031 141.562 589.146Z" fill="#E0E0E0"/>
<path d="M672.655 584.892L678.665 588.472C679.452 588.931 679.381 590.091 678.551 590.506L672.169 593.701C671.969 593.801 671.797 593.958 671.682 594.145L667.948 600.232C667.461 601.02 666.316 600.991 665.916 600.175L662.868 593.873C662.767 593.672 662.624 593.514 662.438 593.4L656.428 589.819C655.656 589.361 655.713 588.2 656.543 587.785L662.925 584.591C663.125 584.49 663.297 584.333 663.411 584.147L667.146 578.059C667.633 577.271 668.777 577.3 669.178 578.116L672.226 584.419C672.326 584.619 672.469 584.777 672.655 584.892Z" fill="#E0E0E0"/>
<path d="M934.745 579.721L940.755 583.302C941.528 583.76 941.471 584.92 940.641 585.336L934.259 588.53C934.058 588.63 933.887 588.788 933.772 588.974L930.037 595.061C929.551 595.849 928.406 595.821 928.005 595.004L924.958 588.702C924.857 588.501 924.714 588.344 924.528 588.229L918.518 584.648C917.745 584.19 917.803 583.029 918.633 582.614L925.015 579.42C925.215 579.32 925.387 579.162 925.501 578.976L929.236 572.888C929.723 572.1 930.867 572.129 931.268 572.946L934.316 579.248C934.402 579.449 934.559 579.606 934.745 579.721Z" fill="#E0E0E0"/>
<path d="M292.655 140.182L298.665 143.763C299.453 144.221 299.381 145.381 298.551 145.797L292.169 148.991C291.969 149.091 291.797 149.249 291.682 149.435L287.948 155.523C287.461 156.311 286.316 156.282 285.916 155.465L282.868 149.163C282.767 148.962 282.624 148.805 282.438 148.69L276.428 145.109C275.656 144.651 275.713 143.491 276.543 143.075L282.925 139.881C283.125 139.781 283.297 139.623 283.411 139.437L287.146 133.35C287.633 132.562 288.778 132.59 289.178 133.407L292.226 139.709C292.312 139.91 292.469 140.067 292.655 140.182Z" fill="#E0E0E0"/>
<path d="M331.077 19.2322L337.087 22.8132C337.86 23.2715 337.803 24.4318 336.973 24.8471L330.591 28.0413C330.39 28.1416 330.219 28.2992 330.104 28.4854L326.369 34.573C325.883 35.3608 324.738 35.3321 324.337 34.5157L321.29 28.2132C321.189 28.0127 321.046 27.8551 320.86 27.7405L314.85 24.1596C314.077 23.7012 314.135 22.541 314.965 22.1256L321.347 18.9314C321.547 18.8312 321.719 18.6736 321.833 18.4874L325.568 12.3998C326.055 11.612 327.199 11.6406 327.6 12.4571L330.648 18.7595C330.734 18.9601 330.877 19.1176 331.077 19.2322Z" fill="#E0E0E0"/>
<path d="M136.211 71.9293L139.259 73.7484C139.66 73.9776 139.617 74.5648 139.202 74.7797L135.968 76.3983C135.867 76.4556 135.782 76.5272 135.724 76.6275L133.835 79.7214C133.592 80.1225 133.006 80.1081 132.805 79.6927L131.26 76.4986C131.217 76.3983 131.131 76.3123 131.045 76.255L127.997 74.4359C127.596 74.2068 127.639 73.6195 128.054 73.4046L131.288 71.786C131.389 71.7287 131.474 71.6571 131.532 71.5569L133.421 68.4629C133.664 68.0619 134.25 68.0762 134.451 68.4916L135.996 71.6858C136.039 71.786 136.111 71.872 136.211 71.9293Z" fill="#E0E0E0"/>
<path d="M476.504 54.2824L479.552 56.1015C479.952 56.3307 479.91 56.918 479.495 57.1328L476.261 58.7514C476.16 58.8087 476.075 58.8803 476.017 58.9806L474.128 62.0745C473.885 62.4756 473.298 62.4613 473.098 62.0459L471.553 58.8517C471.51 58.7514 471.424 58.6655 471.338 58.6082L468.29 56.789C467.889 56.5599 467.932 55.9726 468.347 55.7577L471.581 54.1392C471.681 54.0819 471.767 54.0102 471.825 53.91L473.713 50.816C473.957 50.415 474.543 50.4293 474.744 50.8447L476.289 54.0389C476.332 54.1535 476.404 54.2394 476.504 54.2824Z" fill="#E0E0E0"/>
<path d="M759.582 34.1576L762.63 35.9767C763.031 36.2059 762.988 36.7931 762.573 37.008L759.339 38.6266C759.239 38.6839 759.153 38.7555 759.095 38.8558L757.207 41.9497C756.963 42.3508 756.377 42.3364 756.176 41.921L754.631 38.7269C754.588 38.6266 754.502 38.5406 754.416 38.4834L751.368 36.6642C750.968 36.4351 751.01 35.8478 751.425 35.6329L754.659 34.0143C754.76 33.957 754.845 33.8854 754.903 33.7852L756.792 30.6912C757.035 30.2902 757.622 30.3045 757.822 30.7199L759.367 33.9141C759.41 34.0143 759.496 34.1003 759.582 34.1576Z" fill="#E0E0E0"/>
<path d="M955.082 44.1126L958.13 45.9317C958.531 46.1609 958.488 46.7482 958.073 46.963L954.839 48.5816C954.739 48.6389 954.653 48.7105 954.595 48.8108L952.707 51.9047C952.463 52.3058 951.877 52.2915 951.676 51.8761L950.131 48.6819C950.088 48.5816 950.002 48.4957 949.916 48.4384L946.868 46.6193C946.468 46.3901 946.51 45.8028 946.925 45.5879L950.159 43.9694C950.26 43.9121 950.345 43.8404 950.403 43.7402L952.292 40.6462C952.535 40.2452 953.122 40.2595 953.322 40.6749L954.867 43.8691C954.91 43.9694 954.982 44.0553 955.082 44.1126Z" fill="#E0E0E0"/>
<path d="M605.636 615.53L609.214 617.621C609.672 617.893 609.643 618.581 609.157 618.824L605.393 620.758C605.279 620.815 605.178 620.916 605.107 621.03L602.932 624.654C602.646 625.127 601.959 625.113 601.73 624.626L599.884 620.901C599.827 620.787 599.741 620.687 599.626 620.629L596.049 618.538C595.591 618.266 595.62 617.578 596.106 617.335L599.87 615.401C599.984 615.344 600.084 615.244 600.156 615.129L602.331 611.505C602.617 611.032 603.304 611.047 603.533 611.534L605.379 615.258C605.436 615.372 605.536 615.473 605.636 615.53Z" fill="#E0E0E0"/>
<path d="M979.832 355.883L983.409 357.974C983.867 358.247 983.838 358.934 983.352 359.178L979.588 361.111C979.474 361.169 979.374 361.269 979.302 361.384L977.127 365.007C976.841 365.48 976.154 365.466 975.925 364.979L974.079 361.255C974.022 361.14 973.936 361.04 973.822 360.982L970.244 358.891C969.786 358.619 969.815 357.932 970.302 357.688L974.065 355.754C974.179 355.697 974.28 355.597 974.351 355.482L976.526 351.858C976.812 351.386 977.499 351.4 977.728 351.887L979.574 355.611C979.631 355.726 979.732 355.826 979.832 355.883Z" fill="#E0E0E0"/>
<path d="M56.3238 387.768L59.2001 389.487C59.5721 389.716 59.5435 390.26 59.1428 390.461L56.0806 391.994C55.9804 392.037 55.9089 392.123 55.8516 392.208L54.0629 395.13C53.834 395.503 53.2759 395.489 53.0899 395.102L51.6303 392.08C51.5873 391.979 51.5158 391.908 51.4156 391.85L48.5394 390.132C48.1673 389.902 48.196 389.358 48.5966 389.157L51.6589 387.625C51.7591 387.582 51.8306 387.496 51.8878 387.41L53.6765 384.488C53.9055 384.116 54.4636 384.13 54.6496 384.517L56.1092 387.539C56.1664 387.625 56.238 387.711 56.3238 387.768Z" fill="#E0E0E0"/>
<path d="M360.605 600.762L363.481 602.481C363.853 602.71 363.825 603.255 363.424 603.455L360.362 604.988C360.262 605.031 360.19 605.117 360.133 605.203L358.344 608.125C358.115 608.497 357.557 608.483 357.371 608.096L355.912 605.074C355.869 604.973 355.797 604.902 355.697 604.844L352.821 603.126C352.449 602.896 352.477 602.352 352.878 602.152L355.94 600.619C356.04 600.576 356.112 600.49 356.169 600.404L357.958 597.482C358.187 597.11 358.745 597.124 358.931 597.511L360.39 600.533C360.448 600.633 360.519 600.719 360.605 600.762Z" fill="#E0E0E0"/>
<path d="M909.218 530.69L912.095 532.409C912.467 532.638 912.438 533.183 912.037 533.383L908.975 534.916C908.875 534.959 908.803 535.045 908.746 535.131L906.957 538.053C906.728 538.425 906.17 538.411 905.984 538.024L904.525 535.002C904.482 534.902 904.41 534.83 904.31 534.773L901.434 533.054C901.062 532.825 901.09 532.28 901.491 532.08L904.553 530.547C904.654 530.504 904.725 530.418 904.782 530.332L906.571 527.41C906.8 527.038 907.358 527.052 907.544 527.439L909.004 530.461C909.061 530.562 909.133 530.647 909.218 530.69Z" fill="#E0E0E0"/>
<path d="M848.343 598.728L851.22 600.447C851.592 600.676 851.563 601.221 851.162 601.421L848.1 602.954C848 602.997 847.928 603.083 847.871 603.169L846.082 606.091C845.854 606.463 845.295 606.449 845.109 606.062L843.65 603.04C843.607 602.939 843.535 602.868 843.435 602.811L840.559 601.092C840.187 600.862 840.216 600.318 840.616 600.118L843.678 598.585C843.779 598.542 843.85 598.456 843.907 598.37L845.696 595.448C845.925 595.076 846.483 595.09 846.669 595.477L848.129 598.499C848.186 598.599 848.257 598.671 848.343 598.728Z" fill="#E0E0E0"/>
<path d="M909.898 160.522L913.017 162.384C913.418 162.627 913.39 163.229 912.96 163.444L909.64 165.105C909.54 165.163 909.454 165.234 909.383 165.334L907.451 168.5C907.194 168.915 906.607 168.887 906.392 168.471L904.804 165.206C904.761 165.105 904.675 165.019 904.575 164.962L901.455 163.1C901.055 162.856 901.083 162.255 901.513 162.04L904.832 160.378C904.933 160.321 905.018 160.25 905.09 160.149L907.022 156.984C907.279 156.568 907.866 156.597 908.081 157.012L909.669 160.278C909.712 160.378 909.798 160.464 909.898 160.522Z" fill="#E0E0E0"/>
<path d="M810.016 215.009L811.505 215.926C811.691 216.041 811.691 216.327 811.49 216.427L809.959 217.158C809.916 217.186 809.873 217.215 809.845 217.258L808.986 218.719C808.871 218.905 808.599 218.891 808.485 218.69L807.698 217.129C807.669 217.086 807.64 217.043 807.583 217.015L806.095 216.098C805.909 215.983 805.909 215.697 806.109 215.597L807.64 214.866C807.683 214.837 807.726 214.809 807.755 214.766L808.614 213.305C808.728 213.119 809 213.133 809.115 213.333L809.902 214.895C809.93 214.938 809.973 214.981 810.016 215.009Z" fill="#3cb371"/>
<path d="M811.184 431.527L812.673 432.444C812.859 432.558 812.859 432.845 812.658 432.945L811.127 433.676C811.084 433.704 811.041 433.733 811.013 433.776L810.154 435.237C810.039 435.423 809.767 435.409 809.653 435.208L808.866 433.647C808.837 433.604 808.808 433.561 808.751 433.532L807.263 432.616C807.077 432.501 807.077 432.215 807.277 432.114L808.808 431.384C808.851 431.355 808.894 431.327 808.923 431.284L809.782 429.823C809.896 429.636 810.168 429.651 810.283 429.851L811.07 431.413C811.098 431.456 811.141 431.498 811.184 431.527Z" fill="#3cb371"/>
<path d="M870.621 332.307L873.497 334.025C873.869 334.255 873.84 334.799 873.44 334.999L870.377 336.532C870.277 336.575 870.206 336.661 870.149 336.747L868.36 339.669C868.131 340.041 867.573 340.027 867.387 339.64L865.927 336.618C865.884 336.518 865.813 336.446 865.712 336.389L862.836 334.67C862.464 334.441 862.493 333.896 862.894 333.696L865.956 332.163C866.056 332.12 866.127 332.034 866.185 331.948L867.973 329.026C868.202 328.654 868.76 328.668 868.946 329.055L870.406 332.077C870.449 332.178 870.521 332.264 870.621 332.307Z" fill="#3cb371"/>
<path d="M794.048 231.224L796.939 233.014C797.311 233.243 797.297 233.788 796.91 233.974L793.948 235.392C793.848 235.435 793.777 235.507 793.719 235.592L792.045 238.429C791.83 238.801 791.287 238.758 791.086 238.371L789.555 235.335C789.512 235.234 789.426 235.163 789.341 235.105L786.45 233.315C786.078 233.086 786.092 232.542 786.479 232.355L789.441 230.937C789.541 230.894 789.612 230.823 789.67 230.737L791.344 227.901C791.559 227.528 792.102 227.571 792.303 227.958L793.834 230.995C793.891 231.081 793.963 231.166 794.048 231.224Z" fill="#3cb371"/>
<path d="M114.219 315.476L116.408 316.865C116.694 317.052 116.68 317.467 116.38 317.596L114.104 318.642C114.033 318.67 113.976 318.728 113.933 318.799L112.63 320.948C112.459 321.22 112.044 321.191 111.901 320.89L110.756 318.556C110.727 318.484 110.67 318.427 110.598 318.384L108.409 316.994C108.123 316.808 108.137 316.393 108.438 316.264L110.713 315.218C110.785 315.19 110.842 315.132 110.885 315.061L112.187 312.912C112.359 312.64 112.774 312.669 112.917 312.969L114.061 315.304C114.104 315.361 114.147 315.433 114.219 315.476Z" fill="#3cb371"/>
<path d="M161.621 365.036L163.739 366.254C164.011 366.411 164.011 366.798 163.753 366.941L161.664 368.03C161.593 368.059 161.55 368.116 161.507 368.187L160.376 370.264C160.233 370.537 159.833 370.522 159.69 370.25L158.516 368.116C158.473 368.044 158.43 367.987 158.359 367.958L156.241 366.741C155.969 366.583 155.969 366.196 156.227 366.053L158.316 364.965C158.387 364.936 158.43 364.879 158.473 364.807L159.604 362.73C159.747 362.458 160.147 362.472 160.291 362.744L161.464 364.879C161.507 364.95 161.564 365.008 161.621 365.036Z" fill="#3cb371"/>
<path d="M225.004 200.829L227.122 202.046C227.394 202.204 227.394 202.591 227.136 202.734L225.047 203.822C224.976 203.851 224.933 203.908 224.89 203.98L223.759 206.057C223.616 206.329 223.215 206.315 223.072 206.043L221.899 203.908C221.856 203.837 221.813 203.779 221.742 203.751L219.624 202.533C219.352 202.376 219.352 201.989 219.609 201.846L221.699 200.757C221.77 200.728 221.813 200.671 221.856 200.6L222.986 198.523C223.13 198.25 223.53 198.265 223.673 198.537L224.847 200.671C224.89 200.728 224.947 200.786 225.004 200.829Z" fill="#3cb371"/>
<path d="M389.485 166.022L391.602 167.24C391.874 167.397 391.874 167.784 391.617 167.927L389.528 169.016C389.456 169.044 389.413 169.102 389.37 169.173L388.24 171.25C388.097 171.522 387.696 171.508 387.553 171.236L386.379 169.102C386.336 169.03 386.294 168.973 386.222 168.944L384.104 167.727C383.832 167.569 383.832 167.182 384.09 167.039L386.179 165.95C386.251 165.922 386.294 165.864 386.336 165.793L387.467 163.716C387.61 163.444 388.011 163.458 388.154 163.73L389.327 165.864C389.37 165.936 389.427 165.993 389.485 166.022Z" fill="#3cb371"/>
<path d="M146.171 373.015L150.363 375.421C150.907 375.736 150.922 376.51 150.378 376.796L146.228 378.959C146.099 379.031 145.985 379.131 145.927 379.26L143.695 383.371C143.409 383.901 142.622 383.886 142.321 383.328L139.989 379.088C139.917 378.959 139.803 378.844 139.674 378.773L135.481 376.366C134.938 376.051 134.923 375.278 135.467 374.991L139.617 372.828C139.746 372.757 139.86 372.656 139.917 372.528L142.15 368.417C142.436 367.887 143.223 367.901 143.523 368.46L145.856 372.699C145.927 372.828 146.042 372.943 146.171 373.015Z" fill="#3cb371"/>
<path d="M419.155 144.035L423.348 146.441C423.892 146.757 423.906 147.53 423.362 147.817L419.212 149.979C419.084 150.051 418.969 150.151 418.912 150.28L416.68 154.391C416.393 154.921 415.606 154.907 415.306 154.348L412.973 150.108C412.902 149.979 412.787 149.865 412.659 149.793L408.466 147.387C407.922 147.072 407.908 146.298 408.452 146.012L412.601 143.849C412.73 143.777 412.845 143.677 412.902 143.548L415.134 139.437C415.42 138.907 416.207 138.921 416.508 139.48L418.84 143.72C418.912 143.849 419.026 143.949 419.155 144.035Z" fill="#3cb371"/>
<path d="M359.147 552.749L363.34 555.155C363.884 555.47 363.898 556.244 363.354 556.53L359.205 558.693C359.076 558.765 358.961 558.865 358.904 558.994L356.672 563.105C356.386 563.635 355.599 563.621 355.298 563.062L352.966 558.822C352.894 558.693 352.78 558.579 352.651 558.507L348.458 556.101C347.914 555.786 347.9 555.012 348.444 554.726L352.594 552.563C352.722 552.491 352.837 552.391 352.894 552.262L355.126 548.151C355.412 547.621 356.2 547.635 356.5 548.194L358.832 552.434C358.904 552.563 359.019 552.663 359.147 552.749Z" fill="#3cb371"/>
<path d="M749.8 478.065L753.992 480.471C754.536 480.787 754.55 481.56 754.007 481.846L749.857 484.009C749.728 484.081 749.614 484.181 749.556 484.31L747.324 488.421C747.038 488.951 746.251 488.937 745.95 488.378L743.618 484.138C743.546 484.009 743.432 483.895 743.303 483.823L739.11 481.417C738.567 481.102 738.552 480.328 739.096 480.042L743.246 477.879C743.375 477.807 743.489 477.707 743.546 477.578L745.779 473.467C746.065 472.937 746.852 472.951 747.152 473.51L749.485 477.75C749.556 477.879 749.671 477.993 749.8 478.065Z" fill="#3cb371"/>
<path d="M692.053 166.996L694.786 168.557C695.144 168.758 695.144 169.274 694.8 169.445L692.096 170.849C692.01 170.892 691.938 170.964 691.895 171.05L690.436 173.728C690.25 174.072 689.735 174.058 689.549 173.7L688.032 170.935C687.989 170.849 687.917 170.777 687.831 170.72L685.098 169.159C684.74 168.958 684.741 168.443 685.084 168.271L687.788 166.867C687.874 166.824 687.946 166.753 687.989 166.667L689.448 163.988C689.634 163.644 690.15 163.659 690.336 164.017L691.852 166.781C691.895 166.881 691.967 166.953 692.053 166.996Z" fill="#3cb371"/>
<path d="M389.337 101.069C406.489 95.7492 418.196 84.3429 415.487 75.5926C412.779 66.8423 396.679 64.0616 379.528 69.3817C362.376 74.7018 350.669 86.1081 353.378 94.8584C356.086 103.609 372.186 106.389 389.337 101.069Z" fill="#131B23"/>
<path d="M380.409 74.3643C395.978 69.3223 410.96 70.9409 415.868 77.802C415.825 76.9139 415.668 76.0258 415.353 75.1807C412.219 66.5578 395.835 64.0655 378.749 69.6088C361.663 75.1521 350.373 86.6254 353.507 95.234C353.779 95.9931 354.165 96.7093 354.651 97.3826C354.308 89.175 365.012 79.3633 380.409 74.3643Z" fill="#455A64"/>
<path d="M818.588 570.079C843.328 546.955 851.355 515.314 836.517 499.408C821.678 483.502 789.594 489.353 764.854 512.478C740.114 535.602 732.087 567.243 746.926 583.149C761.764 599.055 793.849 593.204 818.588 570.079Z" fill="#131B23"/>
<path d="M810.582 561.128C788.059 582.227 759.396 589.003 743.227 578.031C744.257 579.878 745.487 581.583 746.961 583.144C761.843 599.015 793.94 593.099 818.653 569.952C843.365 546.805 851.321 515.164 836.439 499.307C835.123 497.903 833.663 496.672 832.089 495.612C841.534 512.499 832.862 540.259 810.582 561.128Z" fill="#455A64"/>
<path d="M656.325 160.289C658.979 143.065 624.703 123.48 579.77 116.544C534.836 109.608 496.258 117.948 493.605 135.172C490.952 152.395 525.227 171.98 570.161 178.916C615.095 185.852 653.672 177.512 656.325 160.289Z" fill="#131B23"/>
<path d="M580.462 126.345C621.287 133.307 652.025 150.466 653.742 166.265C654.843 164.79 655.631 163.215 656.074 161.553C660.567 144.622 627.913 124.712 583.124 117.063C538.334 109.429 498.382 116.949 493.874 133.879C493.474 135.383 493.374 136.902 493.545 138.434C503.634 124.913 540.08 119.455 580.462 126.345Z" fill="#455A64"/>
<path d="M571.504 145.038C581.764 150.409 588.661 160.55 598.163 167.154C604.459 171.522 612.086 174.545 616.336 180.933C615.921 177.195 613.36 174.086 610.812 171.336C603.629 163.573 595.558 156.626 586.815 150.667C582.322 147.616 577.342 144.723 571.919 144.751" fill="#455A64"/>
<g opacity="0.2">
<path opacity="0.2" d="M571.504 145.038C581.764 150.409 588.661 160.55 598.163 167.154C604.459 171.522 612.086 174.545 616.336 180.933C615.921 177.195 613.36 174.086 610.812 171.336C603.629 163.573 595.558 156.626 586.815 150.667C582.322 147.616 577.342 144.723 571.919 144.751" fill="#131B23"/>
</g>
<path d="M620.326 6.41244C620.14 4.75088 619.839 2.97474 618.709 1.74289C617.163 0.0526901 614.573 -0.119195 612.284 0.0526896C602.525 0.783201 590.104 15.2645 584.137 23.028L585.138 66.1281C611.869 52.1195 622.615 27.1103 620.326 6.41244Z" fill="#455A64"/>
<g opacity="0.2">
<path opacity="0.2" d="M620.326 6.41244C620.14 4.75088 619.839 2.97474 618.709 1.74289C617.163 0.0526901 614.573 -0.119195 612.284 0.0526896C602.525 0.783201 590.104 15.2645 584.137 23.028L585.138 66.1281C611.869 52.1195 622.615 27.1103 620.326 6.41244Z" fill="#131B23"/>
</g>
<path d="M578.062 94.9332C583.171 93.2287 588.294 91.6674 593.374 90.8366C598.454 90.0058 603.577 87.8716 608.585 86.6971C615.082 85.1644 621.163 82.228 627.402 79.836C633.641 77.4439 640.295 75.5532 646.935 76.2837C642.027 73.8057 636.446 72.9033 630.951 72.9176C625.456 72.9176 620.004 73.7914 614.581 74.6508C607.054 75.854 599.384 77.1001 592.558 80.5092C585.747 83.9326 579.479 87.4276 578.062 94.9332Z" fill="#455A64"/>
<g opacity="0.2">
<path opacity="0.2" d="M578.062 94.9332C583.171 93.2287 588.294 91.6674 593.374 90.8366C598.454 90.0058 603.577 87.8716 608.585 86.6971C615.082 85.1644 621.163 82.228 627.402 79.836C633.641 77.4439 640.295 75.5532 646.935 76.2837C642.027 73.8057 636.446 72.9033 630.951 72.9176C625.456 72.9176 620.004 73.7914 614.581 74.6508C607.054 75.854 599.384 77.1001 592.558 80.5092C585.747 83.9326 579.479 87.4276 578.062 94.9332Z" fill="#131B23"/>
</g>
<path d="M543.389 96.3943C536.778 86.7114 523.556 83.8753 512.18 81.0535C527.305 94.1025 542.931 110.603 554.608 126.804C557.255 118.94 551.746 108.641 543.389 96.3943Z" fill="#455A64"/>
<g opacity="0.2">
<path opacity="0.2" d="M543.389 96.3943C536.778 86.7114 523.556 83.8753 512.18 81.0535C527.305 94.1025 542.931 110.603 554.608 126.804C557.255 118.94 551.746 108.641 543.389 96.3943Z" fill="#131B23"/>
</g>
<path d="M551.911 156.54C538.303 152.601 527.084 137.045 513.676 132.648C529.144 131.931 548.505 141.228 551.911 156.54Z" fill="#455A64"/>
<g opacity="0.2">
<path opacity="0.2" d="M551.911 156.54C538.303 152.601 527.084 137.045 513.676 132.648C529.144 131.931 548.505 141.228 551.911 156.54Z" fill="#131B23"/>
</g>
<path d="M565.465 125.099C573.078 124.483 580.733 126.431 587.716 129.554C594.699 132.676 601.096 136.916 607.464 141.156C608.05 136.214 605.174 131.602 602.427 127.462C600.352 124.354 598.277 121.217 595.658 118.539C593.04 115.875 589.82 113.669 586.171 112.852C581.778 111.85 577.027 112.967 573.278 115.488C569.543 118.009 567.11 120.902 565.465 125.099Z" fill="#455A64"/>
<path d="M552.945 175.289C552.945 175.289 559.699 129.095 567.183 103.628C574.667 78.1601 581.922 49.1832 581.922 49.1832L584.87 49.9853C584.87 49.9853 569.072 100.29 562.919 131.559C556.766 162.799 558.812 176.836 558.812 176.836L552.945 175.289Z" fill="#455A64"/>
<path d="M617.588 3.17526C617.602 3.18959 617.488 3.34715 617.273 3.64795C617.015 3.99172 616.701 4.42143 616.3 4.93708C615.441 6.05434 614.225 7.67292 612.737 9.7069C609.761 13.7605 605.825 19.49 601.905 26.0933C597.998 32.6965 594.85 38.8987 592.703 43.4537C591.63 45.7311 590.786 47.5789 590.228 48.868C589.956 49.4696 589.727 49.9566 589.555 50.3434C589.398 50.6728 589.312 50.8447 589.283 50.8447C589.269 50.8447 589.326 50.6585 589.455 50.3004C589.613 49.8993 589.799 49.398 590.042 48.7821C590.557 47.4643 591.344 45.5879 592.374 43.2961C594.435 38.6982 597.54 32.453 601.461 25.8354C605.396 19.2179 609.388 13.5027 612.436 9.50637C613.968 7.50104 615.227 5.89678 616.143 4.8225C616.572 4.32117 616.915 3.90578 617.187 3.59065C617.445 3.30418 617.574 3.16094 617.588 3.17526Z" fill="#455A64"/>
<path d="M576.965 72.6311C568.164 62.8766 565.646 49.3693 569.309 36.7644C571.871 27.941 577.451 20.3494 583.275 13.2448C583.776 12.6289 584.349 11.97 585.136 11.8268C586.223 11.6263 587.21 12.4714 587.94 13.3021C594.294 20.5213 596.125 30.7485 595.667 40.3454C595.367 46.7338 594.136 53.1651 591.289 58.8946C588.455 64.6241 582.789 69.9812 576.965 72.6311Z" fill="#455A64"/>
<path d="M576.975 72.6312C576.961 72.6312 577.004 72.4449 577.118 72.0869C577.247 71.6858 577.405 71.1845 577.605 70.5829C578.049 69.2794 578.65 67.3743 579.336 65.0109C580.724 60.2841 582.313 53.6665 583.529 46.2611C584.731 38.8414 585.418 32.0663 585.905 27.1676C586.134 24.7612 586.32 22.7988 586.463 21.3521C586.534 20.7076 586.591 20.1919 586.634 19.7765C586.677 19.4184 586.706 19.2322 586.72 19.2322C586.734 19.2322 586.734 19.4184 586.734 19.7908C586.72 20.2062 586.692 20.7362 586.663 21.3808C586.591 22.7559 586.463 24.7469 586.262 27.2105C585.876 32.1236 585.232 38.913 584.03 46.3471C582.814 53.7811 581.168 60.413 579.68 65.1255C578.936 67.4746 578.292 69.3653 577.791 70.6545C577.562 71.2561 577.362 71.7431 577.219 72.1298C577.075 72.4593 577.004 72.6312 576.975 72.6312Z" fill="#131B23"/>
<g opacity="0.2">
<path opacity="0.2" d="M565.465 125.099C573.078 124.483 580.733 126.431 587.716 129.554C594.699 132.676 601.096 136.916 607.464 141.156C608.05 136.214 605.174 131.602 602.427 127.462C600.352 124.354 598.277 121.217 595.658 118.539C593.04 115.875 589.82 113.669 586.171 112.852C581.778 111.85 577.027 112.967 573.278 115.488C569.543 118.009 567.11 120.902 565.465 125.099Z" fill="#131B23"/>
</g>
<path d="M598.837 162.728C598.823 162.742 598.694 162.642 598.45 162.427C598.179 162.169 597.835 161.854 597.42 161.481C596.547 160.651 595.288 159.433 593.671 158.001C592.884 157.27 591.997 156.482 591.038 155.652C590.094 154.807 589.049 153.947 587.933 153.059C585.701 151.297 583.196 149.406 580.32 147.831C577.458 146.241 574.453 145.253 571.62 145.224C570.203 145.181 568.858 145.167 567.599 145.324C566.354 145.467 565.209 145.74 564.179 146.055C562.133 146.685 560.587 147.516 559.571 148.146C558.555 148.776 558.026 149.192 557.997 149.163C557.983 149.149 558.112 149.034 558.355 148.834C558.598 148.619 558.97 148.332 559.471 147.988C560.473 147.301 562.004 146.398 564.079 145.725C565.109 145.382 566.282 145.095 567.556 144.923C568.83 144.737 570.203 144.751 571.634 144.78C574.539 144.78 577.673 145.797 580.563 147.401C583.483 148.991 586.001 150.91 588.233 152.701C589.35 153.603 590.38 154.477 591.324 155.337C592.283 156.182 593.156 156.984 593.929 157.729C595.503 159.204 596.733 160.464 597.563 161.338C597.95 161.739 598.264 162.069 598.522 162.355C598.737 162.584 598.837 162.713 598.837 162.728Z" fill="#455A64"/>
<path d="M543.565 147C543.579 146.971 543.865 147.143 544.352 147.487C544.838 147.816 545.525 148.361 546.312 149.063C547.901 150.466 549.904 152.672 551.578 155.465C553.252 158.273 554.254 161.066 554.741 163.143C554.984 164.174 555.141 165.019 555.198 165.621C555.27 166.208 555.284 166.538 555.256 166.538C555.17 166.552 554.97 165.248 554.397 163.229C553.825 161.209 552.78 158.473 551.149 155.723C549.503 152.973 547.586 150.767 546.069 149.32C544.566 147.845 543.507 147.072 543.565 147Z" fill="#455A64"/>
<path d="M525.63 91.8393C525.644 91.825 525.83 91.9396 526.159 92.1688C526.546 92.4409 527.032 92.7704 527.647 93.2001C528.306 93.6728 529.078 94.2171 529.98 94.8616C530.881 95.5062 531.826 96.3656 532.913 97.2394C537.221 100.806 542.758 106.349 547.624 113.425C549.999 116.992 552.074 120.515 553.705 123.853C555.322 127.19 556.624 130.284 557.569 132.92C558.528 135.555 559.214 137.718 559.672 139.222C559.887 139.924 560.073 140.497 560.216 140.941C560.331 141.342 560.388 141.543 560.374 141.557C560.359 141.557 560.273 141.371 560.116 140.984C559.959 140.597 559.744 140.024 559.486 139.294C558.957 137.819 558.227 135.67 557.225 133.063C556.238 130.442 554.907 127.391 553.276 124.082C551.63 120.773 549.57 117.264 547.194 113.726C542.358 106.707 536.906 101.164 532.67 97.5259C531.597 96.6235 530.681 95.764 529.794 95.0908C528.921 94.4319 528.163 93.859 527.519 93.372C526.932 92.9136 526.46 92.5555 526.102 92.269C525.787 91.9969 525.615 91.8537 525.63 91.8393Z" fill="#455A64"/>
<path d="M588.051 122.993C588.037 123.022 587.665 122.865 587.006 122.564C586.649 122.392 586.248 122.206 585.819 121.991C585.361 121.762 584.788 121.604 584.187 121.375C581.783 120.53 578.149 119.756 574.299 120.673C572.368 121.074 570.636 121.848 569.162 122.678C567.674 123.509 566.458 124.469 565.499 125.328C563.553 127.061 562.723 128.465 562.651 128.408C562.623 128.394 562.809 128.035 563.224 127.42C563.653 126.832 564.297 125.973 565.27 125.07C566.214 124.154 567.431 123.151 568.948 122.277C570.45 121.389 572.224 120.587 574.199 120.172C578.177 119.226 581.912 120.086 584.33 121.031C584.931 121.289 585.504 121.475 585.962 121.733C586.391 121.977 586.777 122.191 587.121 122.392C587.736 122.75 588.065 122.965 588.051 122.993Z" fill="#455A64"/>
<path d="M615.234 78.1028C615.234 78.1171 615.034 78.1744 614.633 78.2747C614.175 78.375 613.603 78.5182 612.887 78.6901C611.371 79.0482 609.181 79.5782 606.491 80.323C603.815 81.0822 600.624 82.0419 597.175 83.331C593.727 84.6201 589.978 86.1957 586.329 88.3443C584.526 89.4329 582.809 90.6218 581.449 92.0398C580.09 93.5152 578.788 94.9476 577.557 96.3226C575.11 99.0871 573.021 101.665 571.418 103.943C569.801 106.22 568.656 108.154 567.912 109.529C567.168 110.904 566.81 111.692 566.767 111.663C566.753 111.663 566.825 111.449 566.982 111.076C567.139 110.689 567.383 110.131 567.726 109.443C568.413 108.039 569.529 106.048 571.103 103.742C572.692 101.436 574.752 98.8006 577.185 96.0218C578.401 94.6324 579.703 93.1857 581.063 91.7104C582.479 90.2207 584.225 89.0175 586.057 87.9146C589.749 85.7374 593.526 84.1761 597.004 82.9013C600.481 81.6408 603.686 80.7097 606.391 79.9936C609.095 79.306 611.313 78.819 612.844 78.5182C613.574 78.3893 614.161 78.2747 614.619 78.2031C615.02 78.1171 615.234 78.0885 615.234 78.1028Z" fill="#455A64"/>
<path d="M565.067 117.994C565.038 117.994 565.024 117.55 565.024 116.763C565.038 115.875 565.053 114.757 565.067 113.425C565.081 110.618 565.024 106.722 564.552 102.468C564.079 98.2134 563.235 94.4176 562.605 91.6674C562.305 90.3783 562.047 89.2897 561.847 88.4159C561.675 87.6424 561.589 87.2127 561.632 87.2127C561.675 87.2127 561.804 87.6138 562.047 88.3729C562.276 89.1321 562.591 90.2207 562.963 91.5815C563.679 94.303 564.595 98.1131 565.067 102.41C565.553 106.693 565.554 110.618 565.439 113.425C565.382 114.829 565.31 115.975 565.239 116.763C565.153 117.565 565.096 117.994 565.067 117.994Z" fill="#455A64"/>
<path d="M570.433 86.1957C571.149 80.8816 570.462 75.4243 568.945 70.2821C564.781 56.1732 554.034 44.1555 540.469 38.4833C547.695 56.0156 554.936 73.5336 562.162 91.0658L564.509 100.147C568.144 96.1937 569.718 91.5099 570.433 86.1957Z" fill="#455A64"/>
<g opacity="0.2">
<path opacity="0.2" d="M570.433 86.1957C571.149 80.8816 570.462 75.4243 568.945 70.2821C564.781 56.1732 554.034 44.1555 540.469 38.4833C547.695 56.0156 554.936 73.5336 562.162 91.0658L564.509 100.147C568.144 96.1937 569.718 91.5099 570.433 86.1957Z" fill="#131B23"/>
</g>
<path d="M300.424 585.576C316.664 569.366 309.391 535.709 284.179 510.401C258.967 485.093 225.364 477.717 209.124 493.927C192.884 510.137 200.157 543.795 225.369 569.103C250.581 594.411 284.184 601.786 300.424 585.576Z" fill="#131B23"/>
<path d="M234.478 560.341C211.468 537.308 203.34 507.3 214.344 489.854C212.441 490.999 210.681 492.374 209.078 493.964C192.879 510.222 200.22 543.897 225.463 569.164C250.705 594.446 284.289 601.751 300.488 585.493C301.919 584.046 303.164 582.471 304.237 580.781C286.779 591.309 257.244 583.13 234.478 560.341Z" fill="#455A64"/>
<path d="M260.215 529.287L280.606 507.558L283.039 509.978C283.039 509.978 265.796 530.032 265.509 534.816L260.215 529.287Z" fill="#455A64"/>
<path d="M226.988 516.782L199.07 558.493L241.37 600.848L283.411 568.749L226.988 516.782Z" fill="#3cb371"/>
<path d="M241.644 600.619C237.823 604.372 225.36 597.84 213.797 586.037C202.235 574.235 195.967 561.63 199.788 557.877C203.609 554.124 216.073 560.656 227.635 572.459C239.197 584.261 245.479 596.866 241.644 600.619Z" fill="#3cb371"/>
<g opacity="0.3">
<path opacity="0.3" d="M241.644 600.619C237.823 604.372 225.36 597.84 213.797 586.037C202.235 574.235 195.967 561.63 199.788 557.877C203.609 554.124 216.073 560.656 227.635 572.459C239.197 584.261 245.479 596.866 241.644 600.619Z" fill="#131B23"/>
</g>
<path d="M284.679 571.943C281.187 575.123 263.515 572.416 244.225 554.654C224.936 536.893 214.003 523.529 223.848 513.115C231.933 504.564 248.075 511.067 267.364 528.828C286.653 546.576 296.155 561.487 284.679 571.943Z" fill="#3cb371"/>
<path d="M241.378 600.848C241.364 600.834 241.593 600.633 242.051 600.247C242.552 599.845 243.224 599.301 244.083 598.599C245.914 597.138 248.519 595.061 251.81 592.44C258.521 587.155 268.009 579.692 279.285 570.826L279.242 570.868C280.115 569.894 280.115 568.348 279.843 566.944C279.571 565.511 279.027 564.093 278.383 562.718C277.081 559.954 275.378 557.261 273.461 554.64C269.626 549.397 264.989 544.355 259.881 539.557C254.314 534.343 248.462 529.731 242.48 526.049C239.489 524.23 236.456 522.612 233.379 521.466C231.848 520.907 230.288 520.435 228.743 520.248C227.226 520.062 225.566 520.162 224.593 521.151L224.622 521.108C217.023 532.28 210.67 541.634 206.177 548.237C203.944 551.474 202.184 554.038 200.954 555.829C200.367 556.674 199.895 557.333 199.551 557.82C199.236 558.264 199.05 558.493 199.036 558.478C199.022 558.464 199.165 558.221 199.465 557.762C199.795 557.261 200.224 556.588 200.782 555.714C201.984 553.895 203.701 551.302 205.862 548.022C210.298 541.39 216.58 531.98 224.078 520.75L224.092 520.735L224.107 520.721C224.708 520.076 225.538 519.747 226.339 519.604C227.155 519.461 227.985 519.475 228.8 519.575C230.431 519.761 232.02 520.248 233.608 520.807C236.756 521.967 239.819 523.586 242.838 525.419C248.877 529.115 254.758 533.756 260.367 538.998C265.504 543.825 270.169 548.882 274.033 554.196C275.95 556.846 277.682 559.567 278.998 562.403C279.657 563.821 280.2 565.282 280.487 566.801C280.758 568.276 280.816 570.023 279.7 571.298L279.685 571.313L279.657 571.327C268.323 580.107 258.779 587.498 252.025 592.727C248.676 595.29 246.029 597.31 244.183 598.728C243.296 599.387 242.609 599.917 242.094 600.289C241.65 600.691 241.393 600.862 241.378 600.848Z" fill="#131B23"/>
<path d="M371.065 512.9V519.847H345.594V488.092H370.478V495.039H354.48V500.396H368.575V507.114H354.48V512.915H371.065V512.9Z" fill="#131B23"/>
<path d="M389.929 511.411H385.035V519.847H376.062V488.092H390.572C399.23 488.092 404.667 492.589 404.667 499.837C404.667 504.507 402.407 507.959 398.457 509.864L405.297 519.847H395.681L389.929 511.411ZM390.014 495.168H385.035V504.464H390.014C393.735 504.464 395.595 502.745 395.595 499.837C395.581 496.886 393.735 495.168 390.014 495.168Z" fill="#131B23"/>
<path d="M423.452 511.411H418.558V519.847H409.586V488.092H424.096C432.753 488.092 438.191 492.589 438.191 499.837C438.191 504.507 435.93 507.959 431.981 509.864L438.821 519.847H429.204L423.452 511.411ZM423.552 495.168H418.572V504.464H423.552C427.273 504.464 429.133 502.745 429.133 499.837C429.119 496.886 427.273 495.168 423.552 495.168Z" fill="#131B23"/>
<path d="M441.496 503.962C441.496 494.437 448.98 487.447 459.126 487.447C469.271 487.447 476.755 494.437 476.755 503.962C476.755 513.488 469.271 520.478 459.126 520.478C448.98 520.478 441.496 513.488 441.496 503.962ZM467.697 503.962C467.697 498.476 463.934 494.881 459.126 494.881C454.317 494.881 450.554 498.462 450.554 503.962C450.554 509.448 454.317 513.029 459.126 513.029C463.934 513.044 467.697 509.448 467.697 503.962Z" fill="#131B23"/>
<path d="M495.343 511.411H490.449V519.847H481.477V488.092H495.987C504.644 488.092 510.082 492.589 510.082 499.837C510.082 504.507 507.821 507.959 503.871 509.864L510.711 519.847H501.095L495.343 511.411ZM495.428 495.168H490.449V504.464H495.428C499.149 504.464 501.009 502.745 501.009 499.837C501.009 496.886 499.149 495.168 495.428 495.168Z" fill="#131B23"/>
<path d="M570.001 499.837C570.001 507.056 564.563 511.54 555.906 511.54H550.382V519.847H541.41V488.092H555.92C564.563 488.077 570.001 492.575 570.001 499.837ZM560.929 499.837C560.929 496.886 559.068 495.168 555.348 495.168H550.368V504.464H555.348C559.083 504.464 560.929 502.745 560.929 499.837Z" fill="#131B23"/>
<path d="M594.024 513.674H580.601L578.111 519.847H568.953L582.962 488.092H591.806L605.858 519.847H596.513L594.024 513.674ZM591.391 507.056L587.312 496.886L583.234 507.056H591.391Z" fill="#131B23"/>
<path d="M629.196 503.289H637.124V516.453C633.446 519.088 628.423 520.492 623.801 520.492C613.699 520.492 606.301 513.645 606.301 503.977C606.301 494.308 613.685 487.461 623.973 487.461C629.912 487.461 634.72 489.495 637.839 493.262L632.13 498.433C629.955 496.027 627.465 494.895 624.431 494.895C618.993 494.895 615.359 498.476 615.359 503.977C615.359 509.334 618.979 513.044 624.331 513.044C626.005 513.044 627.594 512.728 629.182 511.998V503.289H629.196Z" fill="#131B23"/>
<path d="M668.307 512.9V519.847H642.836V488.092H667.72V495.039H651.722V500.396H665.817V507.114H651.722V512.915H668.307V512.9Z" fill="#131B23"/>
<path d="M369.518 414.811H292.633V377.111L365.87 198.809H409.814V377.111H428.861V414.811H409.814V462.681H369.533V414.811H369.518ZM369.518 377.111V274.195H368.789L329.251 377.111H369.518Z" fill="#3cb371"/>
<g opacity="0.3">
<path opacity="0.3" d="M369.518 414.811H292.633V377.111L365.87 198.809H409.814V377.111H428.861V414.811H409.814V462.681H369.533V414.811H369.518ZM369.518 377.111V274.195H368.789L329.251 377.111H369.518Z" fill="#131B23"/>
</g>
<path d="M351.194 414.811H274.309V377.111L347.545 198.809H391.49V377.111H410.536V414.811H391.49V462.681H351.209V414.811H351.194ZM351.194 377.111V274.195H350.464L310.927 377.111H351.194Z" fill="#3cb371"/>
<path d="M461.037 449.117C450.534 437.557 445.297 421.228 445.297 400.115V261.39C445.297 240.276 450.549 223.947 461.037 212.388C471.526 200.829 486.666 195.042 506.442 195.042C526.218 195.042 541.343 200.829 551.846 212.388C562.335 223.947 567.587 240.276 567.587 261.39V400.115C567.587 421.228 562.335 437.557 551.846 449.117C541.343 460.676 526.218 466.463 506.442 466.463C486.666 466.448 471.526 460.676 461.037 449.117ZM527.305 402.751V258.74C527.305 241.394 520.351 232.728 506.428 232.728C492.519 232.728 485.564 241.394 485.564 258.74V402.736C485.564 420.082 492.519 428.748 506.428 428.748C520.351 428.748 527.305 420.082 527.305 402.751Z" fill="#3cb371"/>
<g opacity="0.3">
<path opacity="0.3" d="M551.846 212.374C541.343 200.814 526.218 195.028 506.442 195.028C486.666 195.028 471.526 200.814 461.037 212.374C450.534 223.933 445.297 240.262 445.297 261.375V400.101C445.297 421.214 450.549 437.543 461.037 449.102C471.526 460.662 486.666 466.448 506.442 466.448C526.218 466.448 541.343 460.676 551.846 449.102C562.335 437.543 567.587 421.214 567.587 400.101V261.375C567.587 240.276 562.335 223.947 551.846 212.374ZM527.305 402.751C527.305 420.097 520.351 428.763 506.428 428.763C492.519 428.763 485.564 417.877 485.564 402.751V258.74C485.564 243.012 492.519 232.728 506.428 232.728C520.337 232.728 527.305 241.394 527.305 258.74V402.751Z" fill="#131B23"/>
</g>
<path d="M442.717 449.102C432.214 437.543 426.977 421.214 426.977 400.101V261.375C426.977 240.262 432.228 223.933 442.717 212.374C453.206 200.814 468.346 195.028 488.122 195.028C507.898 195.028 523.023 200.814 533.526 212.374C544.015 223.933 549.267 240.262 549.267 261.375V400.101C549.267 421.214 544.015 437.543 533.526 449.102C523.023 460.662 507.898 466.448 488.122 466.448C468.346 466.448 453.206 460.676 442.717 449.102ZM508.985 402.736V258.74C508.985 241.394 502.031 232.728 488.122 232.728C474.213 232.728 467.258 241.394 467.258 258.74V402.736C467.258 420.082 474.213 428.748 488.122 428.748C502.031 428.748 508.985 420.082 508.985 402.736Z" fill="#3cb371"/>
<path d="M657.517 414.811H580.617V377.111L653.854 198.809H697.799V377.111H716.845V414.811H697.799V462.681H657.517V414.811ZM657.517 377.111V274.195H656.787L617.236 377.111H657.517Z" fill="#3cb371"/>
<g opacity="0.3">
<path opacity="0.3" d="M657.517 414.811H580.617V377.111L653.854 198.809H697.799V377.111H716.845V414.811H697.799V462.681H657.517V414.811ZM657.517 377.111V274.195H656.787L617.236 377.111H657.517Z" fill="#131B23"/>
</g>
<path d="M639.189 414.811H562.289V377.111L635.526 198.809H679.471V377.111H698.517V414.811H679.471V462.681H639.189V414.811ZM639.189 377.111V274.195H638.459L598.907 377.111H639.189Z" fill="#3cb371"/>
<path d="M785.572 420.435C804.466 416.618 810.098 365.487 798.152 306.23C786.206 246.972 761.205 202.029 742.312 205.845C723.418 209.662 717.786 260.793 729.732 320.05C741.678 379.307 766.679 424.251 785.572 420.435Z" fill="#131B23"/>
<path d="M787.857 308.629C776.967 254.614 755.245 212.503 737.172 208.363C738.775 207.103 740.492 206.272 742.352 205.899C761.241 202.089 786.24 247.023 798.188 306.295C810.137 365.552 804.499 416.688 785.61 420.498C783.936 420.842 782.219 420.784 780.459 420.383C795.097 408.881 798.618 362.057 787.857 308.629Z" fill="#455A64"/>
<path d="M976.652 206.487L996.901 176.908C996.901 176.908 1033.73 187.565 1038 182.466L982.119 141.113L948.691 185.889L976.652 206.487Z" fill="#131B23"/>
<path d="M977.825 166.566C976.966 165.463 977.109 163.702 978.168 162.799C979.227 161.897 981.031 162.026 981.904 163.114C982.791 164.189 982.662 166.323 981.517 167.111C980.358 167.898 978.254 167.612 977.667 166.352" fill="#E0E0E0"/>
<path d="M982.121 141.141L978.93 145.782L1033.69 183.683C1033.69 183.683 1036.98 184.442 1038 182.48L982.121 141.141Z" fill="#455A64"/>
<path d="M997.613 177.882C997.799 177.596 996.539 176.464 995.838 174.602C995.094 172.754 995.28 171.05 994.951 170.978C994.664 170.849 993.863 172.783 994.736 175.032C995.595 177.281 997.484 178.169 997.613 177.882Z" fill="white"/>
<path d="M1005.25 179.787C1005.51 179.572 1004.67 178.226 1004.6 176.392C1004.47 174.559 1005.15 173.127 1004.88 172.94C1004.65 172.711 1003.29 174.172 1003.42 176.45C1003.54 178.741 1005.05 180.045 1005.25 179.787Z" fill="white"/>
<path d="M1013.78 175.232C1013.58 174.989 1012.19 176.077 1011.78 178.083C1011.36 180.088 1012.21 181.635 1012.49 181.492C1012.81 181.377 1012.58 179.959 1012.94 178.312C1013.25 176.664 1014.02 175.461 1013.78 175.232Z" fill="white"/>
<path d="M992.236 184.099C992.308 183.769 990.777 183.21 989.317 181.964C987.828 180.747 987.013 179.343 986.698 179.472C986.397 179.558 986.827 181.434 988.558 182.881C990.29 184.342 992.222 184.414 992.236 184.099Z" fill="white"/>
<path d="M957.192 326.691L977.611 297.242C977.611 297.242 1014.37 308.128 1018.68 303.043L963.044 261.375L929.359 305.965L957.192 326.691Z" fill="#131B23"/>
<path d="M958.665 286.771C957.807 285.668 957.964 283.906 959.037 283.004C960.096 282.101 961.9 282.244 962.773 283.333C963.646 284.422 963.517 286.542 962.358 287.329C961.199 288.103 959.095 287.816 958.508 286.556" fill="#E0E0E0"/>
<path d="M963.138 261.375L959.918 266.002L1014.45 304.232C1014.45 304.232 1017.73 305.005 1018.76 303.057L963.138 261.375Z" fill="#455A64"/>
<path d="M978.309 298.201C978.51 297.929 977.236 296.783 976.549 294.907C975.819 293.045 976.005 291.355 975.676 291.269C975.39 291.14 974.574 293.059 975.447 295.322C976.291 297.585 978.181 298.488 978.309 298.201Z" fill="white"/>
<path d="M986.027 300.164C986.284 299.949 985.454 298.603 985.397 296.755C985.282 294.922 985.984 293.504 985.698 293.303C985.469 293.074 984.095 294.521 984.223 296.813C984.309 299.104 985.826 300.408 986.027 300.164Z" fill="white"/>
<path d="M994.544 295.652C994.343 295.408 992.941 296.483 992.526 298.502C992.096 300.508 992.941 302.055 993.227 301.911C993.542 301.797 993.327 300.393 993.685 298.746C994.014 297.084 994.787 295.881 994.544 295.652Z" fill="white"/>
<path d="M972.954 304.404C973.026 304.075 971.494 303.516 970.034 302.255C968.546 301.024 967.744 299.62 967.43 299.749C967.129 299.82 967.544 301.711 969.276 303.158C971.008 304.619 972.925 304.705 972.954 304.404Z" fill="white"/>
<path d="M746.528 348.034C748.432 348.034 918.115 299.104 929.906 288.476C941.712 277.848 989.907 193.681 989.907 193.681L955.678 165.736L896.179 243.356L791.69 252.795C791.69 252.795 747.645 249.787 739.96 265.558L739.23 289.163L746.528 348.034Z" fill="#131B23"/>
<path d="M746.523 348.034C749.042 348.106 824.826 432.53 848.58 437.328C872.319 442.127 884.268 425.74 892.382 415.914C902.713 403.395 973.059 313.542 973.059 313.542L937.772 284.322L860.399 366.726L813.879 302.599L773.325 298.789L748.67 320.647L746.523 348.034Z" fill="#131B23"/>
<path d="M853.517 374.619C853.503 374.604 853.603 374.49 853.789 374.275C854.004 374.017 854.29 373.702 854.633 373.301C855.42 372.413 856.522 371.181 857.924 369.62C860.844 366.411 865.008 361.828 870.131 356.184C875.311 350.526 881.478 343.794 888.304 336.331C891.738 332.607 895.33 328.697 899.065 324.643C902.857 320.647 906.777 316.493 910.784 312.253C920.472 302.04 929.616 292.415 937.529 284.078L937.758 283.849L938.001 284.05C948.447 292.773 957.233 300.107 963.444 305.292C966.477 307.856 968.896 309.89 970.584 311.322C971.371 311.995 971.987 312.54 972.459 312.941C972.874 313.313 973.088 313.514 973.074 313.528C973.06 313.542 972.831 313.37 972.387 313.027C971.915 312.654 971.271 312.139 970.455 311.494C968.738 310.09 966.277 308.114 963.186 305.607C956.933 300.465 948.089 293.217 937.558 284.58L938.03 284.551C930.145 292.902 921.03 302.542 911.357 312.783C907.336 317.023 903.415 321.163 899.623 325.159C895.874 329.198 892.268 333.094 888.819 336.818C881.936 344.238 875.74 350.927 870.531 356.557C865.337 362.128 861.115 366.64 858.153 369.82C856.708 371.339 855.578 372.542 854.762 373.401C854.39 373.774 854.104 374.074 853.86 374.318C853.632 374.519 853.517 374.619 853.517 374.619Z" fill="#455A64"/>
<path d="M852.536 316.651C852.55 316.694 851.763 316.98 850.332 317.438C848.772 317.925 846.74 318.57 844.265 319.343C839.142 320.933 832.044 323.068 824.26 325.589C822.314 326.233 820.425 326.878 818.593 327.494C816.762 328.095 815.002 328.668 813.427 329.413C810.265 330.888 808.133 333.409 807.031 335.787C805.915 338.179 805.514 340.342 805.214 341.803C804.942 343.278 804.813 344.095 804.756 344.095C804.727 344.095 804.727 343.88 804.756 343.493C804.77 343.092 804.827 342.519 804.928 341.76C805.142 340.27 805.457 338.079 806.545 335.572C807.618 333.08 809.821 330.373 813.113 328.797C814.744 327.995 816.518 327.408 818.35 326.806C820.182 326.19 822.07 325.546 824.017 324.887C831.815 322.351 838.942 320.303 844.093 318.842C846.683 318.112 848.772 317.553 850.232 317.166C851.706 316.779 852.521 316.593 852.536 316.651Z" fill="#455A64"/>
<path d="M723.66 275.398C723.632 275.384 723.76 275.155 724.004 274.725C724.147 274.482 724.304 274.224 724.476 273.923C724.705 273.622 724.962 273.278 725.234 272.906C726.408 271.402 728.382 269.44 731.187 267.506C736.754 263.567 745.482 259.828 755.442 257.064C765.416 254.314 774.717 252.939 781.485 252.495C784.863 252.265 787.61 252.28 789.513 252.394C790.458 252.452 791.187 252.523 791.688 252.595C792.189 252.666 792.447 252.709 792.432 252.738C792.418 252.81 791.388 252.695 789.499 252.695C787.61 252.681 784.891 252.738 781.528 253.039C774.817 253.612 765.573 255.059 755.642 257.794C745.74 260.53 737.054 264.168 731.488 267.95C728.683 269.812 726.694 271.674 725.463 273.106C725.177 273.45 724.905 273.78 724.662 274.066C724.462 274.338 724.29 274.596 724.132 274.811C723.846 275.198 723.689 275.413 723.66 275.398Z" fill="#455A64"/>
<path d="M793.909 395.116C793.894 395.13 793.694 395.002 793.322 394.729C792.893 394.4 792.363 393.985 791.719 393.483C790.245 392.323 788.271 390.762 785.867 388.871C780.93 384.975 773.904 379.876 766.105 374.275C758.292 368.66 751.552 363.131 746.901 358.891C744.583 356.771 742.723 355.024 741.478 353.778C740.906 353.205 740.434 352.732 740.047 352.345C739.718 352.016 739.561 351.83 739.589 351.801C739.604 351.787 739.804 351.93 740.162 352.231C740.577 352.589 741.077 353.033 741.693 353.563C742.995 354.737 744.912 356.428 747.274 358.49C752.01 362.63 758.778 368.073 766.577 373.673C774.376 379.274 781.373 384.459 786.239 388.47C788.671 390.461 790.632 392.094 791.948 393.268C792.549 393.813 793.05 394.257 793.465 394.615C793.751 394.916 793.923 395.102 793.909 395.116Z" fill="#455A64"/>
<path d="M269.567 335.751C291.844 276.187 294.508 222.131 275.517 215.014C256.525 207.897 223.071 250.414 200.793 309.978C178.516 369.542 175.853 423.598 194.844 430.714C213.835 437.831 247.29 395.314 269.567 335.751Z" fill="#131B23"/>
<path d="M211.144 314.13C231.449 259.843 261.041 219.707 280.503 218.418C279.057 216.843 277.397 215.683 275.523 214.995C256.534 207.876 223.078 250.403 200.798 309.961C178.518 369.534 175.856 423.592 194.859 430.711C196.548 431.341 198.337 431.57 200.225 431.456C186.917 417.06 191.053 367.829 211.144 314.13Z" fill="#455A64"/>
<path d="M12.3057 180.045C12.3057 180.045 7.24006 167.111 5.05069 162.427C2.86131 157.743 3.33353 143.448 4.79311 140.855C6.25269 138.263 4.90759 136.286 4.90759 136.286C4.90759 136.286 -2.56204 122.349 0.929512 118.911L2.96148 118.682C2.96148 118.682 10.4454 133.636 10.6887 133.937C10.9463 134.238 12.5776 134.309 13.0927 131.702C13.6078 129.095 12.3486 121.361 12.3486 121.361C12.3486 121.361 9.51529 116.433 9.31496 113.053C9.24341 111.778 10.3739 109.988 11.3899 109.214L12.4058 108.441C12.4058 108.441 18.6878 119.814 19.0312 122.592C19.3746 125.371 20.5337 131.402 20.5337 131.402L21.4066 130.7L21.4781 116.748C21.4781 116.748 18.33 104.946 20.7197 102.367C23.1094 99.789 23.3384 101.952 23.3384 101.952C23.3384 101.952 27.8173 113.998 28.1607 117.063C28.3038 118.31 28.4326 130.284 28.4326 130.284L30.3644 129.482L31.037 118.281C31.037 118.281 28.7761 107.166 32.1674 106.034L34.8863 105.948C34.8863 105.948 37.462 120.573 37.7482 121.26C38.0344 121.948 35.7735 138.635 35.7735 138.635L36.4603 140.211L38.4208 137.546C38.4208 137.546 39.2936 134.983 43.2002 132.848C47.0924 130.7 48.8096 132.261 48.8096 132.261L43.9157 140.97C43.9157 140.97 39.4654 151.154 37.6337 153.489C35.8164 155.838 29.5917 161.338 28.6043 161.868C27.617 162.412 28.7188 166.924 28.7188 166.924L30.2643 170.076L12.3057 180.045Z" fill="#FFBF9D"/>
<path d="M31.8987 145.954C31.8987 146.098 30.3247 146.069 27.892 146.656C25.488 147.229 22.2111 148.576 19.435 151.14C16.659 153.718 15.0563 156.869 14.2979 159.218C13.5251 161.596 13.4393 163.172 13.2819 163.157C13.196 163.157 13.0672 161.553 13.7255 159.046C14.3551 156.568 15.9435 153.217 18.8626 150.509C22.8836 147.301 26.1605 146.069 27.7632 146.069C30.3103 145.625 31.913 145.883 31.8987 145.954Z" fill="#FF9A6C"/>
<path d="M32.5601 129.969C32.5458 130.256 26.6788 129.296 19.7673 131.115C12.8271 132.848 8.13355 136.515 7.99046 136.272C7.93322 136.2 9.00644 135.183 11.0241 133.923C13.0274 132.662 16.0325 131.215 19.5526 130.299C23.0871 129.396 26.407 129.224 28.7681 129.368C31.1435 129.511 32.5744 129.883 32.5601 129.969Z" fill="#FF9A6C"/>
<path d="M12.3047 180.045C12.7912 181.22 37.4324 255.875 48.0788 263.896C58.7395 271.918 129.1 292.615 129.1 292.615L140.161 255.087L71.3319 233.473L28.6034 161.897L12.3047 180.045Z" fill="#FFBF9D"/>
<path d="M144.707 244.774L91.5611 235.707L80.1992 281.973L141.688 296.053L144.707 244.774Z" fill="#277CF9"/>
<path d="M178.091 248.455L174.971 166.838C174.857 146.513 162.937 129.64 142.646 130.313L140.771 130.485C121.94 132.218 107.573 148.132 107.788 167.068C107.988 184.686 108.431 204.152 109.405 213.52C111.422 232.914 131.112 234.16 131.112 234.16C131.155 234.16 137.137 258.31 137.137 258.31L144.005 260.587L178.091 248.455Z" fill="#FFBF9D"/>
<path d="M131.125 234.174C131.125 234.174 143.417 233.773 155.695 224.377C155.695 224.377 152.117 240.004 132.599 240.047L131.125 234.174Z" fill="#FF9A6C"/>
<path d="M117.551 182.881C117.637 184.356 118.94 185.488 120.485 185.431C122.017 185.373 123.19 184.141 123.119 182.666C123.033 181.191 121.73 180.059 120.199 180.116C118.639 180.174 117.465 181.42 117.551 182.881Z" fill="#131B23"/>
<path d="M112.724 175.289C113.096 175.619 115.056 173.871 118.033 173.599C121.009 173.284 123.341 174.63 123.628 174.229C123.771 174.057 123.356 173.427 122.34 172.826C121.338 172.224 119.678 171.694 117.818 171.88C115.958 172.066 114.455 172.883 113.625 173.671C112.795 174.458 112.552 175.132 112.724 175.289Z" fill="#131B23"/>
<path d="M141.124 182.351C141.496 182.681 143.456 180.933 146.447 180.661C149.423 180.346 151.756 181.692 152.042 181.291C152.185 181.119 151.784 180.489 150.754 179.887C149.752 179.286 148.092 178.756 146.232 178.942C144.372 179.128 142.869 179.959 142.039 180.733C141.195 181.52 140.938 182.208 141.124 182.351Z" fill="#131B23"/>
<path d="M133.332 197.205C133.332 197.033 131.443 196.89 128.409 196.775C127.637 196.761 126.907 196.675 126.735 196.174C126.506 195.644 126.749 194.784 127.036 193.868C127.579 191.962 128.152 189.957 128.753 187.852C131.114 179.3 132.759 172.296 132.416 172.21C132.073 172.124 129.869 178.971 127.508 187.522C126.935 189.628 126.406 191.633 125.891 193.552C125.676 194.44 125.276 195.472 125.776 196.575C126.034 197.119 126.635 197.491 127.136 197.577C127.637 197.678 128.066 197.649 128.452 197.635C131.457 197.534 133.332 197.377 133.332 197.205Z" fill="#131B23"/>
<path d="M138.694 174.487C139.166 175.218 141.985 174.144 145.505 173.743C149.011 173.27 152.002 173.614 152.288 172.797C152.403 172.411 151.759 171.78 150.457 171.279C149.169 170.778 147.237 170.462 145.133 170.72C143.03 170.978 141.227 171.752 140.096 172.554C138.966 173.37 138.479 174.144 138.694 174.487Z" fill="#131B23"/>
<path d="M112.035 167.712C112.708 168.343 115.083 167.455 118.003 167.197C120.907 166.853 123.44 167.24 123.955 166.481C124.184 166.122 123.741 165.464 122.61 164.905C121.494 164.346 119.677 163.96 117.673 164.16C115.67 164.375 113.982 165.12 113.009 165.893C112.021 166.667 111.735 167.397 112.035 167.712Z" fill="#131B23"/>
<path d="M174.699 181.377C175.014 181.205 187.664 176.206 188.465 189.513C189.266 202.834 175.744 200.886 175.701 200.499C175.658 200.127 174.699 181.377 174.699 181.377Z" fill="#FFBF9D"/>
<path d="M179.428 195.214C179.485 195.171 179.671 195.357 180.072 195.515C180.458 195.672 181.131 195.744 181.804 195.443C183.178 194.841 184.222 192.535 184.151 190.129C184.108 188.911 183.793 187.78 183.306 186.849C182.848 185.903 182.176 185.259 181.46 185.173C180.745 185.058 180.272 185.502 180.129 185.889C179.972 186.276 180.072 186.534 180 186.562C179.972 186.591 179.7 186.362 179.771 185.803C179.814 185.531 179.943 185.216 180.244 184.944C180.544 184.672 181.002 184.5 181.503 184.528C182.534 184.543 183.507 185.431 184.051 186.448C184.637 187.465 185.038 188.754 185.081 190.115C185.153 192.807 183.936 195.4 182.047 196.073C181.131 196.374 180.33 196.145 179.9 195.844C179.471 195.543 179.385 195.242 179.428 195.214Z" fill="#FF9A6C"/>
<path d="M142.937 198.58C142.479 198.58 142.608 201.631 140.089 203.923C137.571 206.229 134.308 206.028 134.294 206.458C134.265 206.658 135.052 207.017 136.426 206.988C137.771 206.974 139.731 206.444 141.263 205.04C142.794 203.636 143.409 201.831 143.452 200.571C143.509 199.296 143.137 198.551 142.937 198.58Z" fill="#131B23"/>
<path d="M80.0131 150.911C80.1705 150.108 80.7 149.435 81.3725 148.977C82.8464 147.989 84.6065 147.989 86.295 147.86C90.5164 147.53 94.6376 146.184 98.2722 144.049C96.9128 143.462 95.6392 142.732 94.5374 141.758C92.2479 139.738 90.8169 136.53 91.6182 133.593C91.7756 133.049 92.0475 132.462 92.577 132.261C93.4212 131.946 94.2369 132.748 94.8808 133.378C96.9987 135.47 98.8875 136.315 101.821 135.828C103.638 135.527 105.398 135.011 106.786 134.023C106.844 133.966 106.887 133.894 106.944 133.822C107.588 133.063 108.217 132.347 108.847 131.645C113.541 126.36 117.633 122.664 121.955 120.602C128.294 117.579 139.083 115.846 145.966 117.207C152.849 118.568 159.274 123.695 160.634 130.571C164.225 127.119 169.935 126.789 174.671 128.365L174.786 128.308C180.052 129.826 183.314 135.097 185.16 140.254C185.26 140.54 185.346 140.827 185.447 141.113C187.364 143.763 189.868 145.983 192.802 147.459C193.317 147.716 193.904 148.032 194.004 148.604C194.104 149.163 193.646 149.664 193.202 150.037C192.029 150.997 190.627 151.67 189.138 152.028C189.682 153.245 190.312 154.434 191.07 155.551C191.714 156.497 192.473 157.643 192.029 158.703C191.686 159.519 190.698 159.906 189.811 159.834C188.924 159.763 188.122 159.319 187.35 158.903C188.008 160.25 188.666 161.582 189.324 162.928C187.478 163.372 185.547 163.344 183.701 162.9C182.914 167.884 182.656 177.037 181.597 180.446C178.077 180.733 177.19 180.389 175.444 181.091C173.183 181.993 174.314 186.032 171.251 185.058C169.692 184.557 166.987 178.913 166.386 177.395C162.365 167.283 160.548 156.282 161.106 145.41C158.831 143.262 156.14 141.571 153.236 140.426L153.479 140.626C147.927 139.079 141.659 137.589 136.651 140.469C132.773 142.703 130.669 147 127.893 150.509C122.613 157.156 116.403 160.909 107.96 161.797C107.559 167.727 107.931 177.352 107.974 182.853L102.622 172.167V172.21C102.207 171.594 101.85 170.964 101.506 170.334L101.392 170.147V170.119C100.848 169.102 100.333 168.085 99.6602 167.096C99.6459 167.111 99.6316 167.125 99.6173 167.154C96.8126 169.961 92.1906 166.223 94.3371 162.885C94.7664 162.226 95.2815 161.625 95.8825 161.123C94.6089 162.484 92.6199 163.215 90.8026 162.785C88.9853 162.341 87.4971 160.636 87.54 158.76C87.5686 157.485 88.3986 156.296 89.5147 155.723C87.125 156.053 84.6494 155.68 82.4744 154.62C81.072 153.876 79.6554 152.672 80.0131 150.911Z" fill="#131B23"/>
<path d="M154.681 133.178C154.638 133.235 155.525 133.636 156.742 134.839C157.944 136.042 159.346 138.162 160.133 141.127C160.534 142.603 160.82 144.25 160.934 146.055C161.049 147.845 161.035 149.779 161.02 151.813C161.02 153.847 161.006 155.995 161.264 158.216C161.392 159.319 161.607 160.45 161.908 161.553C162.222 162.642 162.58 163.83 163.482 164.733C164.197 165.463 165.328 165.75 166.286 165.492C167.245 165.263 168.075 164.69 168.676 163.945C169.835 162.398 170.035 160.536 170.25 158.874L169.849 158.946C170.608 160.378 171.381 161.782 172.468 162.885C173.541 163.988 174.972 164.676 176.389 164.719C177.09 164.733 177.791 164.575 178.378 164.246C178.979 163.902 179.394 163.372 179.666 162.814C179.923 162.255 180.038 161.639 179.966 161.066C179.895 160.493 179.637 159.949 179.251 159.591L179.051 159.791C180.653 161.41 182.299 162.226 183.429 162.67C184.002 162.885 184.445 163.014 184.76 163.1C185.061 163.172 185.232 163.2 185.232 163.186C185.232 163.172 185.075 163.114 184.789 163.028C184.488 162.928 184.045 162.785 183.501 162.541C182.399 162.069 180.811 161.209 179.265 159.605L179.065 159.806C179.766 160.464 179.88 161.682 179.38 162.699C179.122 163.2 178.75 163.673 178.221 163.959C177.705 164.26 177.061 164.389 176.418 164.375C175.115 164.332 173.785 163.687 172.783 162.627C171.753 161.582 171.008 160.207 170.25 158.774L169.935 158.173L169.849 158.86C169.635 160.507 169.42 162.312 168.361 163.702C167.832 164.375 167.073 164.89 166.229 165.091C165.385 165.306 164.469 165.077 163.839 164.446C163.052 163.673 162.68 162.541 162.38 161.467C162.079 160.378 161.879 159.276 161.736 158.187C161.464 156.01 161.464 153.875 161.464 151.842C161.464 149.808 161.478 147.874 161.335 146.055C161.206 144.236 160.892 142.56 160.462 141.07C159.632 138.076 158.158 135.928 156.885 134.739C155.583 133.536 154.681 133.178 154.681 133.178Z" fill="#455A64"/>
<path d="M95.6445 155.867C95.6445 155.867 95.7018 155.909 95.8019 155.995C95.945 156.081 96.1024 156.196 96.3171 156.325C96.546 156.468 96.8179 156.64 97.1757 156.798C97.5191 156.969 97.9198 157.184 98.392 157.342C100.252 158.087 103.2 158.76 106.82 158.33C110.398 157.9 114.633 156.368 118.297 153.26C122.017 150.223 125.165 145.883 127.669 140.984C128.943 138.535 129.945 136.042 131.075 133.736C132.206 131.416 133.465 129.267 135.053 127.534C136.627 125.787 138.488 124.455 140.448 123.781C141.421 123.423 142.423 123.294 143.381 123.251C144.34 123.237 145.27 123.38 146.129 123.609C147.846 124.068 149.248 124.913 150.336 125.801C151.423 126.703 152.182 127.677 152.711 128.522C153.713 130.256 153.828 131.402 153.899 131.387C153.913 131.387 153.899 131.316 153.87 131.187C153.842 131.029 153.799 130.829 153.742 130.599C153.613 130.084 153.341 129.339 152.869 128.451C152.354 127.577 151.61 126.56 150.508 125.629C149.406 124.698 147.975 123.81 146.215 123.323C145.342 123.079 144.383 122.936 143.381 122.922C142.394 122.951 141.335 123.079 140.319 123.438C138.273 124.125 136.341 125.486 134.738 127.262C133.107 129.038 131.805 131.215 130.66 133.55C129.515 135.885 128.499 138.363 127.24 140.784C124.765 145.639 121.645 149.922 118.01 152.944C114.404 156.024 110.283 157.557 106.763 158.015C103.214 158.488 100.295 157.872 98.4349 157.184C96.589 156.482 95.6732 155.809 95.6445 155.867Z" fill="#455A64"/>
<path d="M93.3521 147.415C93.3378 147.444 93.5954 147.602 94.0819 147.859C94.5541 148.132 95.2839 148.447 96.2141 148.776C97.1299 149.12 98.2746 149.421 99.5482 149.65C100.836 149.865 102.267 149.979 103.77 149.951C105.272 149.893 106.689 149.693 107.962 149.406C109.222 149.106 110.338 148.733 111.239 148.332C112.141 147.945 112.856 147.573 113.314 147.286C113.786 147 114.03 146.828 114.015 146.799C113.972 146.728 112.928 147.344 111.125 148.031C110.223 148.389 109.121 148.719 107.876 148.991C106.631 149.249 105.229 149.435 103.755 149.492C102.281 149.521 100.879 149.421 99.6197 149.235C98.3605 149.034 97.23 148.762 96.3142 148.475C94.4683 147.888 93.3951 147.344 93.3521 147.415Z" fill="#455A64"/>
<path d="M238.512 397.823L239.857 391.378C223.658 384.201 208.948 374.032 196.499 361.427L124.879 288.891L126.739 268.079L161.998 235.034C161.998 235.034 178.812 223.876 200.605 232.513C225.361 242.339 235.836 256.247 264.741 289.965C276.189 303.33 269.764 292.171 280.954 299.405C280.954 299.405 273.928 337.606 260.649 361.283C250.932 378.615 238.512 397.823 238.512 397.823Z" fill="#277CF9"/>
<path d="M132.307 296.597C132.221 296.655 131.176 295.265 129.659 292.916C128.142 290.553 126.196 287.201 124.322 283.362C122.447 279.509 121.002 275.914 120.072 273.278C119.142 270.628 118.698 268.953 118.784 268.924C118.898 268.881 119.514 270.499 120.573 273.078C121.632 275.656 123.148 279.194 125.009 283.018C126.869 286.843 128.729 290.209 130.117 292.63C131.519 295.05 132.407 296.54 132.307 296.597Z" fill="#131B23"/>
<g opacity="0.3">
<path opacity="0.3" d="M257.016 344.496C257.016 344.496 259.119 332.722 254.626 321.019C250.133 309.317 238.528 292.845 238.528 292.845L234.535 296.612L257.016 344.496Z" fill="#131B23"/>
</g>
<path d="M195.038 416.516L220.839 348.979L207.244 331.977L181.602 300.436C181.602 300.436 163.3 290.925 154.528 276.888C151.795 272.505 151.265 265.099 154.127 259.685C162.14 244.516 178.725 238.514 195.253 243.041L209.792 252.58C209.792 252.58 257.772 327.852 256.999 342.362C256.455 352.603 215.988 421.959 215.988 421.959L195.038 416.516Z" fill="#FFBF9D"/>
<path d="M196.858 413.651L168.225 416.115C165.205 416.373 162.487 418.034 160.87 420.584L148.062 440.823C148.062 440.823 153.171 443.187 156.548 439.405C160.025 435.509 165.391 427.674 165.391 427.674L162.959 450.22C162.959 450.22 169.556 450.864 170.672 445.837C171.945 440.064 172.045 432.501 172.045 432.501L178.485 453.93C178.485 453.93 185.482 451.623 183.236 443.516C181.819 438.403 180.288 433.131 180.288 433.131L188.144 447.083C188.144 447.083 193.853 446.581 192.365 441.396C191.378 437.944 188.344 431.097 188.344 431.097C188.344 431.097 204.829 432.344 208.106 431.155C212.57 429.536 217.135 420.054 217.135 420.054L196.858 413.651Z" fill="#FFBF9D"/>
<path d="M171.462 239.13C171.462 239.13 147.436 252.065 150.069 270.141C152.702 288.218 173.365 297.643 173.365 297.643L200.224 326.462L242.437 289.751L204.03 241.981" fill="#277CF9"/>
<path d="M204.018 241.981C204.032 241.981 204.09 242.038 204.218 242.181C204.361 242.353 204.547 242.554 204.762 242.826C205.263 243.428 205.964 244.273 206.866 245.361C208.712 247.624 211.387 250.89 214.765 255.03C221.547 263.409 231.178 275.312 242.683 289.536L242.883 289.794L242.64 290.008C230.319 300.737 215.952 313.256 200.67 326.563L200.455 326.749L200.169 326.992L199.911 326.72C190.438 316.55 181.366 306.796 173.066 297.886L173.181 297.972C168.072 295.423 163.593 292.2 159.83 288.547C156.109 284.88 153.076 280.755 151.387 276.315C151.029 275.183 150.571 274.109 150.328 272.992C150.114 271.86 149.813 270.772 149.699 269.669C149.441 267.448 149.584 265.271 150.013 263.252C150.886 259.184 152.847 255.803 154.879 253.053C159.057 247.567 163.507 244.273 166.527 242.124C168.058 241.064 169.288 240.319 170.118 239.832C170.519 239.617 170.834 239.431 171.077 239.302C171.292 239.188 171.406 239.145 171.421 239.145C171.421 239.159 171.32 239.216 171.106 239.36C170.863 239.503 170.562 239.703 170.176 239.947C169.36 240.462 168.158 241.236 166.656 242.325C163.693 244.516 159.3 247.854 155.222 253.325C153.233 256.061 151.344 259.399 150.514 263.366C150.099 265.343 149.985 267.463 150.242 269.611C150.357 270.686 150.672 271.76 150.886 272.863C151.13 273.951 151.587 275.011 151.945 276.114C155.422 284.766 163.522 292.329 173.467 297.342L173.538 297.385L173.581 297.428C181.881 306.337 190.982 316.078 200.455 326.233L199.925 326.204L200.14 326.018C215.437 312.74 229.833 300.236 242.167 289.536L242.125 290.008C230.705 275.713 221.147 263.753 214.421 255.331C211.101 251.148 208.483 247.839 206.68 245.547C205.807 244.43 205.134 243.571 204.662 242.955C204.447 242.683 204.29 242.454 204.147 242.282C204.061 242.067 204.018 241.981 204.018 241.981Z" fill="#131B23"/>
<path d="M174.477 419.18C174.477 419.309 173.532 419.28 172.13 419.681C170.742 420.068 168.867 420.985 167.451 422.675C166.048 424.365 165.476 426.385 165.361 427.817C165.218 429.278 165.419 430.195 165.29 430.209C165.218 430.238 164.832 429.336 164.832 427.789C164.832 426.256 165.347 424.05 166.878 422.188C168.424 420.34 170.499 419.438 172.001 419.166C173.532 418.879 174.491 419.108 174.477 419.18Z" fill="#FF9A6C"/>
<path d="M177.1 422.546C177.143 422.646 176.528 423.062 175.569 423.764C175.097 424.122 174.524 424.537 173.937 425.053C173.379 425.583 172.749 426.156 172.492 426.929C171.948 428.562 172.062 430.252 172.148 431.412C172.263 432.587 172.449 433.303 172.349 433.346C172.263 433.389 171.891 432.702 171.633 431.498C171.404 430.31 171.175 428.562 171.79 426.671C172.134 425.683 172.892 425.038 173.494 424.523C174.138 424.007 174.753 423.62 175.268 423.32C176.342 422.718 177.057 422.46 177.1 422.546Z" fill="#FF9A6C"/>
<path d="M189.07 425.239C189.098 425.339 188.211 425.597 186.766 425.769C185.378 425.97 183.246 426.084 181.943 427.746C180.684 429.393 180.427 431.47 180.698 432.802C180.97 434.163 181.428 434.965 181.314 435.022C181.257 435.065 180.627 434.363 180.183 432.917C179.768 431.47 179.911 429.178 181.357 427.287C182.087 426.342 183.174 425.783 184.133 425.554C185.106 425.311 185.993 425.282 186.709 425.253C188.168 425.21 189.055 425.139 189.07 425.239Z" fill="#FF9A6C"/>
<path d="M211.332 419.18C211.26 419.366 207.826 418.22 203.647 416.616C201.558 415.814 199.684 415.069 198.339 414.496C196.993 413.923 196.164 413.536 196.192 413.494C196.264 413.193 199.741 414.324 203.919 415.914C208.083 417.518 211.403 418.98 211.332 419.18Z" fill="#FF9A6C"/>
<g opacity="0.3">
<path opacity="0.3" d="M275.67 291.627C275.67 291.627 270.533 336.618 260.459 354.952C250.399 373.287 242.114 388.986 242.114 388.986L241.398 392.452C241.398 392.452 261.833 360.181 265.539 352.159C269.231 344.124 275.971 327.995 279.677 312.325C283.369 296.741 283.955 294.033 283.841 294.033C283.855 294.033 278.002 289.751 275.67 291.627Z" fill="#131B23"/>
</g>
</svg>
